<svg width="40" height="40" viewBox="0 0 40 40" fill="none" xmlns="http://www.w3.org/2000/svg">
<g clip-path="url(#clip0_306_5133)">
<path fill-rule="evenodd" clip-rule="evenodd" d="M40 20C40 31.0458 31.0459 40 20.0003 40C8.95465 40 0 31.0458 0 20C0 8.95417 8.95465 0 20.0003 0C31.0459 0 40 8.95417 40 20Z" fill="#8247E5"/>
<path d="M26.8581 15.5018C26.3708 15.2234 25.7441 15.2234 25.1871 15.5018L21.2881 17.7984L18.6423 19.26L14.8129 21.5566C14.3255 21.835 13.6989 21.835 13.1419 21.5566L10.148 19.7471C9.66058 19.4687 9.31245 18.912 9.31245 18.2856V14.8058C9.31245 14.249 9.59095 13.6923 10.148 13.3443L13.1419 11.6044C13.6292 11.326 14.2559 11.326 14.8129 11.6044L17.8068 13.4139C18.2942 13.6923 18.6423 14.249 18.6423 14.8754V17.1721L21.2881 15.641V13.2747C21.2881 12.7179 21.0096 12.1612 20.4526 11.8132L14.8825 8.54216C14.3951 8.26378 13.7685 8.26378 13.2115 8.54216L7.50218 11.8828C6.94517 12.1612 6.66667 12.7179 6.66667 13.2747V19.8167C6.66667 20.3735 6.94517 20.9303 7.50218 21.2782L13.1419 24.5493C13.6292 24.8276 14.2559 24.8276 14.8129 24.5493L18.6423 22.3222L21.2881 20.7911L25.1175 18.564C25.6049 18.2856 26.2315 18.2856 26.7885 18.564L29.7824 20.3039C30.2698 20.5823 30.6179 21.1391 30.6179 21.7654V25.2452C30.6179 25.802 30.3394 26.3588 29.7824 26.7067L26.8581 28.4466C26.3708 28.725 25.7441 28.725 25.1871 28.4466L22.1932 26.7067C21.7058 26.4284 21.3577 25.8716 21.3577 25.2452V23.0181L18.7119 24.5493V26.8459C18.7119 27.4027 18.9904 27.9595 19.5474 28.3074L25.1871 31.5785C25.6745 31.8568 26.3011 31.8568 26.8581 31.5785L32.4978 28.3074C32.9852 28.0291 33.3333 27.4723 33.3333 26.8459V20.2343C33.3333 19.6775 33.0548 19.1208 32.4978 18.7728L26.8581 15.5018Z" fill="white"/>
</g>
<defs>
<clipPath id="clip0_306_5133">
<rect width="40" height="40" fill="white"/>
</clipPath>
</defs>
</svg>
