<svg width="40" height="40" viewBox="0 0 40 40" fill="none" xmlns="http://www.w3.org/2000/svg">
<g clip-path="url(#clip0_306_5066)">
<path d="M19.9999 40C31.0456 40 39.9999 31.0457 39.9999 20C39.9999 8.9543 31.0456 0 19.9999 0C8.95424 0 -6.10352e-05 8.9543 -6.10352e-05 20C-6.10352e-05 31.0457 8.95424 40 19.9999 40Z" fill="#2E3148"/>
<path d="M19.9999 31.6049C26.4092 31.6049 31.6049 26.4092 31.6049 20C31.6049 13.5907 26.4092 8.39502 19.9999 8.39502C13.5907 8.39502 8.395 13.5907 8.395 20C8.395 26.4092 13.5907 31.6049 19.9999 31.6049Z" fill="#1B1E36"/>
<path d="M20.0411 2.55151C17.8822 2.55151 16.1316 10.382 16.1316 20.0412C16.1316 29.7005 17.8822 37.5309 20.0411 37.5309C22.1999 37.5309 23.9506 29.7005 23.9506 20.0412C23.9506 10.382 22.1999 2.55151 20.0411 2.55151ZM20.311 36.5433C20.0641 36.8725 19.8172 36.6256 19.8172 36.6256C18.823 35.4733 18.3259 33.3334 18.3259 33.3334C16.5868 27.7367 17.0008 15.7202 17.0008 15.7202C17.818 6.18032 19.3053 3.92682 19.8106 3.42641C19.8624 3.37545 19.9305 3.34437 20.0029 3.33865C20.0753 3.33293 20.1474 3.35293 20.2065 3.39514C20.9407 3.9153 21.5563 6.09061 21.5563 6.09061C23.3744 12.8396 23.2098 19.177 23.2098 19.177C23.3744 24.6914 22.2987 30.8643 22.2987 30.8643C21.4707 35.5556 20.311 36.5433 20.311 36.5433Z" fill="#6F7390"/>
<path d="M35.2115 11.3375C34.1366 9.46425 26.474 11.8429 18.0921 16.6503C9.71023 21.4577 3.79665 26.8725 4.87072 28.7449C5.94479 30.6173 13.6082 28.2396 21.9901 23.4322C30.372 18.6247 36.2855 13.2099 35.2115 11.3375ZM5.86167 28.4873C5.45014 28.4354 5.54315 28.0972 5.54315 28.0972C6.04768 26.6618 7.65426 25.1655 7.65426 25.1655C11.6452 20.8717 22.2748 15.2511 22.2748 15.2511C30.9555 11.2124 33.6518 11.3828 34.3357 11.5704C34.4061 11.5899 34.4672 11.6336 34.5084 11.6939C34.5495 11.7542 34.5679 11.8271 34.5604 11.8996C34.4781 12.7951 32.8938 14.4116 32.8938 14.4116C27.9473 19.3498 22.3678 22.3614 22.3678 22.3614C17.6666 25.2494 11.7769 27.3869 11.7769 27.3869C7.29541 29.0017 5.86167 28.4873 5.86167 28.4873Z" fill="#6F7390"/>
<path d="M35.1736 28.8066C36.2567 26.9383 30.3588 21.498 22.0049 16.6552C13.651 11.8124 5.99089 9.40416 4.90858 11.2758C3.82628 13.1474 9.7234 18.5844 18.0814 23.4272C26.4394 28.27 34.0913 30.6782 35.1736 28.8066ZM5.62628 11.9976C5.46578 11.6181 5.80406 11.5268 5.80406 11.5268C7.29953 11.2445 9.39994 11.8873 9.39994 11.8873C15.1143 13.1885 25.3036 19.5712 25.3036 19.5712C33.1489 25.0609 34.3522 27.4791 34.5325 28.1655C34.5508 28.2359 34.5437 28.3105 34.5123 28.3761C34.481 28.4418 34.4275 28.4943 34.3613 28.5243C33.5431 28.8988 31.3522 28.3408 31.3522 28.3408C24.5991 26.5301 19.1983 23.2124 19.1983 23.2124C14.3456 20.5951 9.54727 16.5679 9.54727 16.5679C5.90118 13.498 5.62792 12.0009 5.62792 12.0009L5.62628 11.9976Z" fill="#6F7390"/>
<path d="M19.9999 22.0576C21.1363 22.0576 22.0575 21.1364 22.0575 20C22.0575 18.8636 21.1363 17.9424 19.9999 17.9424C18.8635 17.9424 17.9423 18.8636 17.9423 20C17.9423 21.1364 18.8635 22.0576 19.9999 22.0576Z" fill="#8992A3"/>
<path d="M28.4362 13.3334C29.0953 13.3334 29.6296 12.7807 29.6296 12.0988C29.6296 11.417 29.0953 10.8643 28.4362 10.8643C27.777 10.8643 27.2427 11.417 27.2427 12.0988C27.2427 12.7807 27.777 13.3334 28.4362 13.3334Z" fill="#8992A3"/>
<path d="M8.84768 17.5309C9.50679 17.5309 10.0411 16.9782 10.0411 16.2963C10.0411 15.6145 9.50679 15.0618 8.84768 15.0618C8.18858 15.0618 7.65427 15.6145 7.65427 16.2963C7.65427 16.9782 8.18858 17.5309 8.84768 17.5309Z" fill="#8992A3"/>
<path d="M17.572 32.6749C18.2311 32.6749 18.7654 32.1222 18.7654 31.4404C18.7654 30.7585 18.2311 30.2058 17.572 30.2058C16.9129 30.2058 16.3785 30.7585 16.3785 31.4404C16.3785 32.1222 16.9129 32.6749 17.572 32.6749Z" fill="#8992A3"/>
</g>
<defs>
<clipPath id="clip0_306_5066">
<rect width="40" height="40" fill="white"/>
</clipPath>
</defs>
</svg>
