<svg width="48" height="48" viewBox="0 0 48 48" fill="none" xmlns="http://www.w3.org/2000/svg">
<path fill-rule="evenodd" clip-rule="evenodd" d="M36 9H12V12H9V15H6V33H9V36H12V39H21V48H24V45H27V42H30V39H36V36H39V33H42V15H39V12H36V9ZM36 12V15H39V33H36V36H30V39H27V42H24V36H21H12V33H9V15H12V12H36ZM18 19H15V22H12V25H15V28H18V25H21V22H18V19ZM18 22V25H15V22H18ZM30 19H33V22H30V19ZM30 25H27V22H30V25ZM33 25V28H30V25H33ZM33 25H36V22H33V25Z" fill="#000A1E"/>
<path fill-rule="evenodd" clip-rule="evenodd" d="M36 6H12V9H9V12H6V30H9V33H12V36H21V45H24V42H27V39H30V36H36V33H39V30H42V12H39V9H36V6ZM36 9V12H39V30H36V33H30V36H27V39H24V33H21H12V30H9V12H12V9H36ZM18 16H15V19H12V22H15V25H18V22H21V19H18V16ZM18 19V22H15V19H18ZM30 16H33V19H30V16ZM30 22H27V19H30V22ZM33 22V25H30V22H33ZM33 22H36V19H33V22Z" fill="#CED5E0"/>
</svg>
