<svg width="142" height="36" viewBox="0 0 142 36" fill="none" xmlns="http://www.w3.org/2000/svg">
<g clip-path="url(#clip0_306_4985)">
<path d="M6.06638 9H1.26639V27H6.06638V24.6781H3.79022V11.3219H6.06638V9Z" fill="#8992A3"/>
<path d="M15.482 20.5728C15.3265 20.16 15.1788 19.7675 14.9964 19.3284C14.853 18.9828 14.3433 19.0193 14.2076 19.368C12.8926 22.7454 9.88657 24.9691 9.15925 20.5998C8.63277 17.4369 10.2262 13.3284 11.7666 13.3284C13.3071 13.3284 14.299 15.2252 15.9995 19.4425C17.7319 23.7391 19.4356 25.1249 20.3798 21.0039C20.3906 20.9567 20.2943 20.9204 20.2668 20.9602C20.04 21.2883 19.6658 21.6358 19.1773 21.6152C18.6502 21.5932 17.8823 19.9638 17.125 18.229L19.1086 12.3274C19.1957 12.0682 19.0028 11.8 18.7294 11.8H17.3979C17.2333 11.8 17.0855 11.9008 17.0255 12.054L15.7822 15.2252C14.7333 13.1431 13.4128 11.8 11.3934 11.8C9.28681 11.8 6.89429 15.2252 6.86669 18.7434C6.83909 22.2614 8.69885 24.2 11.3934 24.2C13.3561 24.2 14.9766 22.327 15.5611 21.105C15.6058 21.0115 15.607 20.9043 15.5704 20.8073C15.5408 20.729 15.5117 20.6519 15.4829 20.5754L15.482 20.5728Z" fill="#8992A3"/>
<path d="M25.2664 9H20.8664V11.3219H22.9529V24.6781H20.8664V27H25.2664V9Z" fill="#8992A3"/>
<path fill-rule="evenodd" clip-rule="evenodd" d="M45.348 21.7322V23.2373H44.3512C43.6392 23.2373 42.5412 22.9322 42.4192 21.7932C41.7276 22.8712 40.6292 23.4814 39.2054 23.4814C36.785 23.4814 35.6664 22.017 35.6664 20.5119C35.6664 18.7017 36.907 17.6848 38.7376 17.3797L41.7072 16.8712C42.2564 16.7695 42.3376 16.4237 42.3376 16.139C42.3376 15.7119 42.114 14.2678 40.1206 14.2678C38.2494 14.2678 37.802 15.4271 37.6393 16.1593L35.9308 15.9559C36.1545 14.5322 37.3952 12.8237 40.1817 12.8237C42.9884 12.8237 44.1072 14.5729 44.1072 16.383V20.9593C44.1072 21.4881 44.2904 21.7322 44.8596 21.7322H45.348ZM39.1037 18.7017C37.8833 18.9051 37.4562 19.5966 37.4562 20.3898C37.4562 21.3051 38.046 22.0373 39.4088 22.0373C41.0564 22.0373 42.358 20.7559 42.358 18.722V18.1322L39.1037 18.7017Z" fill="#8992A3"/>
<path d="M47.8112 21.7526V23.2373H57.2284V21.7526H53.4248V9H47.8112V10.4848H51.6148V21.7526H47.8112Z" fill="#8992A3"/>
<path fill-rule="evenodd" clip-rule="evenodd" d="M61.38 14.5932C62.092 13.5356 63.17 12.8237 64.7156 12.8237C67.5224 12.8237 69.2512 14.939 69.2512 18.0712C69.2512 21.2237 67.5428 23.4814 64.7156 23.4814C63.2104 23.4814 62.1324 22.8305 61.4208 21.8339V27H59.6104V13.0678H61.38V14.5932ZM67.4004 18.1526C67.4004 15.9763 66.3632 14.3695 64.4512 14.3695C62.5188 14.3695 61.38 15.9356 61.38 18.1526C61.38 20.3085 62.5392 21.9152 64.4512 21.9152C66.3632 21.9152 67.4004 20.3288 67.4004 18.1526Z" fill="#8992A3"/>
<path d="M80.6639 23.2373V16.6474C80.6639 14.5526 79.4639 12.8237 76.8399 12.8237C75.3755 12.8237 74.3587 13.4136 73.7283 14.3085V9H71.9179V23.2373H73.7283V17.6237C73.7283 15.5085 74.6639 14.3898 76.4535 14.3898C77.9791 14.3898 78.8535 15.3254 78.8535 16.9729V23.2373H80.6639Z" fill="#8992A3"/>
<path fill-rule="evenodd" clip-rule="evenodd" d="M93.3579 21.7322V23.2373H92.3611C91.6495 23.2373 90.5511 22.9322 90.4291 21.7932C89.7375 22.8712 88.6391 23.4814 87.2155 23.4814C84.7951 23.4814 83.6763 22.017 83.6763 20.5119C83.6763 18.7017 84.9171 17.6848 86.7475 17.3797L89.7171 16.8712C90.2663 16.7695 90.3475 16.4237 90.3475 16.139C90.3475 15.7119 90.1239 14.2678 88.1307 14.2678C86.2595 14.2678 85.8119 15.4271 85.6495 16.1593L83.9407 15.9559C84.1647 14.5322 85.4051 12.8237 88.1919 12.8237C90.9987 12.8237 92.1171 14.5729 92.1171 16.383V20.9593C92.1171 21.4881 92.3003 21.7322 92.8699 21.7322H93.3579ZM87.1139 18.7017C85.8935 18.9051 85.4663 19.5966 85.4663 20.3898C85.4663 21.3051 86.0563 22.0373 87.4187 22.0373C89.0663 22.0373 90.3679 20.7559 90.3679 18.722V18.1322L87.1139 18.7017Z" fill="#8992A3"/>
<path d="M95.252 23.2373V24.7627H105.178V23.2373H95.252Z" fill="#8992A3"/>
<path d="M107.824 23.2373V21.7526H111.627V10.4848H107.824V9H113.438V21.7526H117.241V23.2373H107.824Z" fill="#8992A3"/>
<path fill-rule="evenodd" clip-rule="evenodd" d="M129.365 23.2373V21.7322H128.877C128.308 21.7322 128.125 21.4881 128.125 20.9593V16.383C128.125 14.5729 127.006 12.8237 124.199 12.8237C121.413 12.8237 120.172 14.5322 119.948 15.9559L121.657 16.1593C121.819 15.4271 122.267 14.2678 124.138 14.2678C126.131 14.2678 126.355 15.7119 126.355 16.139C126.355 16.4237 126.274 16.7695 125.725 16.8712L122.755 17.3797C120.925 17.6848 119.684 18.7017 119.684 20.5119C119.684 22.017 120.803 23.4814 123.223 23.4814C124.647 23.4814 125.745 22.8712 126.437 21.7932C126.559 22.9322 127.657 23.2373 128.369 23.2373H129.365ZM121.474 20.3898C121.474 19.5966 121.901 18.9051 123.121 18.7017L126.375 18.1322V18.722C126.375 20.7559 125.074 22.0373 123.426 22.0373C122.063 22.0373 121.474 21.3051 121.474 20.3898Z" fill="#8992A3"/>
<path fill-rule="evenodd" clip-rule="evenodd" d="M133.435 14.5322C134.147 13.5152 135.205 12.8237 136.731 12.8237C139.537 12.8237 141.266 14.939 141.266 18.0712C141.266 21.2237 139.558 23.4814 136.731 23.4814C135.205 23.4814 134.107 22.8102 133.395 21.7729V23.2373H131.625V9H133.435V14.5322ZM139.415 18.1526C139.415 15.9763 138.378 14.3695 136.466 14.3695C134.534 14.3695 133.395 15.9356 133.395 18.1526C133.395 20.3085 134.554 21.9152 136.466 21.9152C138.378 21.9152 139.415 20.3288 139.415 18.1526Z" fill="#8992A3"/>
</g>
<defs>
<clipPath id="clip0_306_4985">
<rect width="141" height="36" fill="white" transform="translate(0.141388)"/>
</clipPath>
</defs>
</svg>
