<svg width="126" height="36" viewBox="0 0 126 36" fill="none" xmlns="http://www.w3.org/2000/svg">
<path d="M8.48248 11.8612L16.5595 7.19798L24.6364 11.8612L30.8373 8.24333L16.5595 0L2.28157 8.24335L8.48248 11.8612Z" fill="#8992A3"/>
<path d="M6.76635 14.9196L0.532715 11.2826V27.7592L14.8062 36V28.802L6.76635 24.1602V14.9196Z" fill="#8992A3"/>
<path d="M18.3127 36V28.802L26.3526 24.1602V14.9195L32.5862 11.2826V27.7592L18.3127 36Z" fill="#8992A3"/>
<path d="M32.5862 9.25388V9.25305L32.5855 9.25263L32.5862 9.25388Z" fill="#8992A3"/>
<path d="M0.533377 9.25267L0.532715 9.2538V9.25305L0.533377 9.25267Z" fill="#8992A3"/>
<path d="M73.6822 11.8283C73.4708 12.0398 73.3651 12.2944 73.3651 12.5923C73.3651 12.8999 73.4708 13.1593 73.6822 13.3708C73.9032 13.5726 74.1675 13.6735 74.475 13.6735C74.7825 13.6735 75.042 13.5726 75.2534 13.3708C75.4745 13.1593 75.585 12.8999 75.585 12.5923C75.585 12.2944 75.4745 12.0398 75.2534 11.8283C75.042 11.6169 74.7825 11.5112 74.475 11.5112C74.1675 11.5112 73.9032 11.6169 73.6822 11.8283Z" fill="#8992A3"/>
<path d="M56.9035 11.8283H55.0871V22.2073H56.9035V18.4161C56.9131 18.1566 56.9659 17.902 57.062 17.6521C57.1581 17.3926 57.2879 17.1668 57.4513 16.9746C57.6146 16.7824 57.8068 16.6286 58.0279 16.5133C58.2585 16.3884 58.5084 16.3259 58.7775 16.3259C59.2099 16.3259 59.5559 16.4604 59.8154 16.7295C60.0844 16.9986 60.219 17.383 60.219 17.8827V22.2073H62.0786V17.2917C62.0786 16.8881 62.0161 16.5181 61.8912 16.1817C61.7758 15.8454 61.6029 15.5571 61.3722 15.3168C61.1512 15.067 60.8773 14.8748 60.5505 14.7402C60.2238 14.6057 59.8586 14.5384 59.455 14.5384C58.9072 14.5384 58.4171 14.6537 57.9846 14.8844C57.5522 15.115 57.1918 15.4321 56.9035 15.8358V11.8283Z" fill="#8992A3"/>
<path d="M44.0182 15.4466C43.7588 16.052 43.629 16.6959 43.629 17.3782C43.629 18.0701 43.7588 18.7188 44.0182 19.3243C44.2873 19.9201 44.6477 20.4439 45.0994 20.8955C45.5511 21.3472 46.0796 21.7028 46.6851 21.9623C47.2905 22.2217 47.9392 22.3515 48.6311 22.3515C49.2462 22.3515 49.818 22.265 50.3465 22.092C50.8847 21.9094 51.3604 21.6547 51.7737 21.328C52.1965 21.0013 52.5521 20.612 52.8404 20.1604C53.1287 19.7087 53.3305 19.2041 53.4458 18.6468H51.3268C51.1346 19.2041 50.7982 19.6462 50.3177 19.973C49.8468 20.2997 49.2846 20.4631 48.6311 20.4631C48.2179 20.4631 47.8287 20.3814 47.4635 20.218C47.0983 20.0546 46.7764 19.8336 46.4977 19.5549C46.2286 19.2762 46.0124 18.9495 45.849 18.5747C45.6952 18.1999 45.6183 17.8011 45.6183 17.3782C45.6183 16.9554 45.6952 16.5565 45.849 16.1817C46.0124 15.8069 46.2286 15.4802 46.4977 15.2015C46.7764 14.9228 47.0983 14.7018 47.4635 14.5384C47.8287 14.375 48.2179 14.2933 48.6311 14.2933C49.2846 14.2933 49.8468 14.4567 50.3177 14.7835C50.7982 15.1102 51.1346 15.5523 51.3268 16.1097H53.4458C53.3305 15.5523 53.1287 15.0477 52.8404 14.5961C52.5521 14.1348 52.1965 13.7456 51.7737 13.4284C51.3604 13.1017 50.8847 12.8518 50.3465 12.6788C49.818 12.4962 49.2462 12.4049 48.6311 12.4049C47.9392 12.4049 47.2905 12.5347 46.6851 12.7942C46.0796 13.0536 45.5511 13.4092 45.0994 13.8609C44.6477 14.3126 44.2873 14.8411 44.0182 15.4466Z" fill="#8992A3"/>
<path fill-rule="evenodd" clip-rule="evenodd" d="M71.5102 22.2073H69.6939V21.2127C69.4632 21.5683 69.1557 21.8469 68.7713 22.0488C68.3869 22.241 67.9064 22.3371 67.3298 22.3371C66.8012 22.3371 66.3111 22.241 65.8594 22.0488C65.4173 21.8469 65.0329 21.5731 64.7062 21.2271C64.3795 20.8715 64.1248 20.4583 63.9422 19.9874C63.7692 19.5069 63.6827 18.9927 63.6827 18.4449C63.6827 17.8876 63.7692 17.3734 63.9422 16.9025C64.1248 16.422 64.3795 16.0088 64.7062 15.6628C65.0329 15.3072 65.4173 15.0333 65.8594 14.8411C66.3111 14.6393 66.806 14.5384 67.3442 14.5384C67.9208 14.5384 68.3965 14.6393 68.7713 14.8411C69.1557 15.0333 69.4632 15.3072 69.6939 15.6628V14.6826H71.5102V22.2073ZM69.6939 18.099C69.6266 17.5992 69.4104 17.1812 69.0452 16.8448C68.68 16.4989 68.2139 16.3259 67.6469 16.3259C67.3298 16.3259 67.0415 16.3836 66.782 16.4989C66.5225 16.6142 66.3015 16.768 66.1189 16.9602C65.9459 17.1524 65.8114 17.3782 65.7153 17.6377C65.6192 17.8972 65.5711 18.1711 65.5711 18.4594C65.5711 18.7381 65.6192 19.0023 65.7153 19.2522C65.8114 19.5021 65.9459 19.7231 66.1189 19.9153C66.3015 20.1075 66.5225 20.2613 66.782 20.3766C67.0415 20.4919 67.3298 20.5496 67.6469 20.5496C67.9256 20.5496 68.1851 20.5063 68.4253 20.4198C68.6656 20.3237 68.8722 20.1988 69.0452 20.045C69.2278 19.8817 69.3719 19.6943 69.4776 19.4828C69.593 19.2618 69.665 19.0312 69.6939 18.7909V18.099Z" fill="#8992A3"/>
<path d="M77.4432 14.6826H79.2595V15.879C79.5382 15.4658 79.8938 15.139 80.3263 14.8988C80.7587 14.6585 81.2537 14.5384 81.8111 14.5384C82.2147 14.5384 82.5799 14.6057 82.9066 14.7402C83.2334 14.8748 83.5073 15.067 83.7283 15.3168C83.9589 15.5571 84.1319 15.8454 84.2472 16.1817C84.3722 16.5181 84.4346 16.8881 84.4346 17.2917V22.2073H82.6183V17.8827C82.6183 17.383 82.479 16.9986 82.2003 16.7295C81.9216 16.4604 81.566 16.3259 81.1335 16.3259C80.8644 16.3259 80.6146 16.3884 80.3839 16.5133C80.1629 16.6286 79.9707 16.7824 79.8073 16.9746C79.644 17.1668 79.5142 17.3926 79.4181 17.6521C79.322 17.902 79.2692 18.1566 79.2595 18.4161V22.2073H77.4432V14.6826Z" fill="#8992A3"/>
<path d="M88.6191 12.5491H86.7307V22.2073H93.0446V20.4775H88.6191V12.5491Z" fill="#8992A3"/>
<path fill-rule="evenodd" clip-rule="evenodd" d="M101.895 22.2073H100.079V21.2127C99.8485 21.5683 99.541 21.8469 99.1566 22.0488C98.7722 22.241 98.2917 22.3371 97.715 22.3371C97.1865 22.3371 96.6964 22.241 96.2447 22.0488C95.8026 21.8469 95.4182 21.5731 95.0915 21.2271C94.7647 20.8715 94.5101 20.4583 94.3275 19.9874C94.1545 19.5069 94.068 18.9927 94.068 18.4449C94.068 17.8876 94.1545 17.3734 94.3275 16.9025C94.5101 16.422 94.7647 16.0088 95.0915 15.6628C95.4182 15.3072 95.8026 15.0333 96.2447 14.8411C96.6964 14.6393 97.1913 14.5384 97.7295 14.5384C98.3061 14.5384 98.7818 14.6393 99.1566 14.8411C99.541 15.0333 99.8485 15.3072 100.079 15.6628V14.6826H101.895V22.2073ZM100.079 18.099C100.012 17.5992 99.7957 17.1812 99.4305 16.8448C99.0653 16.4989 98.5992 16.3259 98.0322 16.3259C97.715 16.3259 97.4268 16.3836 97.1673 16.4989C96.9078 16.6142 96.6868 16.768 96.5042 16.9602C96.3312 17.1524 96.1966 17.3782 96.1005 17.6377C96.0044 17.8972 95.9564 18.1711 95.9564 18.4594C95.9564 18.7381 96.0044 19.0023 96.1005 19.2522C96.1966 19.5021 96.3312 19.7231 96.5042 19.9153C96.6868 20.1075 96.9078 20.2613 97.1673 20.3766C97.4268 20.4919 97.715 20.5496 98.0322 20.5496C98.3109 20.5496 98.5704 20.5063 98.8106 20.4198C99.0509 20.3237 99.2575 20.1988 99.4305 20.045C99.6131 19.8817 99.7572 19.6943 99.8629 19.4828C99.9782 19.2618 100.05 19.0312 100.079 18.7909V18.099Z" fill="#8992A3"/>
<path d="M75.3832 14.6826H73.5669V22.2073H75.3832V14.6826Z" fill="#8992A3"/>
<path d="M106.057 22.1208L104.947 25.1048H106.72L110.785 14.6826H108.839L106.951 19.6702L105.134 14.6826H103.203L106.057 22.1208Z" fill="#8992A3"/>
<path fill-rule="evenodd" clip-rule="evenodd" d="M113.24 18.863C113.316 19.3819 113.533 19.8144 113.888 20.1604C114.253 20.5063 114.724 20.6793 115.301 20.6793C115.676 20.6793 116.007 20.5976 116.296 20.4343C116.593 20.2613 116.81 20.0498 116.944 19.8H118.977C118.765 20.5688 118.333 21.1838 117.679 21.6451C117.036 22.1064 116.238 22.3371 115.286 22.3371C114.729 22.3371 114.21 22.241 113.73 22.0488C113.249 21.8469 112.831 21.5731 112.476 21.2271C112.12 20.8715 111.841 20.4583 111.639 19.9874C111.447 19.5069 111.351 18.9927 111.351 18.4449C111.351 17.8876 111.447 17.3734 111.639 16.9025C111.832 16.422 112.101 16.0088 112.447 15.6628C112.793 15.3072 113.201 15.0333 113.672 14.8411C114.152 14.6393 114.671 14.5384 115.229 14.5384C115.757 14.5384 116.248 14.6201 116.699 14.7835C117.16 14.9372 117.559 15.1583 117.896 15.4466C118.242 15.7253 118.52 16.0664 118.732 16.47C118.943 16.8737 119.073 17.3206 119.121 17.8107C119.14 18.0125 119.15 18.1951 119.15 18.3584C119.15 18.5122 119.145 18.6804 119.135 18.863H113.24ZM117.16 17.753C117.103 17.2917 116.896 16.9169 116.541 16.6286C116.195 16.3403 115.762 16.1962 115.243 16.1962C114.724 16.1962 114.292 16.3403 113.946 16.6286C113.61 16.9169 113.388 17.2917 113.283 17.753H117.16Z" fill="#8992A3"/>
<path d="M122.573 14.6826H120.757V22.2073H122.573V18.7765C122.592 18.3921 122.683 18.0557 122.847 17.7674C123.02 17.4695 123.236 17.2244 123.496 17.0322C123.765 16.84 124.063 16.6959 124.389 16.5998C124.716 16.4941 125.043 16.446 125.37 16.4556V14.5384C124.803 14.5384 124.269 14.6729 123.769 14.942C123.279 15.2015 122.88 15.6003 122.573 16.1385V14.6826Z" fill="#8992A3"/>
<path opacity="0.8" d="M16.5595 10.3245L23.3775 14.4153L16.5595 18.5061L9.74146 14.4153L16.5595 10.3245Z" fill="#8992A3"/>
<path opacity="0.6" d="M16.5595 14.4153L23.3775 18.5061L16.5595 22.5969L9.74146 18.5061L16.5595 14.4153Z" fill="#8992A3"/>
<path opacity="0.4" d="M16.5595 18.1165L23.3775 22.2073L16.5595 26.2981L9.74146 22.2073L16.5595 18.1165Z" fill="#8992A3"/>
</svg>
