<svg width="77" height="36" viewBox="0 0 77 36" fill="none" xmlns="http://www.w3.org/2000/svg">
<path d="M10.1115 12.2786V24.4767C10.1115 27.1776 8.0214 29 4.00009 29V26.4351C5.72678 26.4351 6.58944 25.7152 6.58944 24.2514V12.2786H10.1115Z" fill="#8992A3"/>
<path d="M6.9757 10.2976C6.79229 10.1204 6.64654 9.90858 6.54701 9.67471C6.4475 9.44083 6.39622 9.1896 6.39622 8.9358C6.39622 8.682 6.4475 8.43076 6.54701 8.19689C6.64654 7.96301 6.79229 7.75123 6.9757 7.57401C7.1546 7.39233 7.3684 7.24795 7.60451 7.14937C7.84061 7.05079 8.09423 7 8.35046 7C8.60668 7 8.8603 7.05079 9.0964 7.14937C9.3325 7.24795 9.5463 7.39233 9.7252 7.57401C9.90862 7.75123 10.0544 7.96301 10.1539 8.19689C10.2534 8.43076 10.3047 8.682 10.3047 8.9358C10.3047 9.1896 10.2534 9.44083 10.1539 9.67471C10.0544 9.90858 9.90862 10.1204 9.7252 10.2976C9.5463 10.4793 9.3325 10.6236 9.0964 10.7222C8.8603 10.8208 8.60668 10.8716 8.35046 10.8716C8.09423 10.8716 7.84061 10.8208 7.60451 10.7222C7.3684 10.6236 7.1546 10.4793 6.9757 10.2976Z" fill="#8992A3"/>
<path d="M20.3073 12.2787H23.8294V23.8236H20.3073V22.1359C19.7741 22.7496 19.111 23.2394 18.3651 23.5705C17.619 23.9016 16.8087 24.0658 15.9913 24.0516C13.3549 24.0516 11.6053 22.4318 11.6053 19.3936V12.2814H15.1286V18.0659C15.1286 20.0655 15.924 21.0813 17.5377 21.0813C19.0827 21.0813 20.3087 19.8882 20.3087 17.5246L20.3073 12.2787Z" fill="#8992A3"/>
<path d="M45.8055 23.8302V16.7193C45.8055 13.4931 44.1704 12.0534 41.4666 12.0534C39.7179 12.0534 38.2182 12.8435 36.9675 14.4237C36.3565 12.8479 35.0362 12.06 32.9919 12.06C31.3783 12.06 30.015 12.6906 28.8563 13.9504V12.2853H25.3342V23.8302H28.8563V18.5871C28.8563 16.2461 30.1065 15.0316 31.56 15.0316C33.0592 15.0307 33.8088 15.9981 33.8088 17.9338V23.8302H37.3309V18.5871C37.3309 16.2461 38.5811 15.0316 40.0346 15.0316C41.5348 15.0307 42.2848 15.9981 42.2848 17.9338V23.8302H45.8055Z" fill="#8992A3"/>
<path fill-rule="evenodd" clip-rule="evenodd" d="M58.899 13.6291C60.0349 14.709 60.6028 16.1714 60.6028 18.0404C60.6028 19.9095 60.0349 21.3732 58.899 22.4291C57.7631 23.5089 56.3312 24.0489 54.5816 24.0489C53.0367 24.0489 51.7868 23.5538 50.8322 22.5637V28.7761H47.3115V12.2787H50.8322V13.5198C51.7868 12.5306 53.0367 12.0356 54.5816 12.0347C56.3312 12.0307 57.7631 12.5706 58.899 13.6291ZM56.9221 18.0404C56.9221 15.9701 55.6274 14.597 53.8778 14.597C52.1511 14.597 50.8322 15.9021 50.8322 18.0404C50.8322 20.1788 52.1511 21.4839 53.8778 21.4839C55.6274 21.4839 56.9221 20.1108 56.9221 18.0404Z" fill="#8992A3"/>
<path d="M73.0948 23.3591V20.6326H62.0853V23.3591H73.0948Z" fill="#8992A3"/>
</svg>
