<svg width="78" height="36" viewBox="0 0 78 36" fill="none" xmlns="http://www.w3.org/2000/svg">
<path d="M25.0169 19.8245L25.007 19.8364L24.9731 19.7857C24.9877 19.7987 25.0023 19.8116 25.0169 19.8245Z" fill="#8992A3"/>
<path d="M25.0169 19.8245L26.5964 17.9257C27.594 18.8557 28.896 19.3799 30.2487 19.4137C31.3478 19.4137 32.0072 18.974 32.0072 18.2639V18.2301C32.0072 17.5706 31.6014 17.1986 29.5385 16.6744C27.0698 16.015 25.4804 15.3555 25.4804 12.9376C25.4804 10.7225 27.2558 9.25145 29.7583 9.25145C31.3985 9.21763 33.0048 9.77562 34.3068 10.8071L32.9034 12.8361C31.9903 12.126 30.8743 11.7032 29.7245 11.6356C28.6931 11.6356 28.152 12.109 28.152 12.7009C28.152 13.5125 28.6762 13.7661 30.7729 14.3072C33.2585 14.9666 34.645 15.8459 34.645 17.9764C34.645 20.4113 32.785 21.764 30.1642 21.764C28.2728 21.764 26.4477 21.0847 25.0169 19.8245Z" fill="#8992A3"/>
<path fill-rule="evenodd" clip-rule="evenodd" d="M17.0936 9.30218L11.8349 21.6287H14.5742L15.6902 18.8895H20.8643L21.9802 21.6287H24.804L19.5623 9.30218H17.0936ZM18.311 12.5318L19.9343 16.4715H16.654L18.311 12.5318Z" fill="#8992A3"/>
<path d="M7.97971 14.2395V9.40361H10.6682V21.6287H7.97971V16.7251H3.02542V21.6287H0.336914V9.40361H3.02542V14.2395H7.97971Z" fill="#8992A3"/>
<path d="M43.8942 14.2395V9.40361H46.5827V21.6287H43.8942V16.7251H38.923V21.6287H36.2345V9.40361H38.923V14.2395H43.8942Z" fill="#8992A3"/>
<path d="M55.8825 9.40361V21.6287H65.1993V19.2276H58.5541V16.6575H64.32V14.2564H58.5541V11.7878H65.0978V9.40361H55.8825Z" fill="#8992A3"/>
<path d="M71.6923 14.3072L74.6683 9.40361H77.7288L73.0281 16.759V21.6287H70.3396V16.8097L65.6389 9.40361H68.784L71.6923 14.3072Z" fill="#8992A3"/>
<path d="M54.8342 21.6287L49.2036 15.9981L47.3267 17.8749L51.0804 21.6287H54.8342Z" fill="#8992A3"/>
<path d="M49.1697 11.2974L51.0804 9.40361H54.8849L52.9742 11.2974L51.0804 13.2081L49.1697 15.1019L47.259 13.2081L49.1697 11.2974Z" fill="#8992A3"/>
<path d="M36.2514 26.7183L39.3288 29.7788L36.2514 32.8731V26.7183Z" fill="#8992A3"/>
<path d="M42.6429 33.0253C43.0825 33.2113 43.556 33.2958 44.0294 33.2958L43.9956 33.3127C44.3 33.3127 44.6043 33.2789 44.8918 33.2282C45.1454 33.1775 45.3821 33.0929 45.6189 32.9915C45.8387 32.8731 46.0585 32.7547 46.2445 32.6026C46.4305 32.4504 46.6165 32.2813 46.7856 32.0953L45.8387 31.1315C45.602 31.3682 45.3314 31.5711 45.044 31.7233C44.7396 31.8586 44.4014 31.9431 44.0632 31.9262C43.7927 31.9262 43.5222 31.8755 43.2685 31.7571C43.0318 31.6557 42.812 31.5035 42.6429 31.3006C42.4738 31.0977 42.3385 30.8779 42.2371 30.6411C42.1356 30.3706 42.0849 30.1 42.0849 29.8126C42.0849 29.5252 42.1356 29.2546 42.2371 28.9841C42.3385 28.7473 42.4738 28.5106 42.6429 28.3246C42.812 28.1217 43.0318 27.9695 43.2685 27.8681C43.5222 27.7497 43.7927 27.699 44.0632 27.699C44.3845 27.699 44.7058 27.7666 44.9932 27.9019C45.2976 28.0541 45.5681 28.2401 45.8049 28.4599L46.7518 27.3608C46.7377 27.3481 46.7237 27.3355 46.7098 27.3228C46.6991 27.313 46.6884 27.3032 46.6777 27.2935L46.6555 27.2731L46.6554 27.2729C46.5227 27.1511 46.3946 27.0336 46.2445 26.9381C46.0585 26.8028 45.8556 26.6845 45.6527 26.5999C45.416 26.5154 45.1792 26.4477 44.9425 26.397C44.6551 26.3294 44.3676 26.3125 44.0802 26.3125C43.5898 26.2956 43.0994 26.397 42.6429 26.583C42.2202 26.769 41.8482 27.0226 41.5269 27.3439C40.9013 28.0034 40.5462 28.8826 40.5462 29.8126C40.5462 30.286 40.6477 30.7426 40.8167 31.1822C40.9858 31.588 41.2226 31.96 41.5438 32.2813C41.8651 32.6026 42.2371 32.8562 42.6429 33.0253Z" fill="#8992A3"/>
<path fill-rule="evenodd" clip-rule="evenodd" d="M49.0513 33.2789C48.8146 33.2789 48.5779 33.2451 48.358 33.1775C48.1551 33.1098 47.9522 33.0084 47.7831 32.8731C47.631 32.7378 47.4957 32.5687 47.3942 32.3827C47.3097 32.1798 47.259 31.96 47.259 31.7233C47.259 31.4697 47.3097 31.216 47.4112 30.9962C47.5126 30.7933 47.6479 30.6073 47.8339 30.489C48.0368 30.3368 48.2566 30.2353 48.4933 30.1846C48.7639 30.117 49.0513 30.0831 49.3388 30.0831C49.5755 30.0831 49.8122 30.1001 50.032 30.1339C50.2349 30.1677 50.4209 30.2184 50.6069 30.2861V30.1677C50.6069 30.0324 50.59 29.8972 50.5393 29.7788C50.4886 29.6604 50.404 29.5421 50.3195 29.4575C50.0828 29.2884 49.7953 29.187 49.4909 29.2208C49.2373 29.2208 48.9837 29.2377 48.73 29.3053C48.5102 29.3561 48.2904 29.4237 48.0706 29.5082L47.6986 28.3923C47.9861 28.2739 48.2735 28.1725 48.5779 28.1048C48.9499 28.0203 49.3219 27.9864 49.6939 27.9864C50.0489 27.9695 50.404 28.0203 50.7422 28.1386C51.0127 28.2232 51.2495 28.3754 51.4524 28.5614C51.6553 28.7643 51.7905 29.001 51.8751 29.2715C51.9765 29.5759 52.0104 29.8972 52.0104 30.2184V33.2282H50.59V32.6702C50.404 32.8731 50.1842 33.0422 49.9306 33.1436C49.6939 33.2282 49.3726 33.2958 49.0513 33.2789ZM49.5079 32.2813C49.8122 32.2982 50.0997 32.1968 50.3364 32.0277C50.4378 31.9431 50.5224 31.8586 50.5731 31.7402C50.6238 31.6219 50.6577 31.5035 50.6577 31.3682V31.0977C50.5358 31.0368 50.4002 31.0033 50.2757 30.9725L50.2535 30.967L50.2349 30.9624C50.0658 30.9286 49.8968 30.9117 49.7277 30.9117C49.4571 30.8948 49.2035 30.9624 48.9837 31.0977C48.8991 31.1653 48.8315 31.233 48.7808 31.3344C48.73 31.4189 48.7131 31.5204 48.7131 31.6388C48.7131 31.7233 48.73 31.8248 48.7639 31.8924C48.7977 31.9769 48.8653 32.0446 48.933 32.0953C49.102 32.2137 49.305 32.2644 49.5248 32.2644L49.5079 32.2813Z" fill="#8992A3"/>
<path fill-rule="evenodd" clip-rule="evenodd" d="M54.496 27.9865H53.0249V34.75H54.496V32.4842C54.682 32.6871 54.9018 32.8731 55.1554 33.0253C55.4429 33.1944 55.7811 33.2789 56.1192 33.262C56.4236 33.262 56.7279 33.2113 57.0154 33.0929C57.2859 32.9746 57.5565 32.7886 57.7594 32.5688C57.9792 32.3151 58.1652 32.0277 58.2836 31.7233C58.4188 31.3513 58.4865 30.9624 58.4865 30.5735C58.4865 30.1846 58.4188 29.7957 58.2836 29.4237C58.1652 29.1193 57.9792 28.8319 57.7594 28.5783C57.5396 28.3415 57.2859 28.1725 56.9985 28.0541C56.7279 27.9357 56.4236 27.885 56.1192 27.885C55.7811 27.8681 55.4429 27.9526 55.1554 28.1217C54.9018 28.2908 54.682 28.4937 54.496 28.7305V27.9865ZM56.2376 31.9262C56.0854 31.9939 55.9163 32.0277 55.7472 32.0277C55.5781 32.0277 55.4091 31.9939 55.2569 31.9262C55.1047 31.8586 54.9694 31.7571 54.8511 31.6388C54.7327 31.5035 54.6482 31.3513 54.5805 31.1822C54.5129 30.9962 54.4791 30.7933 54.4791 30.5904C54.4791 30.3875 54.5129 30.1846 54.5805 29.9986C54.6482 29.8295 54.7327 29.6773 54.8511 29.5421C54.9694 29.4237 55.1047 29.3223 55.2569 29.2546C55.4091 29.187 55.5781 29.1532 55.7472 29.1532C55.9163 29.1532 56.0854 29.187 56.2376 29.2546C56.3898 29.3223 56.525 29.4237 56.6434 29.5421C56.7618 29.6773 56.8632 29.8295 56.9309 29.9986C56.9985 30.2015 57.0323 30.3875 57.0323 30.5904C57.0323 30.7933 56.9985 30.9962 56.9309 31.1822C56.8632 31.3513 56.7618 31.5035 56.6434 31.6388C56.525 31.7571 56.3898 31.8586 56.2376 31.9262Z" fill="#8992A3"/>
<path d="M59.2474 26.1096H60.803V27.4284H59.2474V26.1096Z" fill="#8992A3"/>
<path d="M59.2812 27.9864H60.7523V33.1775H59.2812V27.9864Z" fill="#8992A3"/>
<path d="M62.9335 33.1944C63.1337 33.2444 63.3339 33.2616 63.5341 33.262L63.5253 33.262H63.5422L63.5341 33.262C63.751 33.2616 63.9679 33.2442 64.1848 33.1775C64.3539 33.1268 64.5399 33.0591 64.692 32.9577V31.774C64.4722 31.9093 64.2186 31.977 63.965 31.977C63.6606 31.977 63.4915 31.8079 63.4915 31.4697V29.2546H64.709V28.0034H63.4915V26.6845H62.0374V28.0034H61.4286V29.2546H62.0374V31.7233C62.0374 31.977 62.0712 32.2306 62.1557 32.4673C62.2064 32.6364 62.3248 32.8055 62.4601 32.9408C62.5953 33.0591 62.7644 33.1437 62.9335 33.1944Z" fill="#8992A3"/>
<path fill-rule="evenodd" clip-rule="evenodd" d="M66.9578 33.2789C66.738 33.2789 66.5182 33.2451 66.2984 33.1775C66.0954 33.1098 65.8925 33.0084 65.7235 32.8731C65.5713 32.7378 65.436 32.5687 65.3345 32.3827C65.25 32.1798 65.1993 31.96 65.1993 31.7233C65.1993 31.4697 65.25 31.216 65.3515 30.9962C65.4529 30.7933 65.5882 30.6073 65.7742 30.489C65.9771 30.3368 66.1969 30.2353 66.4336 30.1846C66.7042 30.117 66.9916 30.0831 67.2791 30.0831C67.5158 30.0831 67.7525 30.1001 67.9723 30.1339C68.1752 30.1677 68.3612 30.2184 68.5472 30.2861V30.1677C68.5641 30.0324 68.5303 29.8972 68.4796 29.7788C68.4289 29.6604 68.3612 29.5421 68.2598 29.4575C68.0231 29.2884 67.7356 29.187 67.4313 29.2208C67.1776 29.2208 66.924 29.2377 66.6703 29.3053C66.4505 29.3561 66.2307 29.4237 66.0109 29.5082L65.6389 28.3923C65.9264 28.2739 66.2138 28.1725 66.5182 28.1048C66.8902 28.0203 67.2622 27.9864 67.6342 27.9864C67.9892 27.9695 68.3443 28.0203 68.6825 28.1386C68.953 28.2232 69.1898 28.3754 69.3927 28.5614C69.5956 28.7643 69.7309 29.001 69.8154 29.2715C69.9169 29.5759 69.9507 29.8972 69.9507 30.2184V33.2282H68.5303V32.6702C68.3443 32.8731 68.1245 33.0422 67.8709 33.1436C67.5834 33.262 67.2622 33.3296 66.9578 33.3127V33.2789ZM67.4651 32.2813C67.7694 32.2982 68.0569 32.1968 68.2936 32.0277C68.3951 31.9431 68.4796 31.8586 68.5303 31.7402C68.581 31.6219 68.6149 31.5035 68.6149 31.3682V31.0977C68.493 31.0368 68.3575 31.0033 68.2329 30.9725L68.23 30.9718C68.2173 30.9687 68.2046 30.9655 68.1921 30.9624C68.0231 30.9286 67.854 30.9117 67.6849 30.9117C67.4313 30.8948 67.1607 30.9624 66.9409 31.0977C66.8563 31.1484 66.7887 31.233 66.738 31.3344C66.6873 31.4359 66.6703 31.5373 66.6703 31.6388C66.6703 31.7233 66.6873 31.8248 66.7211 31.8924C66.7549 31.9769 66.8225 32.0446 66.8902 32.0953C67.0592 32.2137 67.2622 32.2644 67.482 32.2644L67.4651 32.2813Z" fill="#8992A3"/>
<path d="M70.9821 26.1096H72.4532V33.1775H70.9821V26.1096Z" fill="#8992A3"/>
</svg>
