<svg width="40" height="40" viewBox="0 0 40 40" fill="none" xmlns="http://www.w3.org/2000/svg">
<circle cx="20.0001" cy="20" r="20" fill="black"/>
<path d="M28.3553 14.9321H25.6561C25.3416 14.9321 25.0424 14.7971 24.8343 14.5622L23.7393 13.3253C23.5763 13.1407 23.3414 13.0356 23.0957 13.0356C22.85 13.0356 22.6151 13.1413 22.4521 13.3253L21.5131 14.3865C21.2056 14.7335 20.7645 14.9327 20.301 14.9327H5.52604C5.10525 16.1321 4.83087 17.3989 4.72137 18.7129H18.6694C18.9145 18.7129 19.1494 18.6129 19.3187 18.436L20.6174 17.0806C20.7797 16.9113 21.0038 16.8158 21.2381 16.8158H21.2916C21.5379 16.8158 21.7722 16.9215 21.9352 17.1061L23.0295 18.343C23.2377 18.5786 23.5369 18.7129 23.8513 18.7129H35.2364C35.1269 17.3983 34.8525 16.1315 34.4317 14.9327H28.3547L28.3553 14.9321Z" fill="white"/>
<path d="M13.2067 26.6615C13.4518 26.6615 13.6867 26.5615 13.856 26.3846L15.1547 25.0292C15.317 24.8599 15.5411 24.7644 15.7754 24.7644H15.8288C16.0752 24.7644 16.3095 24.8701 16.4725 25.0541L17.5668 26.291C17.775 26.5265 18.0742 26.6608 18.3886 26.6608H33.8174C34.3954 25.4666 34.8188 24.1851 35.0709 22.8425H20.2615C19.947 22.8425 19.6478 22.7075 19.4397 22.4726L18.3453 21.2357C18.1824 21.0511 17.9475 20.946 17.7017 20.946C17.456 20.946 17.2211 21.0517 17.0581 21.2357L16.1191 22.2969C15.8117 22.6439 15.3705 22.8431 14.9064 22.8431H4.97601C5.22811 24.1857 5.65209 25.4672 6.22949 26.6615H13.206H13.2067Z" fill="white"/>
<path d="M24.1507 10.8003C24.3958 10.8003 24.6307 10.7004 24.8001 10.5234L26.0987 9.16808C26.2611 8.99874 26.4852 8.90325 26.7194 8.90325H26.7729C27.0193 8.90325 27.2535 9.00893 27.4165 9.19355L28.5108 10.4305C28.719 10.666 29.0182 10.8003 29.3327 10.8003H32.2668C29.4727 7.08638 25.0286 4.68384 20.0223 4.68384C15.0161 4.68384 10.5719 7.08638 7.77725 10.8003H24.1507Z" fill="white"/>
<path d="M18.2259 30.4455H14.2134C13.8989 30.4455 13.5997 30.3106 13.3915 30.0756L12.2972 28.8387C12.1343 28.6541 11.8993 28.5491 11.6536 28.5491C11.4079 28.5491 11.173 28.6547 11.01 28.8387L10.071 29.8999C9.76354 30.2469 9.32237 30.4462 8.85829 30.4462H8.7959C11.5912 33.4414 15.5719 35.3162 19.9919 35.3162C24.4118 35.3162 28.3919 33.4414 31.1878 30.4462H18.2259V30.4455Z" fill="white"/>
</svg>
