<svg width="32" height="32" viewBox="0 0 32 32" fill="none" xmlns="http://www.w3.org/2000/svg">
<path d="M12.1519 14.3123C11.5781 14.3123 11.0886 14.5402 10.6835 14.9959C10.2785 15.4516 10.0759 15.9832 10.0759 16.5908C10.0759 17.2322 10.2785 17.7722 10.6835 18.2111C11.0886 18.6499 11.5781 18.8693 12.1519 18.8693C12.7595 18.8693 13.2658 18.6499 13.6709 18.2111C14.0759 17.7722 14.2785 17.2322 14.2785 16.5908C14.2785 15.9832 14.0759 15.4516 13.6709 14.9959C13.2658 14.5402 12.7595 14.3123 12.1519 14.3123ZM19.6456 14.3123C19.0717 14.3123 18.5823 14.5402 18.1772 14.9959C17.7721 15.4516 17.5696 15.9832 17.5696 16.5908C17.5696 17.2322 17.7721 17.7722 18.1772 18.2111C18.5823 18.6499 19.0717 18.8693 19.6456 18.8693C20.2532 18.8693 20.7595 18.6499 21.1646 18.2111C21.5696 17.7722 21.7721 17.2322 21.7721 16.5908C21.7721 15.9832 21.5696 15.4516 21.1646 14.9959C20.7595 14.5402 20.2532 14.3123 19.6456 14.3123ZM21.7215 23.8819C21.7215 23.8819 21.5696 23.7047 21.2658 23.3503C20.962 22.9959 20.6582 22.6161 20.3544 22.2111C21.7046 21.8397 22.6582 21.3419 23.2152 20.7174C23.7722 20.0929 24.0506 19.7807 24.0506 19.7807C23.6456 20.0507 23.2405 20.287 22.8354 20.4895C22.4304 20.6921 22.0591 20.8608 21.7215 20.9959C21.2152 21.2321 20.7089 21.4178 20.2025 21.5528C19.6962 21.6878 19.2068 21.806 18.7342 21.9073C17.7553 22.076 16.8186 22.1435 15.9241 22.1098C15.0295 22.076 14.1941 21.9916 13.4177 21.8566C12.8439 21.7554 12.3038 21.6288 11.7975 21.4769C11.2911 21.325 10.8186 21.1646 10.3797 20.9959C10.1435 20.8946 9.89873 20.7849 9.64557 20.6667C9.3924 20.5486 9.14768 20.422 8.91139 20.287C8.87764 20.2532 8.84388 20.2364 8.81013 20.2364C8.77637 20.2364 8.74262 20.2195 8.70886 20.1857C8.70886 20.1857 8.70042 20.1773 8.68355 20.1604C8.66667 20.1435 8.65823 20.1351 8.65823 20.1351C8.4557 20.0338 8.3038 19.9494 8.20253 19.8819C8.10126 19.8144 8.05063 19.7807 8.05063 19.7807C8.05063 19.7807 8.32911 20.0845 8.88608 20.6921C9.44304 21.2997 10.3629 21.806 11.6456 22.2111C11.3418 22.5824 11.038 22.9537 10.7342 23.325C10.4304 23.6963 10.2785 23.8819 10.2785 23.8819C8.01687 23.8144 6.40507 23.2828 5.44304 22.287C4.48101 21.2912 4 20.7933 4 20.7933C4 17.4853 4.49788 14.6583 5.49367 12.3123C6.48946 9.96631 6.98734 8.79333 6.98734 8.79333C8.47258 7.71316 9.8059 7.08869 10.9873 6.91991C12.1688 6.75114 12.7595 6.66675 12.7595 6.66675L12.962 6.91991C11.1055 7.46 9.7384 8.04227 8.86076 8.66675C7.98312 9.29122 7.5443 9.60345 7.5443 9.60345C7.5443 9.60345 7.65401 9.54438 7.87342 9.42624C8.09283 9.30809 8.38818 9.16464 8.75949 8.99586C9.87342 8.52328 10.8354 8.20261 11.6456 8.03384C12.4557 7.86506 13.0464 7.76379 13.4177 7.73004C13.4852 7.69628 13.5443 7.67941 13.5949 7.67941C13.6456 7.67941 13.7046 7.67941 13.7722 7.67941C14.4135 7.57814 15.0802 7.52751 15.7722 7.52751C16.4641 7.52751 17.1814 7.56126 17.924 7.62877C18.903 7.73004 19.9072 7.94101 20.9367 8.26168C21.9662 8.58236 23.0211 9.02961 24.1013 9.60345C24.1013 9.60345 23.6878 9.29966 22.8608 8.69206C22.0337 8.08447 20.7426 7.51063 18.9873 6.97054L19.2911 6.66675C19.2911 6.66675 19.8819 6.75114 21.0633 6.91991C22.2447 7.08869 23.5612 7.73003 25.0127 8.84396C25.0127 8.84396 25.5105 10.0085 26.5063 12.3376C27.5021 14.6668 28 17.4853 28 20.7933C28 20.7933 27.519 21.2912 26.557 22.287C25.5949 23.2828 23.9831 23.8144 21.7215 23.8819Z" fill="white"/>
</svg>
