<svg width="1440" height="568" viewBox="0 0 1440 568" fill="none" xmlns="http://www.w3.org/2000/svg">
<g clip-path="url(#clip0_306_9578)">
<path d="M1440 475.259L1407.47 442.285V98.2515H1411.94V440.449L1440 468.887V475.259Z" fill="url(#paint0_radial_306_9578)"/>
<path d="M0 449.299L60.1284 387.88V0H55.6512V386.044L0 442.919V449.299Z" fill="url(#paint1_radial_306_9578)"/>
<path d="M0.962592 428.122V425.861H3.20118V423.622H5.43976V421.802L5.71586 421.794H7.75297V419.757L7.95444 419.556H9.99902V417.511L10.1856 417.325H12.2376V415.272L12.26 415.25H14.3269V413.183L14.521 412.989H16.573V410.945L16.7595 410.758H18.8116V408.699L18.9832 408.527H21.0502V406.46L21.2367 406.273H23.2888V404.221L23.4753 404.035H25.5273V402.02H27.7659V399.781H30.0045V397.543H32.1834V395.327L32.2058 395.304H34.4817V393.133H36.2427V391.305H38.5111V389.029H40.7273V386.828H42.9585V384.589H45.2045V382.358H47.4431V380.283H48.8459V261.616H46.6223V314.641H36.5263V312.939H34.2877V310.701H32.0267V308.462H29.803V306.216H27.5644V303.977H25.3035V301.888H23.2291V299.65H21.0054V297.403H18.7668V295.165H16.5581V292.956H14.2822V290.688H12.454V288.927H10.2826V286.628H8.04398V284.45H5.8054V282.211H3.56681V279.972H1.55955V277.816L1.47 277.726H0V279.644V285.726V428.122H0.962592Z" fill="url(#paint2_linear_306_9578)"/>
<path opacity="0.7" d="M1439.85 492.892V490.653H1437.78V488.556H1435.52V486.318H1433.28V484.079H1431.05V481.841H1428.79V479.602H1426.55V477.363H1424.73V477.087V475.05H1422.69L1422.49 474.849V472.812H1420.45L1420.26 472.625V470.573H1418.21L1418.19 470.551V468.476H1416.11L1415.93 468.29V466.238H1413.88L1413.69 466.051V463.999H1411.64L1411.47 463.827V461.76H1409.4L1409.21 461.574V459.522H1407.16L1406.97 459.335V457.283H1404.97V455.045H1402.73V452.806H1400.49L1400.29 349.286V57.5316H1394.88V328.871H1388.89V98.9529H1383.48V348.204H1358.87V372.098H1340.87V381.627H1025.47V392.596H587.039L562.87 416.765H209.89V408.116H346.212V397.841H209.89V388.305H346.212V349.286H100.617V314.656H67.068V389.603L66.9934 389.678V392.7L66.7919 392.902H64.7548V394.939L64.5683 395.125H62.5162V397.177L62.4938 397.2H60.4194V399.274L60.2329 399.461H58.1808V401.513L57.9943 401.699H55.9422V403.751L55.7706 403.923H53.7037V405.99L53.5171 406.176H51.4651V408.228L51.2785 408.415H49.2265V410.422H46.9879V412.661H44.7493V414.899H42.5704V417.116L42.548 417.138H40.2722V419.309H38.5111V421.138H36.2427V423.413H34.0265V425.615H31.7954V427.853H29.5493V430.084H27.3107V432.159H25.2139V434.42H22.9753V436.658H20.7368V438.882H18.4982V441.143H16.2596V443.382H14.021V445.21H13.7449H11.7078V447.247L11.5063 447.448H9.46922V449.486L9.28267 449.672H7.23063V451.724L7.20824 451.747H5.13382V453.821L4.94727 454.007H2.89524V456.06L2.70869 456.246H0.641728V458.298L0.470103 458.47H0V539.865L108.28 436.658H1329.2L1440 548.125V492.884H1439.86L1439.85 492.892ZM1340.85 392.588H1029.03V383.94H1340.85V392.588Z" fill="url(#paint3_radial_306_9578)"/>
<path d="M346.197 408.109V402.326H209.793V388.298H317.282V386.775H315.23L315.059 386.604V384.537H312.992L312.798 384.343V382.298H310.753L310.559 382.104V380.06H308.552V377.814H306.313V375.575H304.067V373.396H301.851L301.828 373.374V371.098H299.657V369.337H297.829V367.076H295.553H198.689V397.834H169.14V413.243H96.4084V415.198L96.1995 415.399H94.1624V417.444L93.9758 417.631H91.9238V419.683L91.9014 419.705H89.827V421.772L89.6404 421.966H87.5884V424.01L87.4018 424.197H85.3498V426.257L85.1782 426.421H83.1112V428.495L82.9172 428.682H80.8726V430.734L80.6786 430.92H78.634V432.935H76.388V435.174H74.1494V437.412H71.9705V439.628L71.9481 439.651H69.6722V441.822H67.9112V443.65H65.6428V445.926H63.4341V448.128H61.1955V450.366H58.9569V452.597H56.7108V454.672H54.6215V456.933H52.3829V459.171H50.1443V461.395H47.9057V463.648H45.6597V465.887H43.4211V467.715L43.145 467.723H41.1079V469.752L40.9064 469.961H38.8693V471.998L38.6753 472.185H36.6233V474.237L36.6083 474.259H34.5339V476.334L34.3399 476.52H32.2953V478.572L32.1088 478.759H30.0567V480.811L29.8851 480.983H27.8107V483.049L27.6241 483.243H25.5721V485.288L25.3856 485.482H23.3335V487.489H21.0949V489.728H18.8564V491.966H16.6775V494.19L16.6551 494.205H14.3792V496.384H12.6182V498.205H10.3497V500.481H8.14099V502.689H5.9024V504.928H3.65636V507.159H1.41777V509.226H0V523.948L103.251 420.862H346.197V416.757H209.875V408.109H346.197Z" fill="url(#paint4_linear_306_9578)"/>
<path d="M1417.69 312.656L1418.64 437.367L1440 458.723V312.656H1417.69Z" fill="url(#paint5_linear_306_9578)"/>
<path d="M103.99 349.07H100.751V378.149H103.99V349.07Z" fill="#010518"/>
<path d="M110.698 349.07H107.46V378.149H110.698V349.07Z" fill="#010518"/>
<path d="M117.399 349.07H114.16V378.149H117.399V349.07Z" fill="#010518"/>
<path d="M124.1 349.07H120.861V378.149H124.1V349.07Z" fill="#010518"/>
<path d="M130.808 349.07H127.57V378.149H130.808V349.07Z" fill="#010518"/>
<path d="M137.509 349.07H134.27V378.149H137.509V349.07Z" fill="#010518"/>
<path d="M144.217 349.07H140.979V378.149H144.217V349.07Z" fill="#010518"/>
<path d="M150.918 349.07H147.68V378.149H150.918V349.07Z" fill="#010518"/>
<path d="M157.626 349.07H154.388V378.149H157.626V349.07Z" fill="#010518"/>
<path d="M164.327 349.07H161.089V378.149H164.327V349.07Z" fill="#010518"/>
<path d="M171.028 349.07H167.789V378.149H171.028V349.07Z" fill="#010518"/>
<path d="M177.736 349.07H174.498V378.149H177.736V349.07Z" fill="#010518"/>
<path d="M184.437 349.07H181.199V378.149H184.437V349.07Z" fill="#010518"/>
<path d="M120.093 448.896L110.094 424.981L110.735 424.428L112.019 424.466L121.936 448.351H120.645L120.093 448.896Z" fill="#010518"/>
<path d="M1316.1 374.18V309.559H0V523.948L103.654 420.862H1269.24L1316.1 374.18Z" fill="url(#paint6_radial_306_9578)"/>
<path d="M129.017 374.18V309.559H1440V523.948L1336.74 420.862H175.692L129.017 374.18Z" fill="url(#paint7_radial_306_9578)"/>
<path d="M5.99939 567.884L122.122 451.926H1283.17L1336.67 441.367L1440 529.888V567.884H5.99939Z" fill="url(#paint8_radial_306_9578)"/>
<path d="M0 567.884L116.123 451.926H1277.17H1317.88L1063.28 543.499L966.659 567.884H0Z" fill="url(#paint9_radial_306_9578)"/>
<path d="M1221.04 420.862H103.251L0 523.948V567.884L116.123 451.926H1221.04V420.862Z" fill="#010518"/>
<path d="M218.964 420.862H1336.74L1440 523.948V567.884L1323.88 451.926H218.964V420.862Z" fill="#010518"/>
<path d="M1334.43 425.085H111.646V440.382H1334.43V425.085Z" fill="url(#paint10_radial_306_9578)"/>
<path d="M1334.43 443.322H111.646V448.904H1334.43V443.322Z" fill="url(#paint11_radial_306_9578)"/>
<path d="M177.557 420.854L1278.43 420.854V374.799L177.557 374.799V420.854Z" fill="url(#paint12_radial_306_9578)"/>
<path d="M1438.81 530.224V528.366L1436.51 528.351V526.045L1436.5 526.03L1434.25 526.015V523.792L1434.24 523.777L1431.98 523.762V521.516L1431.94 521.478L1429.7 521.464V519.24L1429.66 519.195L1427.42 519.18V517.076L1425.29 517.061V514.83L1425.22 514.755L1423.02 514.74V512.554L1422.93 512.464L1420.74 512.45V510.278L1420.65 510.189L1418.46 510.174V508.002L1418.34 507.875L1416.18 507.86V505.719L1416.04 505.577L1413.91 505.562V503.518L1411.63 503.503V501.227L1409.35 501.212V498.936L1407.13 498.914V496.675L1407.1 496.638L1404.79 496.623V494.496L1402.94 494.481V492.623L1400.64 492.601V490.288L1398.38 490.273V488.034L1396.12 488.019V485.736L1393.83 485.721V483.452L1391.56 483.437V481.333L1389.42 481.318V479.013L1387.15 478.998V476.722L1384.87 476.707V474.446L1382.6 474.431V472.14L1382.59 472.133L1380.31 472.118V469.864L1380.29 469.842L1378.04 469.819V467.775L1375.76 467.76V465.484L1373.48 465.469V463.186L1371.27 463.171V460.895L1368.92 460.88V458.746H1367.34V456.888H1365.04V454.582L1365.03 454.575H1362.78V452.336H1360.51V450.06H1358.23V447.792H1355.95V445.68H1353.82V443.382H1351.55V441.106H1349.27V438.845H1346.99V436.554H1344.71V434.271H1342.43V432.226H1340.16V429.95H1337.88V427.674H1335.66V425.398H104.333V427.674H102.117V429.95H99.8409V432.226H97.565V434.271H95.2817V436.554H93.0058V438.845H90.7299V441.106H88.454V443.382H86.1781V445.68H84.044V447.792H81.7681V450.06H79.4847V452.336H77.2163V454.575H74.9702L74.9628 454.582V456.888H72.657V458.746H71.0676V460.88L68.732 460.895V463.171L66.5158 463.186V465.469L64.2399 465.484V467.76L61.9566 467.775V469.819L59.7031 469.842L59.6807 469.864V472.118L57.4123 472.133L57.4048 472.14V474.431L55.1289 474.446V476.707L52.8455 476.722V478.998L50.5696 479.013V481.318L48.443 481.333V483.437L46.1671 483.452V485.721L43.8837 485.736V488.019L41.6078 488.034V490.273L39.3618 490.288V492.601L37.056 492.623V494.481L35.2055 494.496V496.623L32.8997 496.638L32.8624 496.675V498.914L30.6462 498.936V501.212L28.3703 501.227V503.503L26.0944 503.518V505.562L23.9529 505.577L23.8111 505.719V507.86L21.662 507.875L21.5352 508.002V510.174L19.3488 510.189L19.2593 510.278V512.45L17.0655 512.464L16.9834 512.554V514.74L14.7747 514.755L14.7075 514.83V517.061L12.5734 517.076V519.18L10.3348 519.195L10.2975 519.24V521.464L8.05145 521.478L8.01414 521.516V523.762L5.76063 523.777L5.7457 523.792V526.015L3.49966 526.03L3.49219 526.045V528.351L1.18645 528.366V530.224L0 530.231V558.669L1.29092 558.661V556.348L3.59666 556.326V554.468L5.17113 554.46V552.483L7.50672 552.468V550.192L9.72292 550.177V547.894L12.0063 547.879V545.603L14.2822 545.588V543.543L16.5581 543.521V541.245L18.834 541.23V538.932L21.1099 538.917V536.656L23.3932 536.641V534.365L25.6691 534.35V532.045L27.7958 532.03V529.925L30.0717 529.911V527.642L32.355 527.627V525.344L34.6309 525.329V523.09L36.8844 523.075V520.755L39.1827 520.74V518.882L40.9213 518.867V516.8L43.2569 516.785V514.509L45.4731 514.487V512.211L47.749 512.196V509.92L50.0249 509.905V507.86L52.3083 507.838V505.562L54.5842 505.547V503.249L56.8601 503.234V500.973L59.136 500.958V498.682L61.4119 498.667V496.362L63.546 496.347V494.242L65.8219 494.227V491.959L68.1052 491.944V489.661L70.3811 489.646V487.407L72.6272 487.392V485.072L74.9329 485.057V483.199L76.7312 483.184V481.087L79.0668 481.072V478.789L81.283 478.774V476.498L83.5589 476.483V474.207L85.8423 474.185V472.14L88.1182 472.125V469.849L90.3941 469.834V467.536L92.67 467.521V465.26L94.9459 465.238V462.969L97.2292 462.947V460.649L99.3559 460.634V458.522L101.632 458.507V456.239L103.915 456.224V453.948L106.191 453.933V451.687L108.437 451.672V449.359L110.743 449.344V447.486H1329.25V449.344L1331.56 449.359V451.672L1333.81 451.687V453.933L1336.08 453.948V456.224L1338.36 456.239V458.507L1340.64 458.522V460.634L1342.77 460.649V462.947L1345.05 462.969V465.238L1347.32 465.26V467.521L1349.61 467.536V469.834L1351.88 469.849V472.125L1354.16 472.14V474.185L1356.43 474.207V476.483L1358.71 476.498V478.774L1360.93 478.789V481.072L1363.27 481.087V483.184L1365.07 483.199V485.057L1367.37 485.072V487.392L1369.62 487.407V489.646L1371.89 489.661V491.944L1374.17 491.959V494.227L1376.45 494.242V496.347L1378.58 496.362V498.667L1380.86 498.682V500.958L1383.13 500.973V503.234L1385.42 503.249V505.547L1387.69 505.562V507.838L1389.97 507.86V509.905L1392.24 509.92V512.196L1394.53 512.211V514.487L1396.74 514.509V516.785L1399.08 516.8V518.867L1400.81 518.882V520.74L1403.12 520.755V523.075L1405.37 523.09V525.329L1407.64 525.344V527.627L1409.92 527.642V529.911L1412.2 529.925V532.03L1414.33 532.045V534.35L1416.61 534.365V536.641L1418.88 536.656V538.917L1421.16 538.932V541.23L1423.44 541.245V543.521L1425.72 543.543V545.588L1427.99 545.603V547.879L1430.27 547.894V550.177L1432.49 550.192V552.468L1434.83 552.483V554.46L1436.4 554.468V556.326L1438.7 556.348V558.661L1440 558.669V530.231L1438.81 530.224Z" fill="url(#paint13_radial_306_9578)"/>
<path d="M1438.81 530.224V528.366L1436.51 528.351V526.045L1436.5 526.03L1434.25 526.015V523.792L1434.24 523.777L1431.98 523.762V521.516L1431.94 521.478L1429.7 521.464V519.24L1429.66 519.195L1427.42 519.18V517.076L1425.29 517.061V514.83L1425.22 514.755L1423.02 514.74V512.554L1422.93 512.464L1420.74 512.45V510.278L1420.65 510.189L1418.46 510.174V508.002L1418.34 507.875L1416.18 507.86V505.719L1416.04 505.577L1413.91 505.562V503.518L1411.63 503.503V501.227L1409.35 501.212V498.936L1407.13 498.914V496.675L1407.1 496.638L1404.79 496.623V494.496L1402.94 494.481V492.623L1400.64 492.601V490.288L1398.38 490.273V488.034L1396.12 488.019V485.736L1393.83 485.721V483.452L1391.56 483.437V481.333L1389.42 481.318V479.013L1387.15 478.998V476.722L1384.87 476.707V474.446L1382.6 474.431V472.14L1382.59 472.133L1380.31 472.118V469.864L1380.29 469.842L1378.04 469.819V467.775L1375.76 467.76V465.484L1373.48 465.469V463.186L1371.27 463.171V460.895L1368.92 460.88V458.746H1367.34V456.888H1365.04V454.582L1365.03 454.575H1362.78V452.336H1360.51V450.06H1358.23V447.792H1355.95V445.68H1353.82V443.382H1351.55V441.106H1349.27V438.845H1346.99V436.554H1344.71V434.271H1342.43V432.226H1340.16V429.95H1337.88V427.674H1335.66V425.398H104.333V427.674H102.117V429.95H99.8409V432.226H97.565V434.271H95.2817V436.554H93.0058V438.845H90.7299V441.106H88.454V443.382H86.1781V445.68H84.044V447.792H81.7681V450.06H79.4847V452.336H77.2163V454.575H74.9702L74.9628 454.582V456.888H72.657V458.746H71.0676V460.88L68.732 460.895V463.171L66.5158 463.186V465.469L64.2399 465.484V467.76L61.9566 467.775V469.819L59.7031 469.842L59.6807 469.864V472.118L57.4123 472.133L57.4048 472.14V474.431L55.1289 474.446V476.707L52.8455 476.722V478.998L50.5696 479.013V481.318L48.443 481.333V483.437L46.1671 483.452V485.721L43.8837 485.736V488.019L41.6078 488.034V490.273L39.3618 490.288V492.601L37.056 492.623V494.481L35.2055 494.496V496.623L32.8997 496.638L32.8624 496.675V498.914L30.6462 498.936V501.212L28.3703 501.227V503.503L26.0944 503.518V505.562L23.9529 505.577L23.8111 505.719V507.86L21.662 507.875L21.5352 508.002V510.174L19.3488 510.189L19.2593 510.278V512.45L17.0655 512.464L16.9834 512.554V514.74L14.7747 514.755L14.7075 514.83V517.061L12.5734 517.076V519.18L10.3348 519.195L10.2975 519.24V521.464L8.05145 521.478L8.01414 521.516V523.762L5.76063 523.777L5.7457 523.792V526.015L3.49966 526.03L3.49219 526.045V528.351L1.18645 528.366V530.224L0 530.231V558.669L1.29092 558.661V556.348L3.59666 556.326V554.468L5.17113 554.46V552.483L7.50672 552.468V550.192L9.72292 550.177V547.894L12.0063 547.879V545.603L14.2822 545.588V543.543L16.5581 543.521V541.245L18.834 541.23V538.932L21.1099 538.917V536.656L23.3932 536.641V534.365L25.6691 534.35V532.045L27.7958 532.03V529.925L30.0717 529.911V527.642L32.355 527.627V525.344L34.6309 525.329V523.09L36.8844 523.075V520.755L39.1827 520.74V518.882L40.9213 518.867V516.8L43.2569 516.785V514.509L45.4731 514.487V512.211L47.749 512.196V509.92L50.0249 509.905V507.86L52.3083 507.838V505.562L54.5842 505.547V503.249L56.8601 503.234V500.973L59.136 500.958V498.682L61.4119 498.667V496.362L63.546 496.347V494.242L65.8219 494.227V491.959L68.1052 491.944V489.661L70.3811 489.646V487.407L72.6272 487.392V485.072L74.9329 485.057V483.199L76.7312 483.184V481.087L79.0668 481.072V478.789L81.283 478.774V476.498L83.5589 476.483V474.207L85.8423 474.185V472.14L88.1182 472.125V469.849L90.3941 469.834V467.536L92.67 467.521V465.26L94.9459 465.238V462.969L97.2292 462.947V460.649L99.3559 460.634V458.522L101.632 458.507V456.239L103.915 456.224V453.948L106.191 453.933V451.687L108.437 451.672V449.359L110.743 449.344V447.486H1329.25V449.344L1331.56 449.359V451.672L1333.81 451.687V453.933L1336.08 453.948V456.224L1338.36 456.239V458.507L1340.64 458.522V460.634L1342.77 460.649V462.947L1345.05 462.969V465.238L1347.32 465.26V467.521L1349.61 467.536V469.834L1351.88 469.849V472.125L1354.16 472.14V474.185L1356.43 474.207V476.483L1358.71 476.498V478.774L1360.93 478.789V481.072L1363.27 481.087V483.184L1365.07 483.199V485.057L1367.37 485.072V487.392L1369.62 487.407V489.646L1371.89 489.661V491.944L1374.17 491.959V494.227L1376.45 494.242V496.347L1378.58 496.362V498.667L1380.86 498.682V500.958L1383.13 500.973V503.234L1385.42 503.249V505.547L1387.69 505.562V507.838L1389.97 507.86V509.905L1392.24 509.92V512.196L1394.53 512.211V514.487L1396.74 514.509V516.785L1399.08 516.8V518.867L1400.81 518.882V520.74L1403.12 520.755V523.075L1405.37 523.09V525.329L1407.64 525.344V527.627L1409.92 527.642V529.911L1412.2 529.925V532.03L1414.33 532.045V534.35L1416.61 534.365V536.641L1418.88 536.656V538.917L1421.16 538.932V541.23L1423.44 541.245V543.521L1425.72 543.543V545.588L1427.99 545.603V547.879L1430.27 547.894V550.177L1432.49 550.192V552.468L1434.83 552.483V554.46L1436.4 554.468V556.326L1438.7 556.348V558.661L1440 558.669V530.231L1438.81 530.224Z" fill="url(#paint14_radial_306_9578)"/>
<path d="M1438.81 530.224V528.366L1436.51 528.351V526.045L1436.5 526.03L1434.25 526.015V523.792L1434.24 523.777L1431.98 523.762V521.516L1431.94 521.478L1429.7 521.464V519.24L1429.66 519.195L1427.42 519.18V517.076L1425.29 517.061V514.83L1425.22 514.755L1423.02 514.74V512.554L1422.93 512.464L1420.74 512.45V510.278L1420.65 510.189L1418.46 510.174V508.002L1418.34 507.875L1416.18 507.86V505.719L1416.04 505.577L1413.91 505.562V503.518L1411.63 503.503V501.227L1409.35 501.212V498.936L1407.13 498.914V496.675L1407.1 496.638L1404.79 496.623V494.496L1402.94 494.481V492.623L1400.64 492.601V490.288L1398.38 490.273V488.034L1396.12 488.019V485.736L1393.83 485.721V483.452L1391.56 483.437V481.333L1389.42 481.318V479.013L1387.15 478.998V476.722L1384.87 476.707V474.446L1382.6 474.431V472.14L1382.59 472.133L1380.31 472.118V469.864L1380.29 469.842L1378.04 469.819V467.775L1375.76 467.76V465.484L1373.48 465.469V463.186L1371.27 463.171V460.895L1368.92 460.88V458.746H1367.34V456.888H1365.04V454.582L1365.03 454.575H1362.78V452.336H1360.51V450.06H1358.23V447.792H1355.95V445.68H1353.82V443.382H1351.55V441.106H1349.27V438.845H1346.99V436.554H1344.71V434.271H1342.43V432.226H1340.16V429.95H1337.88V427.674H1335.66V425.398H104.333V427.674H102.117V429.95H99.8409V432.226H97.565V434.271H95.2817V436.554H93.0058V438.845H90.7299V441.106H88.454V443.382H86.1781V445.68H84.044V447.792H81.7681V450.06H79.4847V452.336H77.2163V454.575H74.9702L74.9628 454.582V456.888H72.657V458.746H71.0676V460.88L68.732 460.895V463.171L66.5158 463.186V465.469L64.2399 465.484V467.76L61.9566 467.775V469.819L59.7031 469.842L59.6807 469.864V472.118L57.4123 472.133L57.4048 472.14V474.431L55.1289 474.446V476.707L52.8455 476.722V478.998L50.5696 479.013V481.318L48.443 481.333V483.437L46.1671 483.452V485.721L43.8837 485.736V488.019L41.6078 488.034V490.273L39.3618 490.288V492.601L37.056 492.623V494.481L35.2055 494.496V496.623L32.8997 496.638L32.8624 496.675V498.914L30.6462 498.936V501.212L28.3703 501.227V503.503L26.0944 503.518V505.562L23.9529 505.577L23.8111 505.719V507.86L21.662 507.875L21.5352 508.002V510.174L19.3488 510.189L19.2593 510.278V512.45L17.0655 512.464L16.9834 512.554V514.74L14.7747 514.755L14.7075 514.83V517.061L12.5734 517.076V519.18L10.3348 519.195L10.2975 519.24V521.464L8.05145 521.478L8.01414 521.516V523.762L5.76063 523.777L5.7457 523.792V526.015L3.49966 526.03L3.49219 526.045V528.351L1.18645 528.366V530.224L0 530.231V558.669L1.29092 558.661V556.348L3.59666 556.326V554.468L5.17113 554.46V552.483L7.50672 552.468V550.192L9.72292 550.177V547.894L12.0063 547.879V545.603L14.2822 545.588V543.543L16.5581 543.521V541.245L18.834 541.23V538.932L21.1099 538.917V536.656L23.3932 536.641V534.365L25.6691 534.35V532.045L27.7958 532.03V529.925L30.0717 529.911V527.642L32.355 527.627V525.344L34.6309 525.329V523.09L36.8844 523.075V520.755L39.1827 520.74V518.882L40.9213 518.867V516.8L43.2569 516.785V514.509L45.4731 514.487V512.211L47.749 512.196V509.92L50.0249 509.905V507.86L52.3083 507.838V505.562L54.5842 505.547V503.249L56.8601 503.234V500.973L59.136 500.958V498.682L61.4119 498.667V496.362L63.546 496.347V494.242L65.8219 494.227V491.959L68.1052 491.944V489.661L70.3811 489.646V487.407L72.6272 487.392V485.072L74.9329 485.057V483.199L76.7312 483.184V481.087L79.0668 481.072V478.789L81.283 478.774V476.498L83.5589 476.483V474.207L85.8423 474.185V472.14L88.1182 472.125V469.849L90.3941 469.834V467.536L92.67 467.521V465.26L94.9459 465.238V462.969L97.2292 462.947V460.649L99.3559 460.634V458.522L101.632 458.507V456.239L103.915 456.224V453.948L106.191 453.933V451.687L108.437 451.672V449.359L110.743 449.344V447.486H1329.25V449.344L1331.56 449.359V451.672L1333.81 451.687V453.933L1336.08 453.948V456.224L1338.36 456.239V458.507L1340.64 458.522V460.634L1342.77 460.649V462.947L1345.05 462.969V465.238L1347.32 465.26V467.521L1349.61 467.536V469.834L1351.88 469.849V472.125L1354.16 472.14V474.185L1356.43 474.207V476.483L1358.71 476.498V478.774L1360.93 478.789V481.072L1363.27 481.087V483.184L1365.07 483.199V485.057L1367.37 485.072V487.392L1369.62 487.407V489.646L1371.89 489.661V491.944L1374.17 491.959V494.227L1376.45 494.242V496.347L1378.58 496.362V498.667L1380.86 498.682V500.958L1383.13 500.973V503.234L1385.42 503.249V505.547L1387.69 505.562V507.838L1389.97 507.86V509.905L1392.24 509.92V512.196L1394.53 512.211V514.487L1396.74 514.509V516.785L1399.08 516.8V518.867L1400.81 518.882V520.74L1403.12 520.755V523.075L1405.37 523.09V525.329L1407.64 525.344V527.627L1409.92 527.642V529.911L1412.2 529.925V532.03L1414.33 532.045V534.35L1416.61 534.365V536.641L1418.88 536.656V538.917L1421.16 538.932V541.23L1423.44 541.245V543.521L1425.72 543.543V545.588L1427.99 545.603V547.879L1430.27 547.894V550.177L1432.49 550.192V552.468L1434.83 552.483V554.46L1436.4 554.468V556.326L1438.7 556.348V558.661L1440 558.669V530.231L1438.81 530.224Z" fill="url(#paint15_radial_306_9578)"/>
<path d="M108.28 432.734V434.621H106.034V436.86H103.796V439.121H101.557V441.345H99.3186V443.576H97.08V445.844H94.9832V447.911H92.7446V450.142H90.4986V452.381H88.2674V454.59H86.0512V456.858H83.7903V458.686H82.0292V460.858H79.7459L79.731 460.88V463.104H77.5521V465.342H75.306V467.581H73.0674V469.588H71.0229L70.8288 469.782V471.827H68.7843L68.5903 472.021V474.088H66.5233L66.3517 474.259V476.311H64.2996L64.1131 476.498V478.55H62.0611L61.8745 478.736V480.811H59.8001L59.7777 480.833V482.885H57.7257L57.5391 483.072V485.109H55.502L55.2931 485.318V487.348H53.256L52.9799 487.355V489.183H50.7413V491.422H48.5027V493.675H46.2641V495.899H44.0255V498.138H41.7869V500.398H39.6901V502.473H37.4515V504.704H35.2055V506.943H32.9744V509.144H30.7582V511.42H28.4972V513.248H26.7362V515.419H24.4528L24.4304 515.442V517.658H22.2515V519.897H20.013V522.135H17.7744V524.15H15.7223L15.5358 524.336V526.388H13.4837L13.2972 526.575V528.642H11.2302L11.0586 528.814V530.866H9.00658L8.82003 531.06V533.104H6.76799L6.57398 533.298V535.365H4.50702L4.48463 535.388V537.44H2.4326L2.24605 537.626V539.671H0.201473L0 539.872V548.133H1.28346V545.894H3.52204V543.633H5.76063V541.409H7.99921V539.171H10.2378V536.91H12.3346V534.843H14.5732V532.612H16.8192V530.373H19.0504V528.164H21.2666V525.889H23.535V524.068H25.296V521.889H27.5943V519.65H29.7732V517.412H32.0118V515.173H34.2504V513.166H36.4069L36.4889 513.076V510.927H38.6455L38.7275 510.838V508.666H40.899L40.9661 508.599V506.443H43.1301L43.2122 506.361V504.204H45.3612L45.4507 504.122V501.943H47.5401V499.869H49.6966L49.7787 499.787V497.645H51.9277L52.0247 497.541V495.399H54.1663L54.1812 493.638L56.5765 493.571V491.332H58.8151V489.079H61.0612V486.855H63.2997V484.616H65.5383V482.355H67.6277V480.281H69.8663V478.05H72.1123V475.811H74.3509V473.61H76.5596V471.334H78.8281V469.506H80.5891V467.335H82.8874V465.096H85.0663V462.857H87.3048V460.619H89.5434V458.604H91.6999L91.782 458.522V456.366H93.9385L94.0281 456.283V454.105H96.1995L96.2666 454.037V451.881H98.4231L98.5052 451.799V449.65H100.654L100.744 449.56V447.389H102.841V445.314H104.99L105.079 445.232V443.083H107.221L107.318 442.986V440.845H109.459L109.43 439.546L110.713 439.591H692.395V432.734H108.28Z" fill="url(#paint16_radial_306_9578)"/>
<path d="M1400.29 351.764H1397.76V353.943H1395.52V356.241H1393.34V358.002H1391.51V360.271H1389.24V362.487H1387.04V364.718H1384.8V366.964H1382.57V369.202H1380.5V371.299H1378.24V373.538H1376V375.776H1373.78V378.015H1371.51V380.254H1369.28L1369.22 382.656L1367.45 382.664V384.805H1365.31L1365.21 384.91V387.051H1363.06L1362.98 387.134V389.29H1360.9V391.387H1358.85V442.927L1400.48 484.497L1400.29 351.764Z" fill="url(#paint17_linear_306_9578)"/>
<path d="M115.795 449.015L105.751 425.085H104.736L103.99 425.831L113.81 449.844L114.645 449.015H115.795Z" fill="#010518"/>
<path d="M1331.72 432.734V434.621H1333.96V436.86H1336.2V439.121H1338.44V441.345H1340.67V443.576H1342.92V445.844H1345.01V447.911H1347.25V450.142H1349.49V452.381H1351.73V454.59H1353.94V456.858H1356.21V458.686H1357.97V460.858H1360.25L1360.27 460.88V463.104H1362.45V465.342H1364.69V467.581H1366.93V469.588H1368.98L1369.16 469.782V471.827H1371.22L1371.4 472.021V474.088H1373.48L1373.65 474.259V476.311H1375.7L1375.89 476.498V478.55H1377.93L1378.13 478.736V480.811H1380.2L1380.21 480.833V482.885H1382.27L1382.46 483.072V485.109H1384.5L1384.7 485.318V487.348H1386.74L1387.01 487.355V489.183H1389.25V491.422H1391.5V493.675H1393.74V495.899H1395.97V498.138H1398.21V500.398H1400.3V502.473H1402.55V504.704H1404.79V506.943H1407.03V509.144H1409.23V511.42H1411.5V513.248H1413.26V515.419H1415.54L1415.56 515.442V517.658H1417.74V519.897H1419.98V522.135H1422.22V524.15H1424.27L1424.46 524.336V526.388H1426.51L1426.7 526.575V528.642H1428.77L1428.94 528.814V530.866H1430.99L1431.18 531.06V533.104H1433.23L1433.42 533.298V535.365H1435.49L1435.52 535.388V537.44H1437.57L1437.75 537.626V539.671H1439.79L1440 539.872V548.133H1438.72V545.894H1436.47V543.633H1434.23V541.409H1431.99V539.171H1429.75V536.91H1427.66V534.843H1425.42V532.612H1423.18V530.373H1420.94V528.164H1418.73V525.889H1416.46V524.068H1414.7V521.889H1412.41V519.65H1410.23V517.412H1407.99V515.173H1405.74V513.166H1403.59L1403.5 513.076V510.927H1401.35L1401.27 510.838V508.666H1399.09L1399.03 508.599V506.443H1396.87L1396.79 506.361V504.204H1394.63L1394.55 504.122V501.943H1392.45V499.869H1390.3L1390.21 499.787V497.645H1388.07L1387.97 497.541V495.399H1385.83L1385.82 493.638L1383.42 493.571V491.332H1381.18V489.079H1378.94V486.855H1376.7V484.616H1374.46V482.355H1372.36V480.281H1370.13V478.05H1367.88V475.811H1365.65V473.61H1363.43V471.334H1361.17V469.506H1359.41V467.335H1357.11V465.096H1354.93V462.857H1352.69V460.619H1350.45V458.604H1348.3L1348.21 458.522V456.366H1346.05L1345.97 456.283V454.105H1343.8L1343.73 454.037V451.881H1341.58L1341.49 451.799V449.65H1339.34L1339.26 449.56V447.389H1337.16V445.314H1335L1334.92 445.232V443.083H1332.77L1332.67 442.986V440.845H1330.53L1330.57 439.546L1329.28 439.591H460.074V432.734H1331.72Z" fill="url(#paint18_radial_306_9578)"/>
<path d="M1324.02 449.015L1334.06 425.085L1335.26 424.891L1335.88 425.697L1326 449.844L1325.17 449.015H1324.02Z" fill="#010518"/>
</g>
<defs>
<radialGradient id="paint0_radial_306_9578" cx="0" cy="0" r="1" gradientUnits="userSpaceOnUse" gradientTransform="translate(1253.21 383.634) scale(213.524 213.524)">
<stop offset="0.09" stop-color="white"/>
<stop offset="0.22" stop-color="#F4E73D"/>
<stop offset="0.34" stop-color="#F3E33C" stop-opacity="0.99"/>
<stop offset="0.44" stop-color="#F2DA3A" stop-opacity="0.94"/>
<stop offset="0.54" stop-color="#F0CA36" stop-opacity="0.87"/>
<stop offset="0.63" stop-color="#EEB331" stop-opacity="0.77"/>
<stop offset="0.71" stop-color="#EA962A" stop-opacity="0.64"/>
<stop offset="0.8" stop-color="#E67222" stop-opacity="0.48"/>
<stop offset="0.88" stop-color="#E14719" stop-opacity="0.3"/>
<stop offset="0.96" stop-color="#DC170E" stop-opacity="0.08"/>
<stop offset="0.99" stop-color="#DA050A" stop-opacity="0"/>
</radialGradient>
<radialGradient id="paint1_radial_306_9578" cx="0" cy="0" r="1" gradientUnits="userSpaceOnUse" gradientTransform="translate(345.242 340.101) rotate(-180) scale(371.635 371.635)">
<stop offset="0.09" stop-color="white"/>
<stop offset="0.22" stop-color="#F4E73D"/>
<stop offset="0.34" stop-color="#F3E33C" stop-opacity="0.99"/>
<stop offset="0.44" stop-color="#F2DA3A" stop-opacity="0.94"/>
<stop offset="0.54" stop-color="#F0CA36" stop-opacity="0.87"/>
<stop offset="0.63" stop-color="#EEB331" stop-opacity="0.77"/>
<stop offset="0.71" stop-color="#EA962A" stop-opacity="0.64"/>
<stop offset="0.8" stop-color="#E67222" stop-opacity="0.48"/>
<stop offset="0.88" stop-color="#E14719" stop-opacity="0.3"/>
<stop offset="0.96" stop-color="#DC170E" stop-opacity="0.08"/>
<stop offset="0.99" stop-color="#DA050A" stop-opacity="0"/>
</radialGradient>
<linearGradient id="paint2_linear_306_9578" x1="-24.1767" y1="375.06" x2="130.211" y2="236.477" gradientUnits="userSpaceOnUse">
<stop stop-color="#010518" stop-opacity="0"/>
<stop offset="0.23" stop-color="#121C2F" stop-opacity="0.2"/>
<stop offset="0.72" stop-color="#405769" stop-opacity="0.7"/>
<stop offset="1" stop-color="#5C7B8D"/>
</linearGradient>
<radialGradient id="paint3_radial_306_9578" cx="0" cy="0" r="1" gradientUnits="userSpaceOnUse" gradientTransform="translate(709.094 260.728) scale(1155.22 1155.22)">
<stop stop-color="#010518" stop-opacity="0"/>
<stop offset="0.32" stop-color="#1A2638" stop-opacity="0.2"/>
<stop offset="1" stop-color="#5C7B8D" stop-opacity="0.7"/>
</radialGradient>
<linearGradient id="paint4_linear_306_9578" x1="196.249" y1="294.374" x2="160.156" y2="560.475" gradientUnits="userSpaceOnUse">
<stop stop-color="#010518"/>
<stop offset="1" stop-color="#010518" stop-opacity="0"/>
</linearGradient>
<linearGradient id="paint5_linear_306_9578" x1="1353.73" y1="261.422" x2="1487.87" y2="462.999" gradientUnits="userSpaceOnUse">
<stop stop-color="#5C7B8D"/>
<stop offset="0.26" stop-color="#3E5567" stop-opacity="0.68"/>
<stop offset="0.6" stop-color="#1D2A3C" stop-opacity="0.31"/>
<stop offset="0.86" stop-color="#080F22" stop-opacity="0.09"/>
<stop offset="1" stop-color="#010518" stop-opacity="0"/>
</linearGradient>
<radialGradient id="paint6_radial_306_9578" cx="0" cy="0" r="1" gradientUnits="userSpaceOnUse" gradientTransform="translate(384.371 458.865) rotate(90.48) scale(162.074 717.986)">
<stop stop-color="#5C7B8D"/>
<stop offset="0.05" stop-color="#516D7F" stop-opacity="0.89"/>
<stop offset="0.19" stop-color="#394D60" stop-opacity="0.62"/>
<stop offset="0.33" stop-color="#243345" stop-opacity="0.39"/>
<stop offset="0.48" stop-color="#141E31" stop-opacity="0.22"/>
<stop offset="0.63" stop-color="#091023" stop-opacity="0.1"/>
<stop offset="0.8" stop-color="#03071A" stop-opacity="0.02"/>
<stop offset="1" stop-color="#010518" stop-opacity="0"/>
</radialGradient>
<radialGradient id="paint7_radial_306_9578" cx="0" cy="0" r="1" gradientUnits="userSpaceOnUse" gradientTransform="translate(1058.89 465.14) rotate(89.52) scale(116.19 467.084)">
<stop stop-color="#5C7B8D"/>
<stop offset="0.05" stop-color="#516D7F" stop-opacity="0.89"/>
<stop offset="0.19" stop-color="#394D60" stop-opacity="0.62"/>
<stop offset="0.33" stop-color="#243345" stop-opacity="0.39"/>
<stop offset="0.48" stop-color="#141E31" stop-opacity="0.22"/>
<stop offset="0.63" stop-color="#091023" stop-opacity="0.1"/>
<stop offset="0.8" stop-color="#03071A" stop-opacity="0.02"/>
<stop offset="1" stop-color="#010518" stop-opacity="0"/>
</radialGradient>
<radialGradient id="paint8_radial_306_9578" cx="0" cy="0" r="1" gradientUnits="userSpaceOnUse" gradientTransform="translate(1053.66 410.366) rotate(90.48) scale(237.014 1097.37)">
<stop stop-color="#FE1F02"/>
<stop offset="0.05" stop-color="#DF1B04" stop-opacity="0.88"/>
<stop offset="0.15" stop-color="#AC1609" stop-opacity="0.68"/>
<stop offset="0.26" stop-color="#7E110D" stop-opacity="0.5"/>
<stop offset="0.37" stop-color="#570D10" stop-opacity="0.34"/>
<stop offset="0.48" stop-color="#380A13" stop-opacity="0.22"/>
<stop offset="0.59" stop-color="#1F0815" stop-opacity="0.12"/>
<stop offset="0.71" stop-color="#0E0616" stop-opacity="0.05"/>
<stop offset="0.84" stop-color="#040517" stop-opacity="0.01"/>
<stop offset="1" stop-color="#010518" stop-opacity="0"/>
</radialGradient>
<radialGradient id="paint9_radial_306_9578" cx="0" cy="0" r="1" gradientUnits="userSpaceOnUse" gradientTransform="translate(109.772 447.72) rotate(135) scale(160.835 61.1173)">
<stop stop-color="#FE1F02"/>
<stop offset="0.05" stop-color="#DF1B04" stop-opacity="0.88"/>
<stop offset="0.15" stop-color="#AC1609" stop-opacity="0.68"/>
<stop offset="0.26" stop-color="#7E110D" stop-opacity="0.5"/>
<stop offset="0.37" stop-color="#570D10" stop-opacity="0.34"/>
<stop offset="0.48" stop-color="#380A13" stop-opacity="0.22"/>
<stop offset="0.59" stop-color="#1F0815" stop-opacity="0.12"/>
<stop offset="0.71" stop-color="#0E0616" stop-opacity="0.05"/>
<stop offset="0.84" stop-color="#040517" stop-opacity="0.01"/>
<stop offset="1" stop-color="#010518" stop-opacity="0"/>
</radialGradient>
<radialGradient id="paint10_radial_306_9578" cx="0" cy="0" r="1" gradientUnits="userSpaceOnUse" gradientTransform="translate(690.481 407.771) rotate(-0.19) scale(570.545 62.7872)">
<stop stop-color="#FE1F02"/>
<stop offset="0.05" stop-color="#DF1B04" stop-opacity="0.88"/>
<stop offset="0.15" stop-color="#AC1609" stop-opacity="0.68"/>
<stop offset="0.26" stop-color="#7E110D" stop-opacity="0.5"/>
<stop offset="0.37" stop-color="#570D10" stop-opacity="0.34"/>
<stop offset="0.48" stop-color="#380A13" stop-opacity="0.22"/>
<stop offset="0.59" stop-color="#1F0815" stop-opacity="0.12"/>
<stop offset="0.71" stop-color="#0E0616" stop-opacity="0.05"/>
<stop offset="0.84" stop-color="#040517" stop-opacity="0.01"/>
<stop offset="1" stop-color="#010518" stop-opacity="0"/>
</radialGradient>
<radialGradient id="paint11_radial_306_9578" cx="0" cy="0" r="1" gradientUnits="userSpaceOnUse" gradientTransform="translate(609.899 464.34) rotate(-0.0700004) scale(564.666 24.3159)">
<stop stop-color="#FE1F02"/>
<stop offset="0.05" stop-color="#DF1B04" stop-opacity="0.88"/>
<stop offset="0.15" stop-color="#AC1609" stop-opacity="0.68"/>
<stop offset="0.26" stop-color="#7E110D" stop-opacity="0.5"/>
<stop offset="0.37" stop-color="#570D10" stop-opacity="0.34"/>
<stop offset="0.48" stop-color="#380A13" stop-opacity="0.22"/>
<stop offset="0.59" stop-color="#1F0815" stop-opacity="0.12"/>
<stop offset="0.71" stop-color="#0E0616" stop-opacity="0.05"/>
<stop offset="0.84" stop-color="#040517" stop-opacity="0.01"/>
<stop offset="1" stop-color="#010518" stop-opacity="0"/>
</radialGradient>
<radialGradient id="paint12_radial_306_9578" cx="0" cy="0" r="1" gradientUnits="userSpaceOnUse" gradientTransform="translate(700.428 437.329) rotate(179.24) scale(513.242 52.9799)">
<stop stop-color="#FE1F02"/>
<stop offset="0.05" stop-color="#DF1B04" stop-opacity="0.88"/>
<stop offset="0.15" stop-color="#AC1609" stop-opacity="0.68"/>
<stop offset="0.26" stop-color="#7E110D" stop-opacity="0.5"/>
<stop offset="0.37" stop-color="#570D10" stop-opacity="0.34"/>
<stop offset="0.48" stop-color="#380A13" stop-opacity="0.22"/>
<stop offset="0.59" stop-color="#1F0815" stop-opacity="0.12"/>
<stop offset="0.71" stop-color="#0E0616" stop-opacity="0.05"/>
<stop offset="0.84" stop-color="#040517" stop-opacity="0.01"/>
<stop offset="1" stop-color="#010518" stop-opacity="0"/>
</radialGradient>
<radialGradient id="paint13_radial_306_9578" cx="0" cy="0" r="1" gradientUnits="userSpaceOnUse" gradientTransform="translate(1065.01 491.054) rotate(-0.7) scale(422.779 143.745)">
<stop stop-color="#FE1F02"/>
<stop offset="0.09" stop-color="#F31D02" stop-opacity="0.96"/>
<stop offset="0.23" stop-color="#D71B05" stop-opacity="0.85"/>
<stop offset="0.43" stop-color="#AA1609" stop-opacity="0.67"/>
<stop offset="0.66" stop-color="#6A0F0E" stop-opacity="0.42"/>
<stop offset="0.92" stop-color="#1B0715" stop-opacity="0.1"/>
<stop offset="1" stop-color="#010518" stop-opacity="0"/>
</radialGradient>
<radialGradient id="paint14_radial_306_9578" cx="0" cy="0" r="1" gradientUnits="userSpaceOnUse" gradientTransform="translate(170.347 471.744) rotate(-0.7) scale(462.231 157.158)">
<stop stop-color="#FE1F02"/>
<stop offset="0.05" stop-color="#DF1B04" stop-opacity="0.88"/>
<stop offset="0.15" stop-color="#AC1609" stop-opacity="0.68"/>
<stop offset="0.26" stop-color="#7E110D" stop-opacity="0.5"/>
<stop offset="0.37" stop-color="#570D10" stop-opacity="0.34"/>
<stop offset="0.48" stop-color="#380A13" stop-opacity="0.22"/>
<stop offset="0.59" stop-color="#1F0815" stop-opacity="0.12"/>
<stop offset="0.71" stop-color="#0E0616" stop-opacity="0.05"/>
<stop offset="0.84" stop-color="#040517" stop-opacity="0.01"/>
<stop offset="1" stop-color="#010518" stop-opacity="0"/>
</radialGradient>
<radialGradient id="paint15_radial_306_9578" cx="0" cy="0" r="1" gradientUnits="userSpaceOnUse" gradientTransform="translate(323.114 401.186) rotate(-0.7) scale(532.216 69.1881)">
<stop offset="0.26" stop-color="#5C7B8D"/>
<stop offset="0.3" stop-color="#516D7F" stop-opacity="0.89"/>
<stop offset="0.4" stop-color="#394D60" stop-opacity="0.62"/>
<stop offset="0.51" stop-color="#243345" stop-opacity="0.39"/>
<stop offset="0.62" stop-color="#141E31" stop-opacity="0.22"/>
<stop offset="0.73" stop-color="#091023" stop-opacity="0.1"/>
<stop offset="0.85" stop-color="#03071A" stop-opacity="0.02"/>
<stop offset="1" stop-color="#010518" stop-opacity="0"/>
</radialGradient>
<radialGradient id="paint16_radial_306_9578" cx="0" cy="0" r="1" gradientUnits="userSpaceOnUse" gradientTransform="translate(252.177 345.459) scale(248.177 248.177)">
<stop offset="0.09" stop-color="white"/>
<stop offset="0.22" stop-color="#F4E73D"/>
<stop offset="0.34" stop-color="#F3E33C" stop-opacity="0.99"/>
<stop offset="0.44" stop-color="#F2DA3A" stop-opacity="0.94"/>
<stop offset="0.54" stop-color="#F0CA36" stop-opacity="0.87"/>
<stop offset="0.63" stop-color="#EEB331" stop-opacity="0.77"/>
<stop offset="0.71" stop-color="#EA962A" stop-opacity="0.64"/>
<stop offset="0.8" stop-color="#E67222" stop-opacity="0.48"/>
<stop offset="0.88" stop-color="#E14719" stop-opacity="0.3"/>
<stop offset="0.96" stop-color="#DC170E" stop-opacity="0.08"/>
<stop offset="0.99" stop-color="#DA050A" stop-opacity="0"/>
</radialGradient>
<linearGradient id="paint17_linear_306_9578" x1="1394.31" y1="359.569" x2="1377.83" y2="447.792" gradientUnits="userSpaceOnUse">
<stop stop-color="#010518"/>
<stop offset="1" stop-color="#010518" stop-opacity="0"/>
</linearGradient>
<radialGradient id="paint18_radial_306_9578" cx="0" cy="0" r="1" gradientUnits="userSpaceOnUse" gradientTransform="translate(935.475 646.016) scale(483.296 381.804)">
<stop offset="0.09" stop-color="white"/>
<stop offset="0.22" stop-color="#F4E73D"/>
<stop offset="0.34" stop-color="#F3E33C" stop-opacity="0.99"/>
<stop offset="0.44" stop-color="#F2DA3A" stop-opacity="0.94"/>
<stop offset="0.54" stop-color="#F0CA36" stop-opacity="0.87"/>
<stop offset="0.63" stop-color="#EEB331" stop-opacity="0.77"/>
<stop offset="0.71" stop-color="#EA962A" stop-opacity="0.64"/>
<stop offset="0.8" stop-color="#E67222" stop-opacity="0.48"/>
<stop offset="0.88" stop-color="#E14719" stop-opacity="0.3"/>
<stop offset="0.96" stop-color="#DC170E" stop-opacity="0.08"/>
<stop offset="0.99" stop-color="#DA050A" stop-opacity="0"/>
</radialGradient>
<clipPath id="clip0_306_9578">
<rect width="1440" height="567.884" fill="white"/>
</clipPath>
</defs>
</svg>
