<svg width="40" height="40" viewBox="0 0 40 40" fill="none" xmlns="http://www.w3.org/2000/svg">
<g clip-path="url(#clip0_306_5121)">
<path fill-rule="evenodd" clip-rule="evenodd" d="M40 20C40 31.0458 31.0459 40 20.0003 40C8.95465 40 0 31.0458 0 20C0 8.95417 8.95465 0 20.0003 0C31.0459 0 40 8.95417 40 20Z" fill="#2D374B"/>
<path d="M23.4058 18.7458L25.6089 15.0074L31.5468 24.2567L31.5496 26.0317L31.5302 13.8172C31.5161 13.5186 31.3576 13.2455 31.1047 13.0844L20.4142 6.9346C20.1641 6.8117 19.847 6.81301 19.5974 6.93841C19.5637 6.95536 19.532 6.9737 19.5017 6.99372L19.4645 7.01718L9.08761 13.031L9.0473 13.0492C8.99554 13.0731 8.94322 13.1033 8.89407 13.1385C8.69737 13.2797 8.56667 13.4883 8.5244 13.7223C8.51807 13.7578 8.51342 13.7939 8.51118 13.8303L8.52747 23.784L14.0584 15.2106C14.7547 14.0738 16.2719 13.7076 17.6803 13.7276L19.3334 13.7712L9.59366 29.3922L10.7418 30.0533L20.5982 13.7871L24.9548 13.7712L15.1237 30.448L19.2206 32.8045L19.71 33.0861C19.9171 33.1702 20.1612 33.1744 20.37 33.0991L31.2107 26.8162L29.1381 28.0173L23.4058 18.7458ZM24.2464 30.8524L20.1085 24.3576L22.6344 20.071L28.0686 28.6371L24.2464 30.8524Z" fill="#2D374B"/>
<path d="M20.1086 24.3577L24.2465 30.8525L28.0688 28.6372L22.6346 20.0712L20.1086 24.3577Z" fill="#28A0F0"/>
<path d="M31.5498 26.0315L31.547 24.2565L25.6091 15.0072L23.4061 18.7455L29.1383 28.0171L31.211 26.816C31.4143 26.651 31.5372 26.4086 31.5502 26.1471L31.5498 26.0315Z" fill="#28A0F0"/>
<path d="M6.66676 27.7056L9.59359 29.3922L19.3333 13.7712L17.6803 13.7276C16.2719 13.7076 14.7547 14.0738 14.0583 15.2107L8.5274 23.784L6.66667 26.6432V27.7056H6.66676Z" fill="white"/>
<path d="M24.955 13.7712L20.5986 13.7871L10.7421 30.0534L14.1872 32.0371L15.1241 30.448L24.955 13.7712Z" fill="white"/>
<path d="M33.3855 13.7488C33.3491 12.8376 32.8558 12.0034 32.083 11.5178L21.2524 5.28894C20.488 4.90397 19.5331 4.9035 18.7675 5.28866C18.677 5.33428 8.23492 11.3908 8.23492 11.3908C8.09044 11.4601 7.95126 11.5427 7.82028 11.6363C7.13047 12.1308 6.70997 12.899 6.66677 13.7432V26.6432L8.52751 23.784L8.51122 13.8304C8.51345 13.794 8.51801 13.7583 8.52444 13.7229C8.56642 13.4886 8.69722 13.2797 8.89411 13.1386C8.94326 13.1034 19.5636 6.95543 19.5974 6.93849C19.8471 6.81308 20.1643 6.81178 20.4142 6.93467L31.1047 13.0845C31.3576 13.2456 31.5162 13.5187 31.5302 13.8173V26.1474C31.5173 26.4089 31.414 26.6511 31.2106 26.8163L29.138 28.0174L28.0687 28.6372L24.2463 30.8525L20.3699 33.0992C20.1611 33.1746 19.917 33.1704 19.71 33.0861L15.1237 30.4481L14.1868 32.0371L18.3084 34.4103C18.4447 34.4878 18.5662 34.5565 18.6658 34.6125C18.8201 34.6991 18.9252 34.7569 18.9624 34.7749C19.2553 34.9171 19.6767 35 20.0566 35C20.4048 35 20.7443 34.936 21.0657 34.8102L32.3248 28.2892C32.971 27.7885 33.3512 27.0333 33.3855 26.2153V13.7488Z" fill="#96BEDC"/>
</g>
<defs>
<clipPath id="clip0_306_5121">
<rect width="40" height="40" fill="white"/>
</clipPath>
</defs>
</svg>
