<svg width="40" height="40" viewBox="0 0 40 40" fill="none" xmlns="http://www.w3.org/2000/svg">
<g clip-path="url(#clip0_306_5079)">
<path d="M19.9999 40C31.0456 40 39.9999 31.0457 39.9999 20C39.9999 8.9543 31.0456 0 19.9999 0C8.95424 0 -6.10352e-05 8.9543 -6.10352e-05 20C-6.10352e-05 31.0457 8.95424 40 19.9999 40Z" fill="black"/>
<g clip-path="url(#clip1_306_5079)">
<path d="M17.4736 29.4738C21.3111 29.4738 24.421 26.3639 24.421 22.5264C24.421 18.6889 21.3111 15.579 17.4736 15.579C13.6361 15.579 10.5263 18.6889 10.5263 22.5264C10.5263 26.3639 13.6361 29.4738 17.4736 29.4738ZM17.4736 32.0001C12.2416 32.0001 7.99994 27.7584 7.99994 22.5264C7.99994 17.2944 12.2416 13.0527 17.4736 13.0527C22.7056 13.0527 26.9473 17.2944 26.9473 22.5264C26.9473 27.7584 22.7056 32.0001 17.4736 32.0001Z" fill="#FBCC5C"/>
<path d="M22.5262 24.421C26.3637 24.421 29.4736 21.3112 29.4736 17.4737C29.4736 13.6362 26.3637 10.5263 22.5262 10.5263C18.6888 10.5263 15.5789 13.6362 15.5789 17.4737C15.5789 21.3112 18.6888 24.421 22.5262 24.421ZM22.5262 26.9474C17.2942 26.9474 13.0526 22.7057 13.0526 17.4737C13.0526 12.2417 17.2942 8 22.5262 8C27.7582 8 31.9999 12.2417 31.9999 17.4737C31.9999 22.7057 27.7582 26.9474 22.5262 26.9474Z" fill="#35D07F"/>
<path d="M22.8395 26.9475C23.4964 26.1517 23.9663 25.2195 24.2164 24.2165C25.2168 23.9664 26.149 23.4965 26.9473 22.8397C26.9119 23.9993 26.6618 25.1412 26.2096 26.2123C25.141 26.662 23.9991 26.9121 22.8395 26.9475ZM15.7835 15.7837C14.7831 16.0338 13.8509 16.5037 13.0526 17.1605C13.0879 16.0009 13.338 14.8591 13.7903 13.7904C14.8589 13.3407 16.0033 13.0906 17.1604 13.0527C16.5035 13.8485 16.0336 14.7807 15.7835 15.7837Z" fill="#5EA33B"/>
</g>
</g>
<defs>
<clipPath id="clip0_306_5079">
<rect width="40" height="40" fill="white"/>
</clipPath>
<clipPath id="clip1_306_5079">
<rect width="24" height="24" fill="white" transform="translate(7.99994 8)"/>
</clipPath>
</defs>
</svg>
