<svg width="40" height="40" viewBox="0 0 40 40" fill="none" xmlns="http://www.w3.org/2000/svg">
<g clip-path="url(#clip0_306_5013)">
<path d="M19.9999 40C31.0456 40 39.9999 31.0457 39.9999 20C39.9999 8.9543 31.0456 0 19.9999 0C8.95424 0 -6.10352e-05 8.9543 -6.10352e-05 20C-6.10352e-05 31.0457 8.95424 40 19.9999 40Z" fill="#110666"/>
<path d="M30.4951 11.6231C30.2553 10.7106 29.4959 9.79137 28.1171 8.7789C27.0114 7.96627 25.8457 7.5 24.9132 7.5C24.7267 7.5 24.5602 7.51998 24.387 7.55329C23.9607 7.63988 23.5877 7.95295 23.3545 8.41921C23.0681 8.97207 23.0015 9.71144 23.188 10.1644C23.2546 10.3043 23.3412 10.4774 23.4411 10.6306C22.5419 11.1835 22.0357 11.3367 21.9624 11.3567C24.3004 12.1493 26.2521 13.8079 27.4777 15.9661L27.4977 15.7596C27.5509 15.1934 27.7175 14.534 27.9573 13.8612C28.1971 13.9278 28.4302 13.9678 28.67 13.9678C29.2961 13.9678 29.8423 13.708 30.182 13.2417C30.5084 12.7622 30.6483 12.1427 30.4951 11.6231Z" fill="#5E12A0"/>
<path d="M28.0503 13.3484C29.5957 13.7813 30.2218 12.569 30.0153 11.763C29.7955 10.9504 29.0828 10.1245 27.8238 9.19192C26.5716 8.25938 25.2993 7.87971 24.48 8.0529C23.6674 8.22608 23.4276 9.485 23.6341 9.97125C23.7207 10.1578 23.9072 10.4375 24.1603 10.7506C23.8406 10.9771 23.5342 11.1502 23.2811 11.3034C24.8397 12.0095 26.1986 13.1152 27.2177 14.494C27.3376 14.0278 27.5041 13.6148 27.6573 13.2484C27.7772 13.2618 27.9104 13.2951 28.0503 13.3484Z" fill="url(#paint0_radial_306_5013)"/>
<path d="M19.2115 30.2603C24.447 30.2603 28.6967 25.944 28.6967 20.6153C28.6967 15.2865 24.4536 10.9702 19.2115 10.9702C13.9759 10.9702 9.72626 15.2865 9.72626 20.6153C9.72626 25.944 13.9759 30.2603 19.2115 30.2603Z" fill="url(#paint1_radial_306_5013)"/>
<path opacity="0.6" d="M29.2364 10.9637C27.9441 9.58485 26.8584 9.21849 25.5529 8.92541C24.5337 8.68562 24.8068 8.09945 26.0458 8.21935C25.453 8.01286 24.8934 7.95957 24.4871 8.04616C23.6745 8.21935 23.4347 9.47827 23.6412 9.96452C23.7278 10.151 23.9143 10.4308 24.1674 10.7439C23.7078 11.0569 23.3214 11.2767 22.9951 11.4499C23.1483 11.5165 23.3348 11.6031 23.5546 11.723C24.1341 12.0361 24.7602 12.549 24.7602 12.549C23.8077 11.723 24.0142 11.3433 25.3197 10.4108C25.726 10.1177 26.4721 10.151 27.1715 10.5174C27.8709 10.8837 28.6835 11.7963 28.6835 11.7963L27.9042 13.315C27.9575 13.335 28.0041 13.3483 28.0574 13.3683C28.5503 13.5082 28.9366 13.4748 29.243 13.3483C29.5961 13.1218 30.5286 12.3625 29.2364 10.9637Z" fill="#A98698"/>
<path d="M25.539 9.75792C25.8787 9.8978 26.3183 10.1376 26.8645 10.4973C27.5107 10.9302 28.0702 11.4098 28.4232 11.7895C27.8304 12.5822 27.4374 13.6679 27.2043 14.4273C27.3241 14.6004 27.4574 14.7736 27.5773 14.9468C27.6972 14.5138 27.897 13.8744 28.1701 13.2416C28.2367 13.2616 28.3233 13.2616 28.4099 13.2616C28.6164 13.2616 28.8495 13.2283 29.036 13.0684C29.1692 12.9618 29.3224 12.7753 29.3091 12.429C29.3091 12.1026 29.056 11.6896 28.5298 11.1834C28.1568 10.8237 27.6505 10.424 27.1376 10.0643C25.6789 9.0785 24.6598 8.8054 24.2002 9.27167C23.8938 9.58473 23.9271 9.96441 24.0336 10.2375C23.4941 10.5972 23.0345 10.857 22.7281 11.0302C22.9346 11.0968 23.1211 11.1834 23.3209 11.27C23.8605 10.9835 24.6398 10.484 25.539 9.75792ZM28.7429 12.2291C28.7962 12.3157 28.8095 12.4023 28.8095 12.4556C28.8095 12.6088 28.7563 12.6621 28.7229 12.6954C28.6563 12.7487 28.5165 12.782 28.4032 12.782C28.5098 12.5688 28.623 12.3957 28.7429 12.2291ZM24.5532 9.65134C24.6065 9.59806 24.7397 9.56475 24.9595 9.59805C24.793 9.73793 24.6198 9.85783 24.4533 9.97773C24.4333 9.86449 24.4533 9.73794 24.5532 9.65134Z" fill="#5E12A0"/>
<path d="M19.2113 10.3975C13.6628 10.3975 9.16663 14.9735 9.16663 20.6154C9.16663 26.2572 13.6628 30.8333 19.2113 30.8333C24.7599 30.8333 29.2561 26.2572 29.2561 20.6154C29.2561 14.9735 24.7399 10.3975 19.2113 10.3975ZM19.2113 30.2604C13.9692 30.2604 9.72615 25.9441 9.72615 20.6154C9.72615 15.2866 13.9692 10.9703 19.2113 10.9703C24.4535 10.9703 28.6966 15.2866 28.6966 20.6154C28.6966 25.9441 24.4335 30.2604 19.2113 30.2604Z" fill="#5E12A0"/>
<path opacity="0.6" d="M19.2115 30.2603C24.447 30.2603 28.6967 25.944 28.6967 20.6153C28.6967 15.2865 24.4536 10.9702 19.2115 10.9702C13.9759 10.9702 9.72626 15.2865 9.72626 20.6153C9.72626 25.944 13.9759 30.2603 19.2115 30.2603Z" fill="url(#paint2_linear_306_5013)"/>
<path opacity="0.6" d="M19.1446 29.0881C13.969 28.2422 10.4587 23.2931 11.3046 18.0243C11.6777 15.693 12.83 13.708 14.4619 12.2759C12.084 13.6747 10.3255 16.1059 9.8459 19.0767C9.01328 24.3389 12.5236 29.2946 17.6858 30.1406C20.57 30.6268 23.3543 29.7076 25.4059 27.9158C23.5875 28.9816 21.3827 29.4478 19.1446 29.0881Z" fill="#A98698"/>
<path opacity="0.6" d="M20.7236 11.1036C18.3323 10.7039 16.0076 11.2568 14.1093 12.4824C14.076 12.5157 14.0427 12.549 14.0427 12.549C14.7754 12.1027 15.8411 11.7031 15.8411 11.7031C13.0901 13.3283 12.2442 15.1734 12.2442 15.1734C13.31 13.0686 16.4539 11.5832 18.9118 11.4832C21.3697 11.3767 22.9817 12.1227 24.9533 13.728C26.9183 15.3533 28.1106 18.6638 27.9907 21.2882C27.8908 23.9126 26.532 26.0308 26.532 26.0308C27.4645 24.8052 28.024 23.9059 28.3837 22.9934C28.4503 22.7203 28.5169 22.4405 28.5502 22.1474C29.3895 16.9053 25.8925 11.9495 20.7236 11.1036Z" fill="url(#paint3_linear_306_5013)"/>
<path d="M28.2169 20.5288C28.2169 25.5845 24.1804 29.6943 19.2113 29.6943C14.2423 29.6943 10.1857 25.5845 10.1857 20.5288H28.2169Z" fill="url(#paint4_linear_306_5013)"/>
<path opacity="0.6" d="M27.5043 20.5288C27.5043 25.4646 23.6676 29.5011 18.8517 29.6943C18.9716 29.6943 19.0915 29.6943 19.2047 29.6943C24.1738 29.6943 28.2103 25.5845 28.2103 20.5288H27.5043Z" fill="url(#paint5_linear_306_5013)"/>
<path opacity="0.7" d="M11.458 20.5288H10.1857C10.1857 25.5845 14.2223 29.6943 19.1913 29.6943C19.4112 29.6943 19.6176 29.6943 19.8175 29.6743C15.1548 29.3279 11.458 25.358 11.458 20.5288Z" fill="url(#paint6_linear_306_5013)"/>
<path d="M28.2036 20.6154C28.2036 19.563 26.4052 18.9568 24.0139 18.7503C22.282 18.6104 20.5369 18.7836 18.5319 19.4031C16.8001 19.9226 15.2414 19.8361 14.1024 19.6962C11.5779 19.4031 10.1857 19.3698 10.1857 20.6087C10.1857 22.4005 13.7826 24.6453 19.178 23.8726C21.909 23.4729 23.3145 22.667 24.9264 22.1141C26.6783 21.5279 28.2036 21.5479 28.2036 20.6154Z" fill="url(#paint7_linear_306_5013)"/>
<path d="M22.1622 16.2659C23.0081 16.2659 23.6876 15.5731 23.6876 14.7139C23.6876 13.8546 23.0015 13.1619 22.1622 13.1619C21.3163 13.1619 20.6368 13.8546 20.6368 14.7139C20.6368 15.5731 21.3163 16.2659 22.1622 16.2659Z" fill="white"/>
<path d="M24.6534 17.4181C25.0064 17.4181 25.2995 17.125 25.2995 16.7653C25.2995 16.4056 25.0131 16.1125 24.6534 16.1125C24.2937 16.1125 24.0073 16.4056 24.0073 16.7653C24.0073 17.125 24.3003 17.4181 24.6534 17.4181Z" fill="white"/>
<path opacity="0.6" d="M26.9648 13.4682C26.9448 13.4682 26.9315 13.4682 26.9315 13.4682C26.8316 13.4482 26.765 13.3483 26.7783 13.2284C26.9315 12.4358 27.5776 11.6764 27.6109 11.6431C27.6775 11.5565 27.8174 11.5565 27.884 11.6231C27.9706 11.6898 27.9706 11.8296 27.904 11.8962C27.884 11.9162 27.2912 12.6223 27.158 13.3084C27.1313 13.4149 27.0514 13.4682 26.9648 13.4682Z" fill="url(#paint8_linear_306_5013)"/>
<path opacity="0.2" d="M18.5854 27.8092C18.8452 27.8092 19.0583 27.596 19.0583 27.3229C19.0583 27.0565 18.8452 26.8367 18.5854 26.8367C18.3256 26.8367 18.1125 27.0498 18.1125 27.3229C18.1125 27.596 18.319 27.8092 18.5854 27.8092Z" fill="white"/>
<path opacity="0.6" d="M18.3123 27.636C18.1258 27.4429 18.1258 27.1364 18.3123 26.9433C18.3456 26.91 18.3789 26.89 18.4122 26.8567C18.3456 26.8767 18.2923 26.91 18.2457 26.9633C18.0591 27.1498 18.0591 27.4628 18.2457 27.656C18.3989 27.8092 18.6386 27.8425 18.8252 27.7426C18.652 27.8092 18.4455 27.7759 18.3123 27.636Z" fill="url(#paint9_linear_306_5013)"/>
<path opacity="0.3" d="M18.7518 27.1897C18.8051 27.1897 18.8517 27.1431 18.8517 27.0831C18.8517 27.0232 18.8051 26.9766 18.7518 26.9766C18.6985 26.9766 18.6519 27.0232 18.6519 27.0831C18.6519 27.1431 18.6985 27.1897 18.7518 27.1897Z" fill="white"/>
<path opacity="0.2" d="M21.0632 27.5694C21.3229 27.5694 21.5361 27.3563 21.5361 27.0832C21.5361 26.8167 21.3229 26.5969 21.0632 26.5969C20.8034 26.5969 20.5902 26.8101 20.5902 27.0832C20.5836 27.3496 20.7967 27.5694 21.0632 27.5694Z" fill="white"/>
<path opacity="0.6" d="M20.7901 27.3963C20.6036 27.2098 20.6036 26.8967 20.7901 26.7035C20.8234 26.6702 20.8567 26.6502 20.89 26.6169C20.8234 26.6369 20.7701 26.6702 20.7235 26.7235C20.537 26.91 20.537 27.2231 20.7235 27.4163C20.8767 27.5695 21.1165 27.6094 21.303 27.5028C21.1298 27.5695 20.9233 27.5362 20.7901 27.3963Z" fill="url(#paint10_linear_306_5013)"/>
<path opacity="0.3" d="M21.2296 26.9434C21.2829 26.9434 21.3295 26.8968 21.3295 26.8368C21.3295 26.7769 21.2829 26.7302 21.2296 26.7302C21.1763 26.7302 21.1297 26.7769 21.1297 26.8368C21.1297 26.8968 21.1763 26.9434 21.2296 26.9434Z" fill="white"/>
<path opacity="0.2" d="M19.8376 28.6886C20.0374 28.6886 20.1906 28.5288 20.1906 28.3289C20.1906 28.1291 20.0308 27.9692 19.8376 27.9692C19.6378 27.9692 19.4846 28.1291 19.4846 28.3289C19.4846 28.5288 19.6444 28.6886 19.8376 28.6886Z" fill="white"/>
<path opacity="0.6" d="M19.6378 28.5487C19.5045 28.4088 19.5045 28.169 19.6378 28.0291C19.6577 28.0091 19.691 27.9958 19.7044 27.9758C19.6511 27.9958 19.6178 28.0291 19.5845 28.0624C19.4513 28.2023 19.4513 28.4421 19.5845 28.582C19.7044 28.7019 19.8709 28.7219 20.0241 28.6353C19.8909 28.6886 19.7377 28.6553 19.6378 28.5487Z" fill="url(#paint11_linear_306_5013)"/>
<path opacity="0.3" d="M19.957 28.2089C19.997 28.2089 20.0236 28.1756 20.0236 28.1423C20.0236 28.1023 19.9903 28.0757 19.957 28.0757C19.9237 28.0757 19.8904 28.109 19.8904 28.1423C19.8904 28.1756 19.917 28.2089 19.957 28.2089Z" fill="white"/>
<path opacity="0.2" d="M22.0288 28.4289C22.2287 28.4289 22.3819 28.269 22.3819 28.0692C22.3819 27.8693 22.222 27.7095 22.0288 27.7095C21.829 27.7095 21.6758 27.8693 21.6758 28.0692C21.6691 28.269 21.829 28.4289 22.0288 28.4289Z" fill="white"/>
<path opacity="0.6" d="M21.8223 28.2955C21.6891 28.1556 21.6891 27.9158 21.8223 27.7759C21.8423 27.756 21.8756 27.7426 21.8889 27.7227C21.8357 27.7426 21.8023 27.7759 21.769 27.8092C21.6358 27.9491 21.6358 28.1889 21.769 28.3288C21.8889 28.4487 22.0555 28.4687 22.2087 28.3821C22.0754 28.4287 21.9222 28.3954 21.8223 28.2955Z" fill="url(#paint12_linear_306_5013)"/>
<path opacity="0.3" d="M22.1489 27.9491C22.1888 27.9491 22.2155 27.9158 22.2155 27.8825C22.2155 27.8426 22.1822 27.8159 22.1489 27.8159C22.1156 27.8159 22.0823 27.8492 22.0823 27.8825C22.0756 27.9158 22.1089 27.9491 22.1489 27.9491Z" fill="white"/>
<path opacity="0.2" d="M16.5671 27.6361C17 27.6361 17.3464 27.2831 17.3464 26.8434C17.3464 26.4038 17 26.0508 16.5671 26.0508C16.1341 26.0508 15.7878 26.4038 15.7878 26.8434C15.7811 27.2831 16.1341 27.6361 16.5671 27.6361Z" fill="white"/>
<path opacity="0.6" d="M16.1205 27.3429C15.8141 27.0299 15.8141 26.5303 16.1205 26.2239C16.1738 26.1706 16.2204 26.1373 16.287 26.104C16.1871 26.1373 16.1005 26.2106 16.0139 26.2772C15.7075 26.5903 15.7075 27.0898 16.0139 27.3962C16.267 27.656 16.66 27.7093 16.9664 27.5161C16.68 27.636 16.347 27.5827 16.1205 27.3429Z" fill="url(#paint13_linear_306_5013)"/>
<path opacity="0.3" d="M16.8332 26.6037C16.9265 26.6037 16.9997 26.5238 16.9997 26.4305C16.9997 26.3373 16.9265 26.2573 16.8332 26.2573C16.74 26.2573 16.6667 26.3373 16.6667 26.4305C16.6667 26.5238 16.74 26.6037 16.8332 26.6037Z" fill="white"/>
<path opacity="0.2" d="M23.5345 25.6844C23.9675 25.6844 24.3139 25.3314 24.3139 24.8918C24.3139 24.4522 23.9675 24.0991 23.5345 24.0991C23.1016 24.0991 22.7552 24.4522 22.7552 24.8918C22.7552 25.3314 23.1082 25.6844 23.5345 25.6844Z" fill="white"/>
<path opacity="0.6" d="M23.0812 25.3913C22.7748 25.0782 22.7748 24.5786 23.0812 24.2722C23.1345 24.219 23.1811 24.1856 23.2477 24.1523C23.1478 24.1856 23.0612 24.2589 22.9746 24.3255C22.6682 24.6386 22.6682 25.1382 22.9746 25.4446C23.2277 25.7043 23.6207 25.7576 23.9271 25.5645C23.6407 25.6844 23.3143 25.6377 23.0812 25.3913Z" fill="url(#paint14_linear_306_5013)"/>
<path opacity="0.3" d="M23.8073 24.652C23.9005 24.652 23.9738 24.5721 23.9738 24.4788C23.9738 24.3856 23.9005 24.3057 23.8073 24.3057C23.714 24.3057 23.6407 24.3856 23.6407 24.4788C23.6407 24.5721 23.714 24.652 23.8073 24.652Z" fill="white"/>
</g>
<defs>
<radialGradient id="paint0_radial_306_5013" cx="0" cy="0" r="1" gradientUnits="userSpaceOnUse" gradientTransform="translate(29.7079 10.6728) scale(7.5823 7.71286)">
<stop stop-color="#FFEAFF" stop-opacity="0.6"/>
<stop offset="0.6807" stop-color="#A087C9"/>
<stop offset="1" stop-color="#10002F"/>
</radialGradient>
<radialGradient id="paint1_radial_306_5013" cx="0" cy="0" r="1" gradientUnits="userSpaceOnUse" gradientTransform="translate(25.4898 13.9622) scale(18.5512 18.8706)">
<stop stop-color="#FFEAFF" stop-opacity="0.6"/>
<stop offset="0.6807" stop-color="#A087C9"/>
<stop offset="1" stop-color="#10002F"/>
</radialGradient>
<linearGradient id="paint2_linear_306_5013" x1="17.642" y1="30.1282" x2="20.7798" y2="11.0975" gradientUnits="userSpaceOnUse">
<stop stop-color="#81FFFF"/>
<stop offset="0.6202" stop-color="white" stop-opacity="0"/>
</linearGradient>
<linearGradient id="paint3_linear_306_5013" x1="25.9755" y1="14.1515" x2="18.0114" y2="21.3351" gradientUnits="userSpaceOnUse">
<stop offset="0.2888" stop-color="white"/>
<stop offset="0.7796" stop-color="white" stop-opacity="0"/>
</linearGradient>
<linearGradient id="paint4_linear_306_5013" x1="10.1854" y1="25.1084" x2="28.2192" y2="25.1084" gradientUnits="userSpaceOnUse">
<stop stop-color="#0002E9"/>
<stop offset="0.9952" stop-color="#FF00C7"/>
</linearGradient>
<linearGradient id="paint5_linear_306_5013" x1="29.1155" y1="21.3819" x2="19.1485" y2="30.6418" gradientUnits="userSpaceOnUse">
<stop offset="0.2888" stop-color="white"/>
<stop offset="0.7796" stop-color="white" stop-opacity="0"/>
</linearGradient>
<linearGradient id="paint6_linear_306_5013" x1="10.1854" y1="25.1084" x2="19.8215" y2="25.1084" gradientUnits="userSpaceOnUse">
<stop stop-color="#000292"/>
<stop offset="0.9952" stop-color="#7D00C7"/>
</linearGradient>
<linearGradient id="paint7_linear_306_5013" x1="10.2052" y1="21.3686" x2="28.2027" y2="21.3686" gradientUnits="userSpaceOnUse">
<stop stop-color="#000292"/>
<stop offset="0.9952" stop-color="#BE00C7"/>
</linearGradient>
<linearGradient id="paint8_linear_306_5013" x1="27.9301" y1="11.5694" x2="26.6043" y2="13.6873" gradientUnits="userSpaceOnUse">
<stop offset="0.2888" stop-color="white"/>
<stop offset="0.7796" stop-color="white" stop-opacity="0"/>
</linearGradient>
<linearGradient id="paint9_linear_306_5013" x1="18.104" y1="27.3301" x2="18.8217" y2="27.3301" gradientUnits="userSpaceOnUse">
<stop offset="0.2888" stop-color="white"/>
<stop offset="0.7796" stop-color="white" stop-opacity="0"/>
</linearGradient>
<linearGradient id="paint10_linear_306_5013" x1="20.5786" y1="27.0884" x2="21.2964" y2="27.0884" gradientUnits="userSpaceOnUse">
<stop offset="0.2888" stop-color="white"/>
<stop offset="0.7796" stop-color="white" stop-opacity="0"/>
</linearGradient>
<linearGradient id="paint11_linear_306_5013" x1="19.4802" y1="28.3371" x2="20.019" y2="28.3371" gradientUnits="userSpaceOnUse">
<stop offset="0.2888" stop-color="white"/>
<stop offset="0.7796" stop-color="white" stop-opacity="0"/>
</linearGradient>
<linearGradient id="paint12_linear_306_5013" x1="21.661" y1="28.0781" x2="22.1999" y2="28.0781" gradientUnits="userSpaceOnUse">
<stop offset="0.2888" stop-color="white"/>
<stop offset="0.7796" stop-color="white" stop-opacity="0"/>
</linearGradient>
<linearGradient id="paint13_linear_306_5013" x1="15.7849" y1="26.8651" x2="16.957" y2="26.8651" gradientUnits="userSpaceOnUse">
<stop offset="0.2888" stop-color="white"/>
<stop offset="0.7796" stop-color="white" stop-opacity="0"/>
</linearGradient>
<linearGradient id="paint14_linear_306_5013" x1="22.7465" y1="24.9151" x2="23.9187" y2="24.9151" gradientUnits="userSpaceOnUse">
<stop offset="0.2888" stop-color="white"/>
<stop offset="0.7796" stop-color="white" stop-opacity="0"/>
</linearGradient>
<clipPath id="clip0_306_5013">
<rect width="40" height="40" fill="white"/>
</clipPath>
</defs>
</svg>
