<svg width="24" height="24" viewBox="0 0 24 24" fill="none" xmlns="http://www.w3.org/2000/svg">
<path d="M14.9999 15L14.4999 15.0051C14.2277 15.0078 14.0077 15.2278 14.005 15.5L13.9999 16V16.5C13.9999 16.7761 13.7761 17 13.4999 17H12.9999L12.4999 17.0051C12.2277 17.0078 12.0077 17.2278 12.005 17.5L11.9999 18V18.5C11.9999 18.7761 11.7761 19 11.4999 19H10.9999L10.4999 19.0051C10.2277 19.0078 10.0077 19.2278 10.005 19.5L9.99994 20V20.5C9.99994 20.7761 9.77608 21 9.49994 21H8.49994C8.2238 21 7.99994 20.7761 7.99994 20.5V19.5C7.99994 19.2239 8.2238 19 8.49994 19H8.99994L9.49996 18.995C9.77216 18.9922 9.99214 18.7722 9.99489 18.5L9.99994 18V17.5C9.99994 17.2239 10.2238 17 10.4999 17H10.9999L11.5 16.9949C11.7722 16.9922 11.9921 16.7722 11.9949 16.5L11.9999 16V15.5C11.9999 15.2239 12.2238 15 12.4999 15H12.9999L13.5 14.9949C13.7722 14.9922 13.9921 14.7722 13.9949 14.5L13.9999 14L13.9949 13.5C13.9921 13.2278 13.7722 13.0078 13.5 13.0051L12.9999 13H12.4999C12.2238 13 11.9999 12.7761 11.9999 12.5V12L11.9949 11.5C11.9921 11.2278 11.7722 11.0078 11.5 11.0051L10.9999 11H10.4999C10.2238 11 9.99994 10.7761 9.99994 10.5V10L9.99489 9.49998C9.99214 9.22778 9.77216 9.0078 9.49996 9.00505L8.99994 9H8.49994C8.2238 9 7.99994 8.77614 7.99994 8.5V7.5C7.99994 7.22386 8.2238 7 8.49994 7H9.49994C9.77608 7 9.99994 7.22386 9.99994 7.5V8L10.005 8.50003C10.0077 8.77222 10.2277 8.9922 10.4999 8.99495L10.9999 9H11.4999C11.7761 9 11.9999 9.22386 11.9999 9.5V10L12.005 10.5C12.0077 10.7722 12.2277 10.9922 12.4999 10.995L12.9999 11H13.4999C13.7761 11 13.9999 11.2239 13.9999 11.5V12L14.005 12.5C14.0077 12.7722 14.2277 12.9922 14.4999 12.995L14.9999 13L15.4999 13C15.7761 13 15.9999 13.2239 15.9999 13.5V14.5C15.9999 14.7761 15.7761 15 15.4999 15H14.9999Z" fill="#000A1E"/>
<path d="M14.9999 13L14.4999 13.0051C14.2277 13.0078 14.0077 13.2278 14.005 13.5L13.9999 14V14.5C13.9999 14.7761 13.7761 15 13.4999 15H12.9999L12.4999 15.0051C12.2277 15.0078 12.0077 15.2278 12.005 15.5L11.9999 16V16.5C11.9999 16.7761 11.7761 17 11.4999 17H10.9999L10.4999 17.0051C10.2277 17.0078 10.0077 17.2278 10.005 17.5L9.99994 18V18.5C9.99994 18.7761 9.77608 19 9.49994 19H8.49994C8.2238 19 7.99994 18.7761 7.99994 18.5V17.5C7.99994 17.2239 8.2238 17 8.49994 17H8.99994L9.49996 16.995C9.77216 16.9922 9.99214 16.7722 9.99489 16.5L9.99994 16V15.5C9.99994 15.2239 10.2238 15 10.4999 15H10.9999L11.5 14.9949C11.7722 14.9922 11.9921 14.7722 11.9949 14.5L11.9999 14V13.5C11.9999 13.2239 12.2238 13 12.4999 13H12.9999L13.5 12.9949C13.7722 12.9922 13.9921 12.7722 13.9949 12.5L13.9999 12L13.9949 11.5C13.9921 11.2278 13.7722 11.0078 13.5 11.0051L12.9999 11H12.4999C12.2238 11 11.9999 10.7761 11.9999 10.5V10L11.9949 9.49998C11.9921 9.22778 11.7722 9.0078 11.5 9.00505L10.9999 9H10.4999C10.2238 9 9.99994 8.77614 9.99994 8.5V8L9.99489 7.49998C9.99214 7.22778 9.77216 7.0078 9.49996 7.00505L8.99994 7H8.49994C8.2238 7 7.99994 6.77614 7.99994 6.5V5.5C7.99994 5.22386 8.2238 5 8.49994 5H9.49994C9.77608 5 9.99994 5.22386 9.99994 5.5V6L10.005 6.50003C10.0077 6.77222 10.2277 6.9922 10.4999 6.99495L10.9999 7H11.4999C11.7761 7 11.9999 7.22386 11.9999 7.5V8L12.005 8.50003C12.0077 8.77222 12.2277 8.9922 12.4999 8.99495L12.9999 9H13.4999C13.7761 9 13.9999 9.22386 13.9999 9.5V10L14.005 10.5C14.0077 10.7722 14.2277 10.9922 14.4999 10.995L14.9999 11L15.4999 11C15.7761 11 15.9999 11.2239 15.9999 11.5V12.5C15.9999 12.7761 15.7761 13 15.4999 13H14.9999Z" fill="#E81528"/>
</svg>
