<svg width="1440" height="1595" viewBox="0 0 1440 1595" fill="none" xmlns="http://www.w3.org/2000/svg">
<g clip-path="url(#clip0_306_9618)">
<path d="M1438.24 807.267V809.502H1436.07V811.737H1433.77V813.904H1432.01V815.729H1429.75V818.001H1427.54V820.199H1425.31V747.137H1423.07V824.661H1420.83V826.732H1418.74V828.989H1416.51V831.224H1414.27V833.443H1412.04V835.701H1409.8V837.935H1407.57V785.165H1405.33V815.148H1403.1V833.004H1400.92V846.651H1398.63V848.819H1396.59V851.076H1394.36V853.31H1392.12V855.314H1389.89V857.549H1387.65V859.784H1385.48V862.018H1383.19V864.186H1381.43V866.011H1379.16V868.283H1376.95V870.481H1374.72V872.716H1372.48V874.943H1370.25V877.014H1368.15V879.271H1365.92V881.506H1363.68V883.725H1361.45V885.983H1359.21V888.217H1356.98V890.221H1354.74V892.456H1352.51V894.691H1350.33V896.925H1348.04V902.818V1041.03H1379.18V1044.92H1348.04V1050.24H1379.18V1054.13H1342.83V1059.46H1379.18V1063.35H1348.04V1068.67H1379.18V1072.56H1342.83V1077.89H1379.18V1081.78H1348.04V1087.1H1379.18V1090.99H1342.83V1096.32H1379.18V1100.21H1348.04V1105.53H1379.18V1109.42H1342.83V1114.75H1379.18V1118.64H1348.04V1123.96H1379.18V1127.85H1342.83V1133.18H1379.18V1137.06H1348.04V1142.39H1379.18V1146.28H1342.83V1151.61H1379.18V1155.49H1348.04V1160.82H1379.18V1164.71H1342.83V1170.03H1379.18V1173.92H1348.04V1179.25H1379.18V1183.14H1342.83V1188.46H1379.18V1192.35H1348.04V1195.88L1356.7 1207.84V1329.84H1381.43V1435.36H1356.7V1444.31H1337.74V1278.74H1334.44V1424.97H1330.32V1278.74H1327.85V1424.97H1304.77V1444.31H1283.34V1432.58H1285.81V1346.33H1278.39V1420.11H1251.6V1413.52H1256.55V1376.42H1246.66V1455.55H1204.64L1200.81 1451.73L1197.27 1452.95V1455.19H1199.53V1457.42H1201.76V1459.66H1203.76V1461.89H1206V1464.13H1208.23V1466.3H1210.47V1468.6H1212.64V1470.36H1214.46V1472.62H1216.73V1474.83H1218.93V1477.06H1221.17V1479.3H1223.39V1481.54H1225.46V1483.63H1227.72V1485.86H1229.96V1488.1H1232.18V1490.33H1234.43V1492.57H1236.67V1494.8H1238.67V1497.04H1240.91V1499.27H1243.14V1501.45H1245.38V1503.74H1247.61L1388.15 1503.68V1505.92H1390.4V1508.15H1392.64V1510.39H1394.64V1512.62H1396.88V1514.86H1399.11V1517.03H1401.35V1519.33H1403.51V1521.08H1405.34V1523.35H1407.61V1525.56H1409.81V1527.79H1412.04V1530.03H1414.27V1532.27H1416.34V1534.36H1418.6V1536.59H1420.83V1538.83H1423.05V1541.06H1425.31V1543.3H1427.55V1545.53H1429.55V1547.77H1431.78V1550H1434.02V1552.18H1436.25V1554.47H1438.49L1438.53 1553L1439.61 1554.47V1455.61L1439.99 1455.54L1440.01 807.275H1438.25L1438.24 807.267ZM1381.41 1325.44H1360.6V1303.45H1369.1V1314.44H1373.58V1303.45H1381.41V1325.44Z" fill="url(#paint0_radial_306_9618)"/>
<path opacity="0.5" d="M1439.98 1430.2H1395.78V997.713H1423.77V911.854H1439.98V1430.2Z" fill="#010518"/>
<path d="M1416.58 1356.5V828.423H1407.57V1364.43L1439.98 1397.37V1379.91L1416.58 1356.5Z" fill="#010518"/>
<path d="M155.762 774.059H158.742V1128.3H155.762V774.059ZM205.433 575.948V725.378H208.413V575.948H205.433ZM170.43 762.602H173.35V759.741H170.43V762.602ZM173.35 759.741H176.27V756.881H173.35V759.741ZM179.182 754.013H182.103V751.152H179.182V754.013ZM176.262 756.873H179.182V754.013H176.262V756.873ZM167.51 765.462H170.43V762.602H167.51V765.462ZM158.757 774.051H161.677V771.191H158.757V774.051ZM161.677 771.191H164.597V768.33H161.677V771.191ZM164.597 768.33H167.517V765.47H164.597V768.33ZM196.695 736.835H199.616V733.975H196.695V736.835ZM182.11 751.152H185.03V748.292H182.11V751.152ZM199.616 733.975H202.536V731.114H199.616V733.975ZM193.783 739.703H196.703V736.843H193.783V739.703ZM205.456 728.246H208.376V725.386H205.456V728.246ZM202.536 731.107H205.456V728.246H202.536V731.107ZM190.863 742.564H193.783V739.703H190.863V742.564ZM185.03 748.292H187.95V745.432H185.03V748.292ZM187.95 745.432H190.87V742.571H187.95V745.432Z" fill="url(#paint1_radial_306_9618)"/>
<path d="M253.548 814.135H266.628V821.346H253.548V814.135ZM266.628 793.315H253.548V800.526H266.628V793.315ZM266.628 782.901H253.548V790.112H266.628V782.901ZM266.628 803.721H253.548V810.932H266.628V803.721ZM250.344 793.307H238.21V800.518H250.344V793.307ZM250.344 782.893H238.21V790.104H250.344V782.893ZM250.344 803.714H238.21V810.925H250.344V803.714ZM412.722 896.799V1080.96H163.316L163.301 783.229H165.387V781.024L165.483 780.927H167.673V778.737L167.77 778.64H169.96V776.584H172.247V774.297H174.534V772.01H176.761V769.723H179.108V767.503H180.903V765.634H183.22V763.31H185.477V761.06H187.756V758.773H190.051V756.494H192.338V754.378H194.476V752.069H196.763V749.782H199.049V747.51H201.336V745.201H203.623V742.914H205.91V740.858H208.197V738.571H210.484V736.284H212.711V733.997H215.058V731.71H214.693L215.013 731.382L215.058 695.202H201.023V721.058H198.9V723.367H196.651V725.654H194.401V727.71H192.151V729.997H189.902V732.284H187.712V734.571H185.403V736.79H183.637V738.66H181.365V740.984H179.145V743.234H176.903V745.521H174.646V747.8H172.396V749.916H170.296V752.225H168.046V754.512H165.796V756.784H163.547V759.093H161.297V761.38H159.047V763.436H156.798V765.723H154.548V768.01H152.358V770.297H150.049L149.967 1136.65H92.0867L93.1743 1397.8H90.9023V1400.1H88.6005V1402.17H86.2987V1404.47H83.9969V1406.77H81.7547V1409.07H79.3933V1411.31H77.5832V1413.18H75.259V1415.52H72.987V1417.79H70.6927V1420.09H68.3834V1422.38H66.0816V1424.51H63.9288V1426.83H61.627V1429.12H59.3252V1431.41H57.0234V1433.73H54.7216V1436.03H52.4198V1438.09H50.118V1440.39H47.8163V1442.7H45.5741V1442.73H45.4325V1445H43.2127V1445.06H43.1307V1447.36H40.8289V1449.42H38.5271V1451.72H36.2253V1454.03H33.9831V1456.33H31.6218V1458.56H29.8116V1460.44H27.4875V1462.78H25.2155V1465.04H22.9211V1467.35H20.6119V1469.63H18.3101V1471.76H16.1573V1474.09H13.8555V1476.38H11.5537V1478.67H9.25188V1480.99H6.95008V1483.29H4.64829V1485.35H2.34649V1487.65H1.72821L1.7878 1401.47L24.8951 1378.37V984.483L27.115 982.263V569.638H23.9565V566.435H21.1706V481.455H2.50292L2.65936 255.715H24.329V0H39.2572V66.8712H44.1885V273.266H37.0596V279.031H44.1885V289.706H37.0596V295.472H44.1885V306.146H37.0596V311.912H44.1885V322.587H37.0596V328.352H44.1885V339.027H37.0596V344.793H44.1885V355.467H37.0596V361.233H44.1885V371.908H37.0596V377.673H44.1885V388.348H37.0596V394.114H44.1885V413.228H52.5167V394.114H60.7108V388.348H52.5167V377.673H60.7108V371.908H52.5167V361.233H60.7108V355.467H52.5167V344.793H60.7108V339.027H52.5167V328.352H60.7108V322.587H52.5167V311.912H60.7108V306.146H52.5167V295.472H60.7108V289.706H52.5167V279.031H60.7108V273.266H52.5167V22.7051H66.3424L66.3871 520.042H76.22L76.1678 493.463H78.4175V495.653H80.6671V497.962H82.8497V499.728H84.6822V502H86.9691V504.22H89.1815V506.462H91.4312V508.719H93.6734V510.969H95.7517V513.069H98.0237V515.319H100.273V517.569H102.508V519.818H104.773V522.068H107.022V524.318H109.041V526.567H111.291V528.817H113.54V531.007H115.79V533.316H116.051V533.331H118.315V535.581H120.565V537.83H122.584V540.08H124.833V542.33H127.083V544.52H129.333V546.829H131.515V548.594H133.348V550.867H135.635V553.086H137.847V555.329H140.097V557.586H142.339V559.835H144.417V561.936H146.689V564.186H148.939V566.435H151.174V568.685H153.438V570.935H155.688V573.184H157.706V575.434H159.956V577.684H162.206V579.874H164.455V582.183H164.716V582.198H166.981V584.447H169.23V586.697H171.249V588.947H173.499V591.196H175.748V593.386H177.998V595.696H180.181V597.461H182.013V599.733H184.3V601.953H186.512V604.195H188.762V606.452H191.004V608.702H193.083V610.803H195.355V613.052H197.604V615.302H199.839V617.552H201.031V630.156H215.147L215.348 566.405H217.508V568.707H219.572V571.009H221.874V573.311H224.175V525.845H226.477V528.206H228.712V579.717H230.589V582.041H232.928V584.313H235.193V562.286H237.495V588.917H239.782V591.219H241.912V593.372H244.236V595.673H246.53V597.975H248.817V600.277H251.134V602.579H253.436V604.88H255.499V607.182H257.801V609.484H260.103V611.726H260.14V611.868H262.405V614.088H262.464V614.17H264.766V616.471H266.643V779.69H253.562V729.662H250.359V779.69H211.437V782.893H235.029V790.104H211.437V793.307H235.029V800.518H211.437V803.721H235.029V810.932H211.437V814.135H235.029V821.346H211.437V824.549H266.636V838.159H356.376V840.282H358.678V842.643H360.913V844.453H362.79V846.778H365.129V849.05H367.393V851.344H369.695V853.653H371.982V855.955H374.112V858.108H376.437V860.41H378.731V862.711H381.018V865.013H383.335V867.315H385.636V869.617H387.7V871.919H390.002V874.22H392.303V876.462H392.341V876.604H394.605V878.824H394.665V878.906H396.967V881.208H399.03V883.509H401.332V885.811H403.634V888.053H405.935V890.415H408.17V892.225H410.047V894.549H412.386V896.821H412.744L412.722 896.799ZM35.8901 569.631H30.5044V978.896L35.8901 973.51V569.631ZM82.1197 566.428H49.4923V569.631H43.3616V966.039L62.2155 947.185V608.836H82.1197V566.413V566.428ZM201.031 663.781H215.102L215.132 640.026H201.031V663.781ZM201.031 670.984H215.095V666.426H201.031V670.984ZM201.031 678.188H215.087V673.629H201.031V678.188ZM201.031 685.391H215.08V680.832H201.031V685.391ZM215.073 688.036H201.031V692.595H215.073V688.036ZM238.225 821.361H250.359V814.15H238.225V821.361Z" fill="url(#paint2_radial_306_9618)"/>
<path d="M254.114 814.135H267.194V821.346H254.114V814.135ZM267.194 793.315H254.114V800.526H267.194V793.315ZM267.194 782.901H254.114V790.112H267.194V782.901ZM267.194 803.721H254.114V810.932H267.194V803.721ZM250.911 793.307H238.776V800.518H250.911V793.307ZM250.911 782.893H238.776V790.104H250.911V782.893ZM250.911 803.714H238.776V810.925H250.911V803.714ZM413.288 896.799V936.101H163.882L163.867 783.229H165.953V781.024L166.05 780.927H168.24V778.737L168.336 778.64H170.527V776.584H172.813V774.297H175.1V772.01H177.328V769.723H179.674V767.503H181.469V765.634H183.786V763.31H186.043V761.06H188.323V758.773H190.617V756.494H192.904V754.378H195.042V752.069H197.329V749.782H199.616V747.51H201.902V745.201H204.189V742.914H206.476V740.858H208.763V738.571H211.05V736.284H213.277V733.997H215.624V731.71H215.259L215.579 731.382L215.624 695.202H201.59V721.058H199.467V723.367H197.217V725.654H194.967V727.71H192.718V729.997H190.468V732.284H188.278V734.571H185.969V736.79H184.203V738.66H181.931V740.984H179.711V743.234H177.469V745.521H175.212V747.8H172.962V749.916H170.862V752.225H168.612V754.512H166.362V756.784H164.113V759.093H161.863V761.38H159.614V763.436H157.364V765.723H155.114V768.01H152.924V770.297H150.615L150.533 1136.65H80.3319L79.9669 1411.3H78.1568V1413.18H75.8326V1415.51H73.5606V1417.78H71.2663V1420.08H68.957V1422.37H66.6553V1424.5H64.5024V1426.82H62.2006V1429.12H59.8988V1431.4H57.597V1433.72H55.2953V1436.02H52.9935V1438.09H50.6917V1440.39H48.3899V1442.69H46.1477V1442.73H46.0061V1444.99H43.7863V1445.05H43.7043V1447.35H41.4025V1449.42H39.1007V1451.72H36.799V1454.02H34.5567V1456.32H32.1954V1458.56H30.3852V1460.43H28.0611V1462.77H25.7891V1465.04H23.4947V1467.34H21.1855V1469.63H18.8837V1471.76H16.7309V1474.08H14.4291V1476.37H12.1273V1478.66H9.82549V1480.98H7.52369V1483.28H5.2219V1485.34H2.9201V1487.65H2.30182L2.36141 1401.47L25.4688 1378.36V984.476L27.6886 982.256V569.631H24.5302V566.428H21.7442V481.448H3.06908L3.22552 255.708H24.8952V0H39.8233V66.8712H44.7547V273.266H37.6258V279.031H44.7547V289.706H37.6258V295.472H44.7547V306.146H37.6258V311.912H44.7547V322.587H37.6258V328.352H44.7547V339.027H37.6258V344.793H44.7547V355.467H37.6258V361.233H44.7547V371.908H37.6258V377.673H44.7547V388.348H37.6258V394.114H44.7547V413.228H53.0829V394.114H61.2769V388.348H53.0829V377.673H61.2769V371.908H53.0829V361.233H61.2769V355.467H53.0829V344.793H61.2769V339.027H53.0829V328.352H61.2769V322.587H53.0829V311.912H61.2769V306.146H53.0829V295.472H61.2769V289.706H53.0829V279.031H61.2769V273.266H53.0829V22.7051H68.4281L68.4728 520.042H76.7861L76.734 493.463H78.9836V495.653H81.2333V497.962H83.4159V499.728H85.2484V502H87.5353V504.22H89.7477V506.462H91.9973V508.719H94.2395V510.969H96.3179V513.069H98.5899V515.319H100.84V517.569H103.074V519.818H105.339V522.068H107.588V524.318H109.607V526.567H111.857V528.817H114.106V531.007H116.356V533.316H116.617V533.331H118.881V535.581H121.131V537.83H123.15V540.08H125.399V542.33H127.649V544.52H129.899V546.829H132.081V548.594H133.914V550.867H136.201V553.086H138.413V555.329H140.663V557.586H142.905V559.835H144.983V561.936H147.255V564.186H149.505V566.435H151.74V568.685H154.004V570.935H156.254V573.184H158.273V575.434H160.522V577.684H162.772V579.874H165.022V582.183H165.282V582.198H167.547V584.447H169.797V586.697H171.815V588.947H174.065V591.196H176.315V593.386H178.564V595.696H180.747V597.461H182.579V599.733H184.866V601.953H187.079V604.195H189.328V606.452H191.57V608.702H193.649V610.803H195.921V613.052H198.17V615.302H200.405V617.552H201.597V630.156H215.713L215.914 566.405H218.075V568.707H220.138V571.009H222.44V573.311H224.742V575.553H227.043V577.914H229.278V579.725H231.155V582.049H233.494V584.321H235.759V586.615H238.061V588.924H240.348V591.226H242.478V593.379H244.802V595.681H247.097V597.983H249.384V600.284H251.7V602.586H254.002V604.888H256.065V607.19H258.367V609.492H260.669V611.734H260.706V611.875H262.971V614.095H263.03V614.177H265.332V616.479H267.209V779.698H254.129V729.669H250.925V779.698H212.004V782.901H235.595V790.112H212.004V793.315H235.595V800.526H212.004V803.729H235.595V810.94H212.004V814.143H235.595V821.354H212.004V824.557H267.202V838.166H356.942V840.289H359.244V842.651H361.479V844.461H363.356V846.785H365.695V849.057H367.959V851.351H370.261V853.661H372.548V855.962H374.679V858.115H377.003V860.417H379.297V862.719H381.584V865.021H383.901V867.322H386.202V869.624H388.266V871.926H390.568V874.228H392.87V876.47H392.907V876.612H395.171V878.831H395.231V878.913H397.533V881.215H399.596V883.517H401.898V885.819H404.2V888.061H406.501V890.422H408.736V892.232H410.613V894.557H412.952V896.829H413.31L413.288 896.799ZM36.4488 569.631H31.0631V978.896L36.4488 973.51V569.631ZM82.6784 566.428H50.051V569.631H43.9204V966.039L62.7742 947.185V608.836H82.6784V566.413V566.428ZM201.59 663.781H215.661L215.691 640.026H201.59V663.781ZM201.59 670.984H215.654V666.426H201.59V670.984ZM201.59 678.188H215.646V673.629H201.59V678.188ZM201.59 685.391H215.639V680.832H201.59V685.391ZM215.631 688.036H201.59V692.595H215.631V688.036ZM238.783 821.361H250.918V814.15H238.783V821.361Z" fill="url(#paint3_radial_306_9618)"/>
<path d="M42.1102 1386.07V1388.3H39.868V1390.54H37.6183V1392.77H35.3985V1395.01H33.1637V1397.24H30.9066V1399.33H28.8357V1401.57H26.6159V1403.81H24.3737V1406.04H22.1762V1408.25H19.9042V1410.51H18.0791V1412.27H15.9114V1414.55L15.8891 1414.56H13.6767V1416.74H11.4419V1418.98H9.20717V1421.21H7.1959V1423.25L7.00967 1423.45H4.96114V1425.5L4.77491 1425.68H2.71149V1427.75L2.54016 1427.92V1417.73H5.46024V1415.46H7.28529V1413.7H9.453V1411.41H11.6877V1409.23H13.9225V1407H16.1573V1404.77H18.1611V1402.61L18.2505 1402.53H20.3958V1400.38L20.4852 1400.3H22.6529V1398.12L22.72 1398.05H24.8728V1395.9L24.9547 1395.82H27.1075V1393.67L27.1895 1393.58H29.3646V1391.5H31.4355V1389.35L31.5175 1389.26H33.6554V1387.12L33.7597 1387.02H35.8976V1384.88L35.987 1384.79H37.2831L37.149 1383.63V655.788H43.9874V1386.07H42.1102Z" fill="url(#paint4_radial_306_9618)"/>
<path d="M94.8504 566.428H76.9724V608.918H94.8504V566.428Z" fill="#010518"/>
<path d="M174.698 625.656V623.422H172.463V621.187H170.452V618.952H168.217V616.717H165.983V614.542H163.748V612.24H161.58V610.482H159.755V608.225H157.483V606.013H155.286V603.785H153.043V601.543H150.823V599.309H148.753V597.215H146.495V594.981H144.261V592.746H142.041V590.511H139.784V588.276H137.549V586.042H135.545V583.807H133.31V581.565H131.076V579.389H128.841V577.095H126.599L126.472 629.113H172.873V745.618H176.948V629.113V625.656H174.698Z" fill="#010518"/>
<path d="M24.3216 255.7H17.5056V568.327H24.3216V255.7Z" fill="#010518"/>
<path d="M172.396 629.627H126.472V747.815H172.396V629.627Z" fill="url(#paint5_linear_306_9618)"/>
<path d="M250.352 729.677V629.627H215.147V626.87H253.548V729.677H250.352Z" fill="#010518"/>
<path d="M78.6409 1154.82V1170.57H69.7466V1148.01H63.9884V1136.51H58.2302V1142.64H49.5444V1148.01H58.2302V1227.72H63.9884V1216.21H69.7466V1193.65H78.6409V1209.4H92.0867V1154.82H78.6409Z" fill="#010518"/>
<path opacity="0.5" d="M150.533 1119.07H130.919V1080.96H103.752V1098.86H88.3398V1043.86H58.3643V1405.03L55.0494 1405V1424.88H30.5044V1458.56H32.2103V1456.33H34.5716V1454.03H36.8064V1451.72H39.1082V1449.43H41.41V1447.36H43.7118V1445.06H43.7937V1445.01H46.0136V1442.74H46.1551V1442.7H48.3973V1440.4H50.6917V1438.1H52.9935V1436.04H55.2952V1433.74H57.597V1431.41H59.8988V1429.13H62.2006V1426.83H64.5024V1424.51H66.6478V1422.38H68.9496V1420.09H71.2588V1417.79H73.5532V1415.52H75.8252V1413.18H78.1568V1411.31H79.9669L80.3319 1136.65H150.526L150.533 1119.07Z" fill="#010518"/>
<path d="M1413.59 828.423H1410.56V1361.9H1413.59V828.423Z" fill="url(#paint6_radial_306_9618)"/>
<path opacity="0.5" d="M1378.69 899.644L1379.16 868.276H1376.94V870.473H1374.72V872.708H1372.47V874.935H1370.24V877.006H1368.15V879.263H1365.91V881.498H1363.68V883.718H1361.44V885.975H1359.21V888.21H1356.97V890.214H1354.74V892.449H1352.5V894.683H1350.33V896.918H1348.03V902.81V1018.51H1378.7V964.244H1387.15V899.637H1378.7L1378.69 899.644ZM1366.15 1015.52H1359.62V916.48H1366.15V1015.52Z" fill="#010518"/>
<path d="M1227.7 1484.13V1485.83H1229.93V1488.08H1232.15V1490.31H1234.41V1492.55H1236.64V1494.78H1238.65V1497.02H1240.88V1499.25H1243.12V1501.43H1245.35V1503.72H1247.6L1388.13 1503.66V1505.9H1390.38V1508.14H1392.62V1510.37H1394.63V1512.61H1396.86V1514.84H1399.1V1517.02H1401.33V1519.31H1403.5V1521.07H1405.32V1523.33H1407.6V1525.54H1409.79V1527.77H1412.04V1530.02H1414.26V1532.25H1416.33V1534.34H1418.58V1536.58H1420.82V1538.81H1423.04V1541.05H1425.29V1543.28H1427.53V1545.52H1429.53V1547.75H1431.77V1549.99H1434V1552.16H1436.24V1554.46H1438.47L1438.51 1552.99L1439.6 1554.46V1484.13H1227.7Z" fill="url(#paint7_linear_306_9618)"/>
<path d="M1364.99 1294.93H1360.88V1299.04H1364.99V1294.93Z" fill="#010518"/>
<path d="M1373.2 1294.93H1369.09V1299.04H1373.2V1294.93Z" fill="#010518"/>
<path d="M1377.3 1290.83H1373.2V1294.93H1377.3V1290.83Z" fill="#010518"/>
<path d="M1369.09 1290.83H1364.99V1294.93H1369.09V1290.83Z" fill="#010518"/>
<path d="M1381.4 1294.93H1377.3V1299.04H1381.4V1294.93Z" fill="#010518"/>
<path d="M1373.2 1286.73H1369.09V1290.83H1373.2V1286.73Z" fill="#010518"/>
<path d="M1369.09 1282.62H1364.99V1286.73H1369.09V1282.62Z" fill="#010518"/>
<path d="M1381.4 1286.73H1377.3V1290.83H1381.4V1286.73Z" fill="#010518"/>
<path d="M1373.2 1278.52H1369.09V1282.62H1373.2V1278.52Z" fill="#010518"/>
<path d="M1369.09 1274.41H1364.99V1278.52H1369.09V1274.41Z" fill="#010518"/>
<path d="M1381.4 1278.52H1377.3V1282.62H1381.4V1278.52Z" fill="#010518"/>
<path d="M1364.99 1270.31H1360.88V1274.41H1364.99V1270.31Z" fill="#010518"/>
<path d="M1373.2 1270.31H1369.09V1274.41H1373.2V1270.31Z" fill="#010518"/>
<path d="M1377.3 1266.2H1373.2V1270.31H1377.3V1266.2Z" fill="#010518"/>
<path d="M1364.99 1262.1H1360.88V1266.2H1364.99V1262.1Z" fill="#010518"/>
<path d="M1377.3 1258H1373.2V1262.11H1377.3V1258Z" fill="#010518"/>
<path d="M1369.09 1258H1364.99V1262.11H1369.09V1258Z" fill="#010518"/>
<path d="M1369.09 1249.79H1364.99V1253.9H1369.09V1249.79Z" fill="#010518"/>
<path d="M122.74 577.095H119.351V580.484H122.74V577.095Z" fill="#010518"/>
<path d="M122.74 583.866H119.351V587.256H122.74V583.866Z" fill="#010518"/>
<path d="M112.572 577.095V580.484H115.961V577.095H112.572Z" fill="#010518"/>
<path d="M112.579 570.324V573.713H115.969V570.324H112.579Z" fill="#010518"/>
<path d="M243.946 633.374V636.763H247.335V633.374H243.946Z" fill="#010518"/>
<path d="M243.946 774.051V777.441H247.335V774.051H243.946Z" fill="#010518"/>
<path d="M88.0716 539.73V543.119H91.461V539.73H88.0716Z" fill="#010518"/>
<path d="M91.4609 543.112V567.486H94.8503V543.112H91.4609Z" fill="#010518"/>
<path d="M115.961 583.866H112.572V587.256H115.961V583.866Z" fill="#010518"/>
<path d="M501.65 900.367H144.328L87.8035 843.843V620.524L38.3856 571.106H2.4657V544.043H49.5966L114.874 609.313V832.632L155.539 873.304H512.861L602.825 963.126V1001.4L501.65 900.367Z" fill="#010518"/>
<path d="M511.572 876.418H154.25L111.76 833.92V610.877L110.62 611.607V609.462L110.531 609.372H108.386V607.227L108.296 607.138H106.374V605.223L106.061 604.903H104.139V602.988L103.819 602.668H101.89V600.731L101.584 600.433H99.67V598.511L99.3497 598.199H97.4352V596.277L97.1149 595.964H95.1781V594.02L95.0292 593.871H93.1073V591.949L92.7869 591.636H90.88V589.729L90.5522 589.394H88.6452V587.487L88.3174 587.166H86.4477V585.289L86.1125 584.954H84.1757V583.017L83.8479 582.689H82.3507V581.192L82.0899 580.931H80.1829V579.024L79.7956 578.637H77.9482V576.79L77.6204 576.462H75.7134V574.555L75.3857 574.227H73.4712V572.32L73.1509 571.992H71.4674V570.309L70.9087 569.758H69.2327V568.074L68.674 567.523H66.9756V565.825L66.4392 565.288H64.7557V563.605L64.2045 563.046H62.5284V561.37L61.9697 560.811H60.2639V559.113L59.8765 558.725H58.2004V557.042L57.6417 556.491H55.9731V554.815L55.3995 554.248H53.7384V552.58L53.1722 552.014H51.5334V550.382L50.9598 549.809H49.2689V548.11L48.7027 547.544H47.4438V547.149H2.4657V568H39.6743L40.6502 568.975V568.901H42.8849V571.195H45.1197V573.371H47.3619V575.605H49.5966V577.84H51.6005V579.926L51.7569 580.075H53.8352V582.161L53.9916 582.31H56.0923V584.41L56.2264 584.552H58.3122V586.63L58.4612 586.786H60.5469V588.865L60.6959 589.021H62.804V591.107H64.8674V593.193L65.0239 593.342H67.0947V595.42L67.2661 595.584H69.3295V597.655L69.4934 597.819H71.5345V599.852L71.7058 600.024H73.799V602.124L73.9629 602.288H75.624V603.949L75.7209 604.046H77.7992V606.117L78.0227 606.341H80.034V608.352L80.1978 608.516H82.2687V610.587L82.4326 610.75H84.5035V612.821L84.6674 612.985H86.5073V614.833L86.9021 615.22H88.742V617.067L89.1369 617.462H90.9991V619.697L90.9172 619.727V842.554L145.617 897.261H502.939L602.825 997.139V967.663L511.572 876.418Z" fill="url(#paint8_radial_306_9618)"/>
<path d="M600.724 997.139L500.845 897.261H143.523L88.8165 842.554V619.235L37.5811 568H0.372437V547.149H46.2147L109.659 610.601V833.92L152.157 876.418H509.479L600.724 967.663V997.139Z" fill="url(#paint9_radial_306_9618)"/>
<path d="M509.479 876.418H154.176L153.274 877.96H151.062V875.74H149.073V873.528H146.86V871.315H144.626V869.103H142.428V866.89H140.223V864.671H137.981V862.6H135.933V860.387H133.728V858.167H131.515V855.962H129.34V853.772H127.09V851.538H125.28V849.795H123.135V847.522H120.922V845.362H118.71V843.15H116.49V840.937H114.509V838.77L114.464 838.725H112.296V836.55L112.252 836.513H110.062V834.323L109.659 833.92V610.601L46.2147 547.149H0.372437V568H37.5811L88.8165 619.235V842.554L89.1368 842.874L90.6341 842.301V844.371L90.7756 844.513H92.8465V846.584L92.9955 846.733H94.8354V848.573L95.2079 848.945H97.0478V850.785L97.4203 851.158H99.2826V853.02L99.6327 853.37H101.48V855.217L101.845 855.583H103.685V857.43L104.065 857.802H105.927V859.665L106.128 859.866H107.976V861.713L108.348 862.086H110.181V863.918L110.561 864.306H112.393V866.131L112.773 866.51H114.568V868.306L114.963 868.701H116.818V870.555L117.198 870.935H118.628V872.365L118.941 872.678H120.773V874.511L121.213 874.95H122.986V876.723L123.366 877.111H125.198V878.936L125.586 879.323H127.411V881.156L127.798 881.535H129.4V883.137L130.01 883.748H131.612V885.357L132.223 885.96H133.847V887.584L134.435 888.173H136.044V889.782L136.655 890.393H138.257V891.994L138.867 892.605H140.491V894.229L140.938 894.676H142.54V896.277L143.151 896.888H144.745V897.261H500.845L600.724 997.139V967.663L509.479 876.418Z" fill="url(#paint10_radial_306_9618)"/>
<path d="M600.351 997.139L500.473 897.261H143.151L88.4515 842.554V619.235L37.2086 568H0V547.149H45.8422L109.294 610.601V833.92L151.784 876.418H509.106L600.351 967.663V997.139Z" fill="url(#paint11_radial_306_9618)"/>
<path d="M600.351 997.139L500.473 897.261H143.151L88.4515 842.554V619.235L37.2086 568H0V547.149H45.8422L109.294 610.601V833.92L151.784 876.418H509.106L600.351 967.663V997.139Z" fill="url(#paint12_radial_306_9618)"/>
<path d="M600.351 997.139L500.473 897.261H143.151L88.4515 842.554V619.235L37.2086 568H0V547.149H45.8422L109.294 610.601V833.92L151.784 876.418H509.106L600.351 967.663V997.139Z" fill="url(#paint13_radial_306_9618)"/>
<path d="M600.351 997.713L500.473 897.834H143.151L88.4515 843.135V619.809L37.2086 568.573H0V547.73H45.8422L109.294 611.175V834.494L151.784 876.992H509.106L600.351 968.236V997.713Z" fill="url(#paint14_radial_306_9618)"/>
<path d="M89.0177 843.232L109.801 834.546L109.183 833.92V833.086L88.3398 841.72V842.554L89.0177 843.232Z" fill="#010518"/>
<path d="M146.577 897.261L154.935 876.418H154.25L153.52 875.68L145.028 896.665L145.616 897.261H146.577Z" fill="#010518"/>
<path d="M503.415 897.737L512.131 876.895L511.572 876.418L510.447 876.448L501.814 897.261H502.938L503.415 897.737Z" fill="#010518"/>
<path d="M600.165 990.264L503.914 894.013L146.682 893.566L146.503 893.387L93.7777 841.332V618.028L40.4714 564.722H2.4657V563.478H40.9854L95.0217 617.514V840.811L147.196 892.322L504.428 892.769L601.044 989.385L600.165 990.264Z" fill="#010518"/>
<path d="M2.4657 544.043H49.5966L114.866 609.313V697.995H214.052V499.192H2.4657V544.043Z" fill="url(#paint15_radial_306_9618)"/>
<path d="M144.328 900.367H2.4657V571.106H38.3856L87.8035 620.524V843.843L144.328 900.367Z" fill="url(#paint16_radial_306_9618)"/>
<path d="M114.874 832.632V776.331H602.824V963.126L512.861 873.304H155.539L114.874 832.632Z" fill="url(#paint17_radial_306_9618)"/>
<path d="M602.825 1001.4L501.65 900.367H144.328L87.8035 843.843H2.4657V1001.4H602.825Z" fill="url(#paint18_radial_306_9618)"/>
<path d="M602.825 1001.4L501.65 900.367H144.328L87.8035 843.843H2.4657V1001.4H602.825Z" fill="url(#paint19_radial_306_9618)"/>
<path d="M155.427 892.352H460.314V879.025H155.427V892.352Z" fill="url(#paint20_radial_306_9618)"/>
<path d="M92.9806 619.429V786.715H109.16V612.732L92.9806 619.429Z" fill="url(#paint21_radial_306_9618)"/>
<path d="M111.231 610.073L48.9187 548.475L42.5199 564.946L94.5524 616.978L111.231 610.073Z" fill="url(#paint22_radial_306_9618)"/>
<path d="M602.825 986.33L505.553 889.484H149.43L99.5284 839.582V776.331H106.374V836.744L152.261 882.638H508.391L602.825 977.071V986.33Z" fill="url(#paint23_radial_306_9618)"/>
<path d="M602.825 986.33L505.553 889.484H149.43L99.5284 839.582V776.331H106.374V836.744L152.261 882.638H508.391L602.825 977.071V986.33Z" fill="url(#paint24_radial_306_9618)"/>
<path d="M102.389 614.46V612.225H100.154V609.991H97.9045V607.756H95.6846V605.521H93.4499V603.286H91.1928V601.193H89.1219V598.958H86.8946V596.716H84.6599V594.489H82.4623V592.276H80.1903V590.012H78.3653V588.254H76.1976V585.982L76.1752 585.96H73.9628V583.784H71.7281V581.55H69.4859V579.315H67.4821V577.266L67.2958 577.08H65.2473V575.032L65.0536 574.845H62.9902V572.782L62.8189 572.611H60.7704V570.555L60.5841 570.368H58.543V568.327L58.3494 568.134H56.2785V566.07L56.2636 566.048H54.2151V563.999L54.0214 563.813H51.9878V561.772L51.7866 561.571H49.753V559.537L49.5519 559.336H47.5481V557.34L47.3469 557.131H45.2835V555.068L43.3095 553.094H0.372437V559.94H40.4788L42.2442 561.712L42.7806 560.617H43.5404V562.852H45.7752V565.087H48.0323V567.322H50.2521V569.556H52.4794V571.791H54.7365V573.884H56.8074V576.119H59.0347V578.361H61.2694V580.589H63.4669V582.801H65.7389V585.066H67.564V586.816H69.7317V589.118H71.9665V591.293H74.2087V593.528H76.4434V595.763H78.4472V597.915L78.5366 597.997H80.682V600.15L80.7714 600.232H82.9391V602.4L83.0061 602.467H85.159V604.62L85.2409 604.702H87.3937V606.854L87.4756 606.944H89.6508V609.03H91.7142V611.182L91.8036 611.264H93.9415V613.41L94.0384 613.507H96.1763V615.644L96.2731 615.734H98.3812L97.0255 616.486L97.4277 616.896V739.025H104.274V614.46H102.389Z" fill="url(#paint25_radial_306_9618)"/>
<path d="M90.9172 620.285L111.76 611.659V610.601L111.231 610.073L90.3809 618.706L90.9172 619.235V620.285Z" fill="#010518"/>
<path d="M40.5682 568.901L48.9187 547.768L48.3079 547.149L47.2576 547.172L39.056 568H39.6743L40.5682 568.901Z" fill="#010518"/>
<path d="M602.824 963.126V1001.4L1069.98 1468.55H1440V1439.2H1082.13L602.824 963.126Z" fill="#010518"/>
<path d="M1010.4 1372.82H1010V1372.44L1010.4 1372.82ZM974.918 1337.48V1337.61H975.06L974.918 1337.48ZM1045.1 1407.39V1407.77H1045.48L1045.1 1407.39ZM1082.13 1444.28L1077.66 1444.35V1442.06H1075.42V1439.88H1073.19V1437.65H1070.95V1435.41H1068.95V1433.18H1066.71V1430.94H1064.46V1428.71H1062.24V1426.47H1060V1424.24H1057.75V1422.14H1055.67V1419.91H1053.45V1417.67H1051.21V1415.44H1049.02V1413.23H1046.74V1410.96H1044.92V1409.41H1042.82L1042.81 1407.11H1040.58L1040.56 1404.94H1038.33L1038.31 1402.7H1036.08L1036.06 1400.47H1034.06L1034.04 1398.23H1031.81L1031.79 1396H1029.54L1029.52 1393.76H1027.3L1027.29 1391.53H1025.05L1025.04 1389.29H1022.78L1022.76 1387.2H1020.69L1020.68 1384.97H1018.45L1018.44 1382.72H1016.2L1016.19 1380.5H1013.99L1013.97 1378.28H1011.7L1011.69 1376.02H1009.86L1009.85 1374.2H1007.76L1007.75 1371.91H1005.51L1005.5 1369.73H1003.26L1003.25 1367.5H1001.01L1001 1365.26H998.994L998.979 1363.03H996.744L996.729 1360.79H994.472L994.457 1358.56H992.238L992.223 1356.32H989.988L989.973 1354.09H987.716L987.701 1352H985.63L985.615 1349.76H983.388L983.373 1347.52H981.138L981.123 1345.29H978.926L978.911 1343.08H976.639L976.624 1340.81H974.799L974.784 1339H972.698L972.683 1336.7H970.449L970.434 1334.53H968.199L968.184 1332.29H965.949L965.934 1330.06H963.931L963.916 1327.82H961.681L961.666 1325.59H959.409L959.394 1323.35H957.174L957.159 1321.12H954.925L954.91 1318.88H952.653L952.638 1316.79H950.567L950.552 1314.56H948.325L948.31 1312.31H946.075L946.06 1310.09H943.863L943.848 1307.87H941.576L941.561 1305.61H939.736V1304.2H937.732L937.717 1301.91H935.482L935.467 1299.73H933.233L933.218 1297.5H930.983L930.968 1295.26H928.964L928.949 1293.03H926.715L926.7 1290.79H924.443L924.428 1288.56H922.208L922.193 1286.32H919.958L919.943 1284.09H917.686L917.671 1282H915.6L915.586 1279.76H913.358L913.343 1277.52H911.109L911.094 1275.29H908.896L908.881 1273.08H906.609L906.594 1270.81H904.769L904.754 1268.92H902.631L902.616 1266.63H900.382L900.367 1264.45H898.132L898.117 1262.22H895.882L895.868 1259.98H893.864L893.849 1257.75H891.614L891.599 1255.51H889.342L889.327 1253.28H887.107L887.092 1251.04H884.858L884.843 1248.81H882.586L882.571 1246.72H880.5L880.485 1244.48H878.258L878.243 1242.24H876.008L875.993 1240.01H873.796L873.781 1237.8H871.509L871.494 1235.54H869.669V1234.24H867.874L867.859 1231.94H865.624L865.609 1229.77H863.374L863.359 1227.53H861.125L861.11 1225.3H859.106L859.091 1223.07H856.856L856.841 1220.83H854.584L854.569 1218.6H852.349L852.335 1216.36H850.1L850.085 1214.13H847.828L847.813 1212.03H845.742L845.727 1209.8H843.5L843.485 1207.56H841.25L841.235 1205.33H839.038L839.023 1203.12H836.751L836.736 1200.85H834.911L834.896 1199.09H832.706L832.691 1196.79H830.456L830.441 1194.62H828.207L828.192 1192.38H825.957L825.942 1190.15H823.938L823.923 1187.91H821.689L821.674 1185.68H819.417L819.402 1183.44H817.182L817.167 1181.21H814.932L814.917 1178.97H812.66L812.645 1176.88H810.575L810.56 1174.65H808.332L808.317 1172.4H806.083L806.068 1170.18H803.87L803.855 1167.96H801.583L801.568 1165.7H799.743L799.728 1164.08H797.747L797.732 1161.79H795.497L795.482 1159.61H793.248L793.233 1157.38H790.998L790.983 1155.14H788.979L788.964 1152.91H786.73L786.715 1150.67H784.458L784.443 1148.44H782.223L782.208 1146.2H779.973L779.958 1143.97H777.701L777.686 1141.88H775.616L775.601 1139.64H773.373L773.358 1137.4H771.124L771.109 1135.17H768.911L768.896 1132.96H766.624L766.609 1130.7H764.784L764.77 1129.12H762.803L762.788 1126.82H760.553L760.538 1124.65H758.304L758.289 1122.41H756.054L756.039 1120.18H754.035L754.02 1117.94H751.786L751.771 1115.71H749.514L749.499 1113.47H747.279L747.264 1111.24H745.029L745.014 1109H742.757L742.742 1106.91H740.671L740.657 1104.68H738.429L738.414 1102.43H736.18L736.165 1100.21H733.967L733.952 1097.99H731.68L731.665 1095.73H729.84L729.825 1094.19H727.889L727.874 1091.89H725.639L725.624 1089.72H723.389L723.374 1087.48H721.14L721.125 1085.25H719.121L719.106 1083.01H716.871L716.856 1080.78H714.599L714.584 1078.54H712.365L712.35 1076.31H710.115L710.1 1074.07H707.843L707.828 1071.98H705.757L705.742 1069.75H703.515L703.5 1067.5H701.265L701.25 1065.28H699.053L699.038 1063.06H696.766L696.751 1060.8H694.926L694.911 1059.1H692.878L692.863 1056.81H690.628L690.613 1054.63H688.378L688.363 1052.4H686.129L686.114 1050.16H684.11L684.095 1047.93H681.86L681.845 1045.69H679.588L679.573 1043.46H677.353L677.339 1041.22H675.104L675.089 1038.99H672.832L672.817 1036.9H670.746L670.731 1034.66H668.504L668.489 1032.42H666.254L666.239 1030.19H664.042L664.027 1027.98H661.755L661.74 1025.71H659.915L659.9 1023.95H657.837L657.822 1021.65H655.587L655.572 1019.48H653.337L653.322 1017.24H651.088L651.073 1015.01H649.069L649.054 1012.77H646.819L646.804 1010.54H644.547L644.532 1008.31H642.313L642.298 1006.07H640.063L640.048 1003.84H637.791L637.776 1001.74H635.705L635.69 999.508H633.463L633.448 997.266H631.213L631.198 995.038H629.001L628.986 992.826H626.714L626.699 990.562H624.874V989.25H623.123L623.109 986.956H620.874L620.859 984.781H618.624L618.609 982.546H616.375L616.36 980.311H614.356L614.341 978.077H612.106L612.091 975.842H609.834L609.819 973.607H607.599L607.585 971.372H605.35L605.335 969.138H603.078V969.071V994.569H603.212V996.864H605.447V999.039H607.681V1001.27H609.916V1003.51H611.92V1005.74H614.155V1007.98H616.412V1010.21H618.632V1012.45H620.866V1014.68H623.123V1016.78H625.194V1019.01H627.422V1021.24H629.656V1023.47H631.854V1025.68H634.118V1027.94H635.944V1029.5H638.037L638.052 1031.79H640.286L640.301 1033.97H642.536L642.551 1036.2H644.786L644.801 1038.44H646.804L646.819 1040.65L646.842 1040.67H649.054L649.069 1042.9H651.319L651.333 1045.13H653.553L653.568 1047.37H655.803L655.818 1049.6H658.075L658.09 1051.7H660.161L660.176 1053.93H662.403L662.418 1056.17H664.653L664.668 1058.4H666.865L666.88 1060.61H669.152L669.167 1062.88H670.992L671.007 1064.7H673.093L673.107 1066.95L673.145 1066.99H675.342L675.357 1069.17H677.592L677.607 1071.4H679.841L679.856 1073.63H681.86L681.875 1075.73L682.017 1075.87H684.117L684.132 1077.99L684.251 1078.1H686.382L686.397 1080.25L686.486 1080.34H688.624L688.639 1082.49L688.721 1082.57H690.866L690.881 1084.74L690.956 1084.82H693.146L693.161 1086.91H695.231L695.246 1089.11L695.284 1089.14H697.474L697.489 1091.35L697.526 1091.39H699.723L699.738 1093.61L699.753 1093.62H701.936L701.951 1095.83H701.958L704.223 1095.83L704.238 1098.1H706.063L706.077 1099.92H708.163L708.178 1102.06L708.327 1102.21H710.413L710.428 1104.31L710.502 1104.38H712.663L712.677 1106.56L712.737 1106.62H714.912L714.927 1108.82L714.972 1108.86H716.938L716.953 1110.84L717.207 1111.1H719.188L719.203 1113.09L719.441 1113.33H721.46L721.475 1115.37L721.676 1115.57H723.695L723.71 1117.6L723.911 1117.8H725.944L725.959 1119.85L726.146 1120.04H728.216L728.231 1122.12H730.295L730.31 1124.2L730.466 1124.36H732.537L732.552 1126.44L732.701 1126.59H734.787L734.801 1128.69L734.936 1128.83H737.006L737.021 1130.91L737.148 1131.04H739.293L739.308 1133.21L739.405 1133.3H741.133V1134.71H743.137L743.152 1137H745.387L745.402 1139.18H747.636L747.651 1141.41H749.886L749.901 1143.65H751.905L751.92 1145.82L751.979 1145.88H754.154L754.169 1148.07L754.214 1148.12H756.426L756.441 1150.35H756.449L758.661 1150.35L758.676 1152.58H760.903L760.918 1154.82H763.175L763.19 1156.91H765.261L765.276 1159.14H767.503L767.518 1161.39H769.753L769.768 1163.61H771.965L771.98 1165.83H774.252L774.267 1168.09H776.092L776.107 1169.98H778.23L778.245 1172.17L778.357 1172.28H780.487L780.502 1174.43L780.532 1174.46H782.737L782.752 1176.68L782.767 1176.69H784.987L785.002 1178.93H787.005L787.02 1180.95L787.229 1181.16H789.255L789.27 1183.2L789.464 1183.4H791.527L791.542 1185.48L791.698 1185.63H793.762L793.777 1187.71L793.933 1187.87H796.011L796.026 1189.96L796.168 1190.1H798.283L798.298 1192.2H800.369L800.384 1194.32L800.496 1194.43H802.611L802.626 1196.56L802.738 1196.67H804.868L804.883 1198.82L804.973 1198.91H807.088L807.103 1201.04L807.185 1201.12H809.375L809.39 1203.32L809.442 1203.38H811.215V1204.67H813.01L813.025 1206.96H813.033L815.26 1206.97L815.275 1209.14H817.51L817.525 1211.38H819.759L819.774 1213.61H821.778L821.793 1215.74L821.905 1215.85H824.028L824.043 1217.98L824.139 1218.08H826.3L826.315 1220.26L826.374 1220.32H828.534L828.549 1222.49L828.609 1222.55H830.784L830.799 1224.74L830.844 1224.79H833.056L833.071 1226.88H835.142L835.157 1229.11H835.164L837.377 1229.11L837.392 1231.35H837.399L839.626 1231.36L839.641 1233.58H841.839L841.854 1235.8H844.126L844.14 1238.06H845.966L845.98 1239.83H848.17L848.185 1242.12H850.42L850.435 1244.3H852.67L852.685 1246.53H854.919L854.934 1248.76H856.938L856.953 1250.93L857.028 1251H859.188L859.203 1253.17L859.262 1253.23H861.46L861.475 1255.45L861.497 1255.47H863.695L863.709 1257.68L863.732 1257.7H865.944L865.959 1259.93H868.209L868.224 1262.02H870.295L870.309 1264.26H872.537L872.552 1266.5H874.786L874.801 1268.73H876.999L877.014 1270.94H879.286L879.301 1273.21H881.126L881.141 1274.82H883.122L883.137 1277.12H885.372L885.387 1279.29H887.621L887.636 1281.53H889.871L889.886 1283.76H891.89L891.905 1285.91L892.001 1286H894.147L894.162 1288.16L894.236 1288.24H896.411L896.426 1290.44L896.471 1290.48H898.654L898.668 1292.68L898.706 1292.71H900.896L900.911 1294.93L900.933 1294.95H903.168L903.183 1297.04H905.254L905.268 1299.28H907.496L907.511 1301.52H909.745L909.76 1303.75H911.958L911.973 1305.96H914.245L914.26 1308.22H916.085L916.1 1309.8H918.066L918.081 1312.1H920.316L920.331 1314.27H922.565L922.58 1316.51H924.815L924.83 1318.74H926.834L926.849 1320.89L926.938 1320.98H929.083L929.098 1323.14L929.165 1323.21H931.348L931.363 1325.41L931.4 1325.45H933.583L933.598 1327.65L933.635 1327.69H935.832L935.847 1329.9L935.87 1329.92H938.104L938.119 1332.02H940.19L940.205 1334.25H942.432L942.447 1336.49H944.682L944.697 1338.72H946.894L946.909 1340.93H949.181L949.196 1343.2H951.021L951.036 1344.74H952.973L952.988 1347.03H955.223L955.237 1349.21H957.472L957.487 1351.44H959.722L959.737 1353.68H961.741L961.755 1355.83L961.837 1355.91H963.99L964.005 1358.08L964.072 1358.15H966.262L966.277 1360.35L966.307 1360.38H968.497L968.512 1362.59L968.542 1362.62H970.747L970.762 1364.84L970.776 1364.85H973.019L973.034 1366.95H975.104L975.119 1369.18H977.347L977.362 1371.42H979.596L979.611 1373.65H981.809L981.824 1375.86H984.096L984.11 1378.13H985.936L985.95 1379.83H987.984L987.999 1382.08L988.036 1382.12H990.234L990.249 1384.3H992.483L992.498 1386.53H994.733L994.748 1388.76H996.752L996.767 1390.86L996.908 1391H999.009L999.024 1393.11L999.143 1393.23H1001.27L1001.29 1395.38L1001.38 1395.47H1003.52L1003.53 1397.62L1003.61 1397.7H1005.76L1005.77 1399.87L1005.85 1399.95H1008.04L1008.05 1402.04H1010.12L1010.14 1404.24L1010.18 1404.27H1012.37L1012.38 1406.48L1012.42 1406.52H1014.61L1014.63 1408.74L1014.64 1408.75H1016.83L1016.84 1410.96H1016.85L1019.11 1410.96L1019.13 1413.23H1020.95L1020.97 1414.99H1023.03L1023.05 1417.16L1023.17 1417.29H1025.29L1025.3 1419.42L1025.35 1419.46H1027.54L1027.55 1421.67L1027.58 1421.7H1029.79L1029.8 1423.92L1029.82 1423.93H1031.82L1031.83 1425.94L1032.06 1426.17H1034.07L1034.09 1428.2L1034.3 1428.41H1036.34L1036.35 1430.47L1036.53 1430.65H1038.58L1038.59 1432.71L1038.77 1432.89H1040.82L1040.84 1434.96L1041 1435.13H1043.1L1043.12 1437.22H1045.19L1045.2 1439.33L1045.33 1439.46H1047.43L1047.44 1441.57L1047.57 1441.7H1049.68L1049.69 1443.83L1049.8 1443.93H1051.9L1051.91 1446.05L1052.01 1446.15H1054.18L1054.2 1448.34L1054.27 1448.4H1056.02V1449.71H1057.78L1057.79 1451.93L1057.87 1452.01H1060.03L1060.04 1454.18H1062.27L1062.28 1456.41H1064.52L1064.53 1458.65H1066.54L1066.55 1460.69L1066.74 1460.88H1068.79L1068.8 1462.94L1068.97 1463.11H1071.06V1464.4L1440.02 1464.91V1444.33H1082.16L1082.13 1444.28Z" fill="url(#paint26_radial_306_9618)"/>
<path d="M1010.4 1372.82H1010V1372.44L1010.4 1372.82ZM974.918 1337.48V1337.61H975.06L974.918 1337.48ZM1045.1 1407.39V1407.77H1045.48L1045.1 1407.39ZM1082.13 1444.28L1077.66 1444.35V1442.06H1075.42V1439.88H1073.19V1437.65H1070.95V1435.41H1068.95V1433.18H1066.71V1430.94H1064.46V1428.71H1062.24V1426.47H1060V1424.24H1057.75V1422.14H1055.67V1419.91H1053.45V1417.67H1051.21V1415.44H1049.02V1413.23H1046.74V1410.96H1044.92V1409.41H1042.82L1042.81 1407.11H1040.58L1040.56 1404.94H1038.33L1038.31 1402.7H1036.08L1036.06 1400.47H1034.06L1034.04 1398.23H1031.81L1031.79 1396H1029.54L1029.52 1393.76H1027.3L1027.29 1391.53H1025.05L1025.04 1389.29H1022.78L1022.76 1387.2H1020.69L1020.68 1384.97H1018.45L1018.44 1382.72H1016.2L1016.19 1380.5H1013.99L1013.97 1378.28H1011.7L1011.69 1376.02H1009.86L1009.85 1374.2H1007.76L1007.75 1371.91H1005.51L1005.5 1369.73H1003.26L1003.25 1367.5H1001.01L1001 1365.26H998.994L998.979 1363.03H996.744L996.729 1360.79H994.472L994.457 1358.56H992.238L992.223 1356.32H989.988L989.973 1354.09H987.716L987.701 1352H985.63L985.615 1349.76H983.388L983.373 1347.52H981.138L981.123 1345.29H978.926L978.911 1343.08H976.639L976.624 1340.81H974.799L974.784 1339H972.698L972.683 1336.7H970.449L970.434 1334.53H968.199L968.184 1332.29H965.949L965.934 1330.06H963.931L963.916 1327.82H961.681L961.666 1325.59H959.409L959.394 1323.35H957.174L957.159 1321.12H954.925L954.91 1318.88H952.653L952.638 1316.79H950.567L950.552 1314.56H948.325L948.31 1312.31H946.075L946.06 1310.09H943.863L943.848 1307.87H941.576L941.561 1305.61H939.736V1304.2H937.732L937.717 1301.91H935.482L935.467 1299.73H933.233L933.218 1297.5H930.983L930.968 1295.26H928.964L928.949 1293.03H926.715L926.7 1290.79H924.443L924.428 1288.56H922.208L922.193 1286.32H919.958L919.943 1284.09H917.686L917.671 1282H915.6L915.586 1279.76H913.358L913.343 1277.52H911.109L911.094 1275.29H908.896L908.881 1273.08H906.609L906.594 1270.81H904.769L904.754 1268.92H902.631L902.616 1266.63H900.382L900.367 1264.45H898.132L898.117 1262.22H895.882L895.868 1259.98H893.864L893.849 1257.75H891.614L891.599 1255.51H889.342L889.327 1253.28H887.107L887.092 1251.04H884.858L884.843 1248.81H882.586L882.571 1246.72H880.5L880.485 1244.48H878.258L878.243 1242.24H876.008L875.993 1240.01H873.796L873.781 1237.8H871.509L871.494 1235.54H869.669V1234.24H867.874L867.859 1231.94H865.624L865.609 1229.77H863.374L863.359 1227.53H861.125L861.11 1225.3H859.106L859.091 1223.07H856.856L856.841 1220.83H854.584L854.569 1218.6H852.349L852.335 1216.36H850.1L850.085 1214.13H847.828L847.813 1212.03H845.742L845.727 1209.8H843.5L843.485 1207.56H841.25L841.235 1205.33H839.038L839.023 1203.12H836.751L836.736 1200.85H834.911L834.896 1199.09H832.706L832.691 1196.79H830.456L830.441 1194.62H828.207L828.192 1192.38H825.957L825.942 1190.15H823.938L823.923 1187.91H821.689L821.674 1185.68H819.417L819.402 1183.44H817.182L817.167 1181.21H814.932L814.917 1178.97H812.66L812.645 1176.88H810.575L810.56 1174.65H808.332L808.317 1172.4H806.083L806.068 1170.18H803.87L803.855 1167.96H801.583L801.568 1165.7H799.743L799.728 1164.08H797.747L797.732 1161.79H795.497L795.482 1159.61H793.248L793.233 1157.38H790.998L790.983 1155.14H788.979L788.964 1152.91H786.73L786.715 1150.67H784.458L784.443 1148.44H782.223L782.208 1146.2H779.973L779.958 1143.97H777.701L777.686 1141.88H775.616L775.601 1139.64H773.373L773.358 1137.4H771.124L771.109 1135.17H768.911L768.896 1132.96H766.624L766.609 1130.7H764.784L764.77 1129.12H762.803L762.788 1126.82H760.553L760.538 1124.65H758.304L758.289 1122.41H756.054L756.039 1120.18H754.035L754.02 1117.94H751.786L751.771 1115.71H749.514L749.499 1113.47H747.279L747.264 1111.24H745.029L745.014 1109H742.757L742.742 1106.91H740.671L740.657 1104.68H738.429L738.414 1102.43H736.18L736.165 1100.21H733.967L733.952 1097.99H731.68L731.665 1095.73H729.84L729.825 1094.19H727.889L727.874 1091.89H725.639L725.624 1089.72H723.389L723.374 1087.48H721.14L721.125 1085.25H719.121L719.106 1083.01H716.871L716.856 1080.78H714.599L714.584 1078.54H712.365L712.35 1076.31H710.115L710.1 1074.07H707.843L707.828 1071.98H705.757L705.742 1069.75H703.515L703.5 1067.5H701.265L701.25 1065.28H699.053L699.038 1063.06H696.766L696.751 1060.8H694.926L694.911 1059.1H692.878L692.863 1056.81H690.628L690.613 1054.63H688.378L688.363 1052.4H686.129L686.114 1050.16H684.11L684.095 1047.93H681.86L681.845 1045.69H679.588L679.573 1043.46H677.353L677.339 1041.22H675.104L675.089 1038.99H672.832L672.817 1036.9H670.746L670.731 1034.66H668.504L668.489 1032.42H666.254L666.239 1030.19H664.042L664.027 1027.98H661.755L661.74 1025.71H659.915L659.9 1023.95H657.837L657.822 1021.65H655.587L655.572 1019.48H653.337L653.322 1017.24H651.088L651.073 1015.01H649.069L649.054 1012.77H646.819L646.804 1010.54H644.547L644.532 1008.31H642.313L642.298 1006.07H640.063L640.048 1003.84H637.791L637.776 1001.74H635.705L635.69 999.508H633.463L633.448 997.266H631.213L631.198 995.038H629.001L628.986 992.826H626.714L626.699 990.562H624.874V989.25H623.123L623.109 986.956H620.874L620.859 984.781H618.624L618.609 982.546H616.375L616.36 980.311H614.356L614.341 978.077H612.106L612.091 975.842H609.834L609.819 973.607H607.599L607.585 971.372H605.35L605.335 969.138H603.078V969.071V994.569H603.212V996.864H605.447V999.039H607.681V1001.27H609.916V1003.51H611.92V1005.74H614.155V1007.98H616.412V1010.21H618.632V1012.45H620.866V1014.68H623.123V1016.78H625.194V1019.01H627.422V1021.24H629.656V1023.47H631.854V1025.68H634.118V1027.94H635.944V1029.5H638.037L638.052 1031.79H640.286L640.301 1033.97H642.536L642.551 1036.2H644.786L644.801 1038.44H646.804L646.819 1040.65L646.842 1040.67H649.054L649.069 1042.9H651.319L651.333 1045.13H653.553L653.568 1047.37H655.803L655.818 1049.6H658.075L658.09 1051.7H660.161L660.176 1053.93H662.403L662.418 1056.17H664.653L664.668 1058.4H666.865L666.88 1060.61H669.152L669.167 1062.88H670.992L671.007 1064.7H673.093L673.107 1066.95L673.145 1066.99H675.342L675.357 1069.17H677.592L677.607 1071.4H679.841L679.856 1073.63H681.86L681.875 1075.73L682.017 1075.87H684.117L684.132 1077.99L684.251 1078.1H686.382L686.397 1080.25L686.486 1080.34H688.624L688.639 1082.49L688.721 1082.57H690.866L690.881 1084.74L690.956 1084.82H693.146L693.161 1086.91H695.231L695.246 1089.11L695.284 1089.14H697.474L697.489 1091.35L697.526 1091.39H699.723L699.738 1093.61L699.753 1093.62H701.936L701.951 1095.83H701.958L704.223 1095.83L704.238 1098.1H706.063L706.077 1099.92H708.163L708.178 1102.06L708.327 1102.21H710.413L710.428 1104.31L710.502 1104.38H712.663L712.677 1106.56L712.737 1106.62H714.912L714.927 1108.82L714.972 1108.86H716.938L716.953 1110.84L717.207 1111.1H719.188L719.203 1113.09L719.441 1113.33H721.46L721.475 1115.37L721.676 1115.57H723.695L723.71 1117.6L723.911 1117.8H725.944L725.959 1119.85L726.146 1120.04H728.216L728.231 1122.12H730.295L730.31 1124.2L730.466 1124.36H732.537L732.552 1126.44L732.701 1126.59H734.787L734.801 1128.69L734.936 1128.83H737.006L737.021 1130.91L737.148 1131.04H739.293L739.308 1133.21L739.405 1133.3H741.133V1134.71H743.137L743.152 1137H745.387L745.402 1139.18H747.636L747.651 1141.41H749.886L749.901 1143.65H751.905L751.92 1145.82L751.979 1145.88H754.154L754.169 1148.07L754.214 1148.12H756.426L756.441 1150.35H756.449L758.661 1150.35L758.676 1152.58H760.903L760.918 1154.82H763.175L763.19 1156.91H765.261L765.276 1159.14H767.503L767.518 1161.39H769.753L769.768 1163.61H771.965L771.98 1165.83H774.252L774.267 1168.09H776.092L776.107 1169.98H778.23L778.245 1172.17L778.357 1172.28H780.487L780.502 1174.43L780.532 1174.46H782.737L782.752 1176.68L782.767 1176.69H784.987L785.002 1178.93H787.005L787.02 1180.95L787.229 1181.16H789.255L789.27 1183.2L789.464 1183.4H791.527L791.542 1185.48L791.698 1185.63H793.762L793.777 1187.71L793.933 1187.87H796.011L796.026 1189.96L796.168 1190.1H798.283L798.298 1192.2H800.369L800.384 1194.32L800.496 1194.43H802.611L802.626 1196.56L802.738 1196.67H804.868L804.883 1198.82L804.973 1198.91H807.088L807.103 1201.04L807.185 1201.12H809.375L809.39 1203.32L809.442 1203.38H811.215V1204.67H813.01L813.025 1206.96H813.033L815.26 1206.97L815.275 1209.14H817.51L817.525 1211.38H819.759L819.774 1213.61H821.778L821.793 1215.74L821.905 1215.85H824.028L824.043 1217.98L824.139 1218.08H826.3L826.315 1220.26L826.374 1220.32H828.534L828.549 1222.49L828.609 1222.55H830.784L830.799 1224.74L830.844 1224.79H833.056L833.071 1226.88H835.142L835.157 1229.11H835.164L837.377 1229.11L837.392 1231.35H837.399L839.626 1231.36L839.641 1233.58H841.839L841.854 1235.8H844.126L844.14 1238.06H845.966L845.98 1239.83H848.17L848.185 1242.12H850.42L850.435 1244.3H852.67L852.685 1246.53H854.919L854.934 1248.76H856.938L856.953 1250.93L857.028 1251H859.188L859.203 1253.17L859.262 1253.23H861.46L861.475 1255.45L861.497 1255.47H863.695L863.709 1257.68L863.732 1257.7H865.944L865.959 1259.93H868.209L868.224 1262.02H870.295L870.309 1264.26H872.537L872.552 1266.5H874.786L874.801 1268.73H876.999L877.014 1270.94H879.286L879.301 1273.21H881.126L881.141 1274.82H883.122L883.137 1277.12H885.372L885.387 1279.29H887.621L887.636 1281.53H889.871L889.886 1283.76H891.89L891.905 1285.91L892.001 1286H894.147L894.162 1288.16L894.236 1288.24H896.411L896.426 1290.44L896.471 1290.48H898.654L898.668 1292.68L898.706 1292.71H900.896L900.911 1294.93L900.933 1294.95H903.168L903.183 1297.04H905.254L905.268 1299.28H907.496L907.511 1301.52H909.745L909.76 1303.75H911.958L911.973 1305.96H914.245L914.26 1308.22H916.085L916.1 1309.8H918.066L918.081 1312.1H920.316L920.331 1314.27H922.565L922.58 1316.51H924.815L924.83 1318.74H926.834L926.849 1320.89L926.938 1320.98H929.083L929.098 1323.14L929.165 1323.21H931.348L931.363 1325.41L931.4 1325.45H933.583L933.598 1327.65L933.635 1327.69H935.832L935.847 1329.9L935.87 1329.92H938.104L938.119 1332.02H940.19L940.205 1334.25H942.432L942.447 1336.49H944.682L944.697 1338.72H946.894L946.909 1340.93H949.181L949.196 1343.2H951.021L951.036 1344.74H952.973L952.988 1347.03H955.223L955.237 1349.21H957.472L957.487 1351.44H959.722L959.737 1353.68H961.741L961.755 1355.83L961.837 1355.91H963.99L964.005 1358.08L964.072 1358.15H966.262L966.277 1360.35L966.307 1360.38H968.497L968.512 1362.59L968.542 1362.62H970.747L970.762 1364.84L970.776 1364.85H973.019L973.034 1366.95H975.104L975.119 1369.18H977.347L977.362 1371.42H979.596L979.611 1373.65H981.809L981.824 1375.86H984.096L984.11 1378.13H985.936L985.95 1379.83H987.984L987.999 1382.08L988.036 1382.12H990.234L990.249 1384.3H992.483L992.498 1386.53H994.733L994.748 1388.76H996.752L996.767 1390.86L996.908 1391H999.009L999.024 1393.11L999.143 1393.23H1001.27L1001.29 1395.38L1001.38 1395.47H1003.52L1003.53 1397.62L1003.61 1397.7H1005.76L1005.77 1399.87L1005.85 1399.95H1008.04L1008.05 1402.04H1010.12L1010.14 1404.24L1010.18 1404.27H1012.37L1012.38 1406.48L1012.42 1406.52H1014.61L1014.63 1408.74L1014.64 1408.75H1016.83L1016.84 1410.96H1016.85L1019.11 1410.96L1019.13 1413.23H1020.95L1020.97 1414.99H1023.03L1023.05 1417.16L1023.17 1417.29H1025.29L1025.3 1419.42L1025.35 1419.46H1027.54L1027.55 1421.67L1027.58 1421.7H1029.79L1029.8 1423.92L1029.82 1423.93H1031.82L1031.83 1425.94L1032.06 1426.17H1034.07L1034.09 1428.2L1034.3 1428.41H1036.34L1036.35 1430.47L1036.53 1430.65H1038.58L1038.59 1432.71L1038.77 1432.89H1040.82L1040.84 1434.96L1041 1435.13H1043.1L1043.12 1437.22H1045.19L1045.2 1439.33L1045.33 1439.46H1047.43L1047.44 1441.57L1047.57 1441.7H1049.68L1049.69 1443.83L1049.8 1443.93H1051.9L1051.91 1446.05L1052.01 1446.15H1054.18L1054.2 1448.34L1054.27 1448.4H1056.02V1449.71H1057.78L1057.79 1451.93L1057.87 1452.01H1060.03L1060.04 1454.18H1062.27L1062.28 1456.41H1064.52L1064.53 1458.65H1066.54L1066.55 1460.69L1066.74 1460.88H1068.79L1068.8 1462.94L1068.97 1463.11H1071.06V1464.4L1440.02 1464.91V1444.33H1082.16L1082.13 1444.28Z" fill="url(#paint27_radial_306_9618)"/>
<path d="M1010.4 1372.82H1010V1372.44L1010.4 1372.82ZM974.918 1337.48V1337.61H975.06L974.918 1337.48ZM1045.1 1407.39V1407.77H1045.48L1045.1 1407.39ZM1082.13 1444.28L1077.66 1444.35V1442.06H1075.42V1439.88H1073.19V1437.65H1070.95V1435.41H1068.95V1433.18H1066.71V1430.94H1064.46V1428.71H1062.24V1426.47H1060V1424.24H1057.75V1422.14H1055.67V1419.91H1053.45V1417.67H1051.21V1415.44H1049.02V1413.23H1046.74V1410.96H1044.92V1409.41H1042.82L1042.81 1407.11H1040.58L1040.56 1404.94H1038.33L1038.31 1402.7H1036.08L1036.06 1400.47H1034.06L1034.04 1398.23H1031.81L1031.79 1396H1029.54L1029.52 1393.76H1027.3L1027.29 1391.53H1025.05L1025.04 1389.29H1022.78L1022.76 1387.2H1020.69L1020.68 1384.97H1018.45L1018.44 1382.72H1016.2L1016.19 1380.5H1013.99L1013.97 1378.28H1011.7L1011.69 1376.02H1009.86L1009.85 1374.2H1007.76L1007.75 1371.91H1005.51L1005.5 1369.73H1003.26L1003.25 1367.5H1001.01L1001 1365.26H998.994L998.979 1363.03H996.744L996.729 1360.79H994.472L994.457 1358.56H992.238L992.223 1356.32H989.988L989.973 1354.09H987.716L987.701 1352H985.63L985.615 1349.76H983.388L983.373 1347.52H981.138L981.123 1345.29H978.926L978.911 1343.08H976.639L976.624 1340.81H974.799L974.784 1339H972.698L972.683 1336.7H970.449L970.434 1334.53H968.199L968.184 1332.29H965.949L965.934 1330.06H963.931L963.916 1327.82H961.681L961.666 1325.59H959.409L959.394 1323.35H957.174L957.159 1321.12H954.925L954.91 1318.88H952.653L952.638 1316.79H950.567L950.552 1314.56H948.325L948.31 1312.31H946.075L946.06 1310.09H943.863L943.848 1307.87H941.576L941.561 1305.61H939.736V1304.2H937.732L937.717 1301.91H935.482L935.467 1299.73H933.233L933.218 1297.5H930.983L930.968 1295.26H928.964L928.949 1293.03H926.715L926.7 1290.79H924.443L924.428 1288.56H922.208L922.193 1286.32H919.958L919.943 1284.09H917.686L917.671 1282H915.6L915.586 1279.76H913.358L913.343 1277.52H911.109L911.094 1275.29H908.896L908.881 1273.08H906.609L906.594 1270.81H904.769L904.754 1268.92H902.631L902.616 1266.63H900.382L900.367 1264.45H898.132L898.117 1262.22H895.882L895.868 1259.98H893.864L893.849 1257.75H891.614L891.599 1255.51H889.342L889.327 1253.28H887.107L887.092 1251.04H884.858L884.843 1248.81H882.586L882.571 1246.72H880.5L880.485 1244.48H878.258L878.243 1242.24H876.008L875.993 1240.01H873.796L873.781 1237.8H871.509L871.494 1235.54H869.669V1234.24H867.874L867.859 1231.94H865.624L865.609 1229.77H863.374L863.359 1227.53H861.125L861.11 1225.3H859.106L859.091 1223.07H856.856L856.841 1220.83H854.584L854.569 1218.6H852.349L852.335 1216.36H850.1L850.085 1214.13H847.828L847.813 1212.03H845.742L845.727 1209.8H843.5L843.485 1207.56H841.25L841.235 1205.33H839.038L839.023 1203.12H836.751L836.736 1200.85H834.911L834.896 1199.09H832.706L832.691 1196.79H830.456L830.441 1194.62H828.207L828.192 1192.38H825.957L825.942 1190.15H823.938L823.923 1187.91H821.689L821.674 1185.68H819.417L819.402 1183.44H817.182L817.167 1181.21H814.932L814.917 1178.97H812.66L812.645 1176.88H810.575L810.56 1174.65H808.332L808.317 1172.4H806.083L806.068 1170.18H803.87L803.855 1167.96H801.583L801.568 1165.7H799.743L799.728 1164.08H797.747L797.732 1161.79H795.497L795.482 1159.61H793.248L793.233 1157.38H790.998L790.983 1155.14H788.979L788.964 1152.91H786.73L786.715 1150.67H784.458L784.443 1148.44H782.223L782.208 1146.2H779.973L779.958 1143.97H777.701L777.686 1141.88H775.616L775.601 1139.64H773.373L773.358 1137.4H771.124L771.109 1135.17H768.911L768.896 1132.96H766.624L766.609 1130.7H764.784L764.77 1129.12H762.803L762.788 1126.82H760.553L760.538 1124.65H758.304L758.289 1122.41H756.054L756.039 1120.18H754.035L754.02 1117.94H751.786L751.771 1115.71H749.514L749.499 1113.47H747.279L747.264 1111.24H745.029L745.014 1109H742.757L742.742 1106.91H740.671L740.657 1104.68H738.429L738.414 1102.43H736.18L736.165 1100.21H733.967L733.952 1097.99H731.68L731.665 1095.73H729.84L729.825 1094.19H727.889L727.874 1091.89H725.639L725.624 1089.72H723.389L723.374 1087.48H721.14L721.125 1085.25H719.121L719.106 1083.01H716.871L716.856 1080.78H714.599L714.584 1078.54H712.365L712.35 1076.31H710.115L710.1 1074.07H707.843L707.828 1071.98H705.757L705.742 1069.75H703.515L703.5 1067.5H701.265L701.25 1065.28H699.053L699.038 1063.06H696.766L696.751 1060.8H694.926L694.911 1059.1H692.878L692.863 1056.81H690.628L690.613 1054.63H688.378L688.363 1052.4H686.129L686.114 1050.16H684.11L684.095 1047.93H681.86L681.845 1045.69H679.588L679.573 1043.46H677.353L677.339 1041.22H675.104L675.089 1038.99H672.832L672.817 1036.9H670.746L670.731 1034.66H668.504L668.489 1032.42H666.254L666.239 1030.19H664.042L664.027 1027.98H661.755L661.74 1025.71H659.915L659.9 1023.95H657.837L657.822 1021.65H655.587L655.572 1019.48H653.337L653.322 1017.24H651.088L651.073 1015.01H649.069L649.054 1012.77H646.819L646.804 1010.54H644.547L644.532 1008.31H642.313L642.298 1006.07H640.063L640.048 1003.84H637.791L637.776 1001.74H635.705L635.69 999.508H633.463L633.448 997.266H631.213L631.198 995.038H629.001L628.986 992.826H626.714L626.699 990.562H624.874V989.25H623.123L623.109 986.956H620.874L620.859 984.781H618.624L618.609 982.546H616.375L616.36 980.311H614.356L614.341 978.077H612.106L612.091 975.842H609.834L609.819 973.607H607.599L607.585 971.372H605.35L605.335 969.138H603.078V969.071V994.569H603.212V996.864H605.447V999.039H607.681V1001.27H609.916V1003.51H611.92V1005.74H614.155V1007.98H616.412V1010.21H618.632V1012.45H620.866V1014.68H623.123V1016.78H625.194V1019.01H627.422V1021.24H629.656V1023.47H631.854V1025.68H634.118V1027.94H635.944V1029.5H638.037L638.052 1031.79H640.286L640.301 1033.97H642.536L642.551 1036.2H644.786L644.801 1038.44H646.804L646.819 1040.65L646.842 1040.67H649.054L649.069 1042.9H651.319L651.333 1045.13H653.553L653.568 1047.37H655.803L655.818 1049.6H658.075L658.09 1051.7H660.161L660.176 1053.93H662.403L662.418 1056.17H664.653L664.668 1058.4H666.865L666.88 1060.61H669.152L669.167 1062.88H670.992L671.007 1064.7H673.093L673.107 1066.95L673.145 1066.99H675.342L675.357 1069.17H677.592L677.607 1071.4H679.841L679.856 1073.63H681.86L681.875 1075.73L682.017 1075.87H684.117L684.132 1077.99L684.251 1078.1H686.382L686.397 1080.25L686.486 1080.34H688.624L688.639 1082.49L688.721 1082.57H690.866L690.881 1084.74L690.956 1084.82H693.146L693.161 1086.91H695.231L695.246 1089.11L695.284 1089.14H697.474L697.489 1091.35L697.526 1091.39H699.723L699.738 1093.61L699.753 1093.62H701.936L701.951 1095.83H701.958L704.223 1095.83L704.238 1098.1H706.063L706.077 1099.92H708.163L708.178 1102.06L708.327 1102.21H710.413L710.428 1104.31L710.502 1104.38H712.663L712.677 1106.56L712.737 1106.62H714.912L714.927 1108.82L714.972 1108.86H716.938L716.953 1110.84L717.207 1111.1H719.188L719.203 1113.09L719.441 1113.33H721.46L721.475 1115.37L721.676 1115.57H723.695L723.71 1117.6L723.911 1117.8H725.944L725.959 1119.85L726.146 1120.04H728.216L728.231 1122.12H730.295L730.31 1124.2L730.466 1124.36H732.537L732.552 1126.44L732.701 1126.59H734.787L734.801 1128.69L734.936 1128.83H737.006L737.021 1130.91L737.148 1131.04H739.293L739.308 1133.21L739.405 1133.3H741.133V1134.71H743.137L743.152 1137H745.387L745.402 1139.18H747.636L747.651 1141.41H749.886L749.901 1143.65H751.905L751.92 1145.82L751.979 1145.88H754.154L754.169 1148.07L754.214 1148.12H756.426L756.441 1150.35H756.449L758.661 1150.35L758.676 1152.58H760.903L760.918 1154.82H763.175L763.19 1156.91H765.261L765.276 1159.14H767.503L767.518 1161.39H769.753L769.768 1163.61H771.965L771.98 1165.83H774.252L774.267 1168.09H776.092L776.107 1169.98H778.23L778.245 1172.17L778.357 1172.28H780.487L780.502 1174.43L780.532 1174.46H782.737L782.752 1176.68L782.767 1176.69H784.987L785.002 1178.93H787.005L787.02 1180.95L787.229 1181.16H789.255L789.27 1183.2L789.464 1183.4H791.527L791.542 1185.48L791.698 1185.63H793.762L793.777 1187.71L793.933 1187.87H796.011L796.026 1189.96L796.168 1190.1H798.283L798.298 1192.2H800.369L800.384 1194.32L800.496 1194.43H802.611L802.626 1196.56L802.738 1196.67H804.868L804.883 1198.82L804.973 1198.91H807.088L807.103 1201.04L807.185 1201.12H809.375L809.39 1203.32L809.442 1203.38H811.215V1204.67H813.01L813.025 1206.96H813.033L815.26 1206.97L815.275 1209.14H817.51L817.525 1211.38H819.759L819.774 1213.61H821.778L821.793 1215.74L821.905 1215.85H824.028L824.043 1217.98L824.139 1218.08H826.3L826.315 1220.26L826.374 1220.32H828.534L828.549 1222.49L828.609 1222.55H830.784L830.799 1224.74L830.844 1224.79H833.056L833.071 1226.88H835.142L835.157 1229.11H835.164L837.377 1229.11L837.392 1231.35H837.399L839.626 1231.36L839.641 1233.58H841.839L841.854 1235.8H844.126L844.14 1238.06H845.966L845.98 1239.83H848.17L848.185 1242.12H850.42L850.435 1244.3H852.67L852.685 1246.53H854.919L854.934 1248.76H856.938L856.953 1250.93L857.028 1251H859.188L859.203 1253.17L859.262 1253.23H861.46L861.475 1255.45L861.497 1255.47H863.695L863.709 1257.68L863.732 1257.7H865.944L865.959 1259.93H868.209L868.224 1262.02H870.295L870.309 1264.26H872.537L872.552 1266.5H874.786L874.801 1268.73H876.999L877.014 1270.94H879.286L879.301 1273.21H881.126L881.141 1274.82H883.122L883.137 1277.12H885.372L885.387 1279.29H887.621L887.636 1281.53H889.871L889.886 1283.76H891.89L891.905 1285.91L892.001 1286H894.147L894.162 1288.16L894.236 1288.24H896.411L896.426 1290.44L896.471 1290.48H898.654L898.668 1292.68L898.706 1292.71H900.896L900.911 1294.93L900.933 1294.95H903.168L903.183 1297.04H905.254L905.268 1299.28H907.496L907.511 1301.52H909.745L909.76 1303.75H911.958L911.973 1305.96H914.245L914.26 1308.22H916.085L916.1 1309.8H918.066L918.081 1312.1H920.316L920.331 1314.27H922.565L922.58 1316.51H924.815L924.83 1318.74H926.834L926.849 1320.89L926.938 1320.98H929.083L929.098 1323.14L929.165 1323.21H931.348L931.363 1325.41L931.4 1325.45H933.583L933.598 1327.65L933.635 1327.69H935.832L935.847 1329.9L935.87 1329.92H938.104L938.119 1332.02H940.19L940.205 1334.25H942.432L942.447 1336.49H944.682L944.697 1338.72H946.894L946.909 1340.93H949.181L949.196 1343.2H951.021L951.036 1344.74H952.973L952.988 1347.03H955.223L955.237 1349.21H957.472L957.487 1351.44H959.722L959.737 1353.68H961.741L961.755 1355.83L961.837 1355.91H963.99L964.005 1358.08L964.072 1358.15H966.262L966.277 1360.35L966.307 1360.38H968.497L968.512 1362.59L968.542 1362.62H970.747L970.762 1364.84L970.776 1364.85H973.019L973.034 1366.95H975.104L975.119 1369.18H977.347L977.362 1371.42H979.596L979.611 1373.65H981.809L981.824 1375.86H984.096L984.11 1378.13H985.936L985.95 1379.83H987.984L987.999 1382.08L988.036 1382.12H990.234L990.249 1384.3H992.483L992.498 1386.53H994.733L994.748 1388.76H996.752L996.767 1390.86L996.908 1391H999.009L999.024 1393.11L999.143 1393.23H1001.27L1001.29 1395.38L1001.38 1395.47H1003.52L1003.53 1397.62L1003.61 1397.7H1005.76L1005.77 1399.87L1005.85 1399.95H1008.04L1008.05 1402.04H1010.12L1010.14 1404.24L1010.18 1404.27H1012.37L1012.38 1406.48L1012.42 1406.52H1014.61L1014.63 1408.74L1014.64 1408.75H1016.83L1016.84 1410.96H1016.85L1019.11 1410.96L1019.13 1413.23H1020.95L1020.97 1414.99H1023.03L1023.05 1417.16L1023.17 1417.29H1025.29L1025.3 1419.42L1025.35 1419.46H1027.54L1027.55 1421.67L1027.58 1421.7H1029.79L1029.8 1423.92L1029.82 1423.93H1031.82L1031.83 1425.94L1032.06 1426.17H1034.07L1034.09 1428.2L1034.3 1428.41H1036.34L1036.35 1430.47L1036.53 1430.65H1038.58L1038.59 1432.71L1038.77 1432.89H1040.82L1040.84 1434.96L1041 1435.13H1043.1L1043.12 1437.22H1045.19L1045.2 1439.33L1045.33 1439.46H1047.43L1047.44 1441.57L1047.57 1441.7H1049.68L1049.69 1443.83L1049.8 1443.93H1051.9L1051.91 1446.05L1052.01 1446.15H1054.18L1054.2 1448.34L1054.27 1448.4H1056.02V1449.71H1057.78L1057.79 1451.93L1057.87 1452.01H1060.03L1060.04 1454.18H1062.27L1062.28 1456.41H1064.52L1064.53 1458.65H1066.54L1066.55 1460.69L1066.74 1460.88H1068.79L1068.8 1462.94L1068.97 1463.11H1071.06V1464.4L1440.02 1464.91V1444.33H1082.16L1082.13 1444.28Z" fill="url(#paint28_radial_306_9618)"/>
<path d="M1016.32 1394.9V1397.14H1018.56V1399.37H1020.81V1401.61H1023.03V1403.84H1025.26V1406.08H1027.52V1408.17H1029.59V1410.4H1031.82V1412.65H1034.05V1414.87H1036.25V1417.09H1038.52V1419.34H1040.34V1421.1H1042.51V1423.38L1042.53 1423.4H1044.75V1425.58H1046.99V1427.81H1049.22V1430.05H1051.23V1432.1L1051.42 1432.28H1053.46V1434.33L1053.66 1434.52H1055.72V1436.58L1055.89 1436.75H1057.94V1438.8L1058.13 1438.99H1060.17V1441.04L1060.36 1441.22H1062.43V1443.29L1062.45 1443.31H1064.49V1445.36L1064.69 1445.55H1066.72V1447.59L1066.92 1447.79H1068.96V1449.83L1069.16 1450.02H1071.16V1452.02L1071.37 1452.23H1073.43V1454.24H1075.4V1456.26H1440V1449.42H1078.23L1078.25 1448.75H1075.17V1446.51H1072.93V1444.28H1070.68V1442.04H1068.46V1439.81H1066.23V1437.56H1063.97V1435.48H1061.9V1433.24H1059.67V1431H1057.44V1428.77H1055.24V1426.56H1052.97V1424.3H1051.15V1422.54H1048.98V1420.24H1046.74V1418.07H1044.51V1415.83H1042.27V1413.6H1040.26V1411.45L1040.18 1411.37H1038.03V1409.21L1037.94 1409.13H1035.77V1406.96L1035.7 1406.89H1033.55V1404.74L1033.47 1404.65H1031.32V1402.51L1031.23 1402.42H1029.06V1400.33H1027V1398.18L1026.91 1398.09H1024.77V1395.95L1024.67 1395.86H1022.53V1393.72L1022.44 1393.62H1020.34L1014.44 1394.9H1016.32Z" fill="url(#paint29_radial_306_9618)"/>
<path d="M632.606 992.707L1082.13 1439.2H1440V992.707H632.606Z" fill="url(#paint30_radial_306_9618)"/>
<path d="M632.606 992.707L1082.13 1439.2H1440V992.707H632.606Z" fill="url(#paint31_radial_306_9618)"/>
<path d="M602.824 1001.4L1069.98 1468.55H1440V1594.96H601.044L602.824 1001.4Z" fill="url(#paint32_radial_306_9618)"/>
<path d="M602.824 1001.4L1069.98 1468.55H1440V1594.96H601.044L602.824 1001.4Z" fill="url(#paint33_radial_306_9618)"/>
<path d="M1440 1461.89H1070.74L1070.51 1461.67L602.892 992.983L602.824 990.264L1071.36 1460.4H1440V1461.89Z" fill="#010518"/>
</g>
<defs>
<radialGradient id="paint0_radial_306_9618" cx="0" cy="0" r="1" gradientUnits="userSpaceOnUse" gradientTransform="translate(836.416 1062.17) scale(1168.36 1168.36)">
<stop stop-color="#5C7B8D"/>
<stop offset="0.22" stop-color="#3F5668" stop-opacity="0.69"/>
<stop offset="0.46" stop-color="#243345" stop-opacity="0.39"/>
<stop offset="0.68" stop-color="#11192C" stop-opacity="0.18"/>
<stop offset="0.87" stop-color="#050A1D" stop-opacity="0.05"/>
<stop offset="1" stop-color="#010518" stop-opacity="0"/>
</radialGradient>
<radialGradient id="paint1_radial_306_9618" cx="0" cy="0" r="1" gradientUnits="userSpaceOnUse" gradientTransform="translate(306.116 839.835) scale(203.273 203.273)">
<stop offset="0.09" stop-color="white"/>
<stop offset="0.22" stop-color="#F4E73D"/>
<stop offset="0.34" stop-color="#F3E33C" stop-opacity="0.99"/>
<stop offset="0.44" stop-color="#F2DA3A" stop-opacity="0.94"/>
<stop offset="0.54" stop-color="#F0CA36" stop-opacity="0.87"/>
<stop offset="0.63" stop-color="#EEB331" stop-opacity="0.77"/>
<stop offset="0.71" stop-color="#EA962A" stop-opacity="0.64"/>
<stop offset="0.8" stop-color="#E67222" stop-opacity="0.48"/>
<stop offset="0.88" stop-color="#E14719" stop-opacity="0.3"/>
<stop offset="0.96" stop-color="#DC170E" stop-opacity="0.08"/>
<stop offset="0.99" stop-color="#DA050A" stop-opacity="0"/>
</radialGradient>
<radialGradient id="paint2_radial_306_9618" cx="0" cy="0" r="1" gradientUnits="userSpaceOnUse" gradientTransform="translate(312.106 280.968) scale(649.129 649.129)">
<stop stop-color="#5C7B8D"/>
<stop offset="0.28" stop-color="#405769" stop-opacity="0.7"/>
<stop offset="0.77" stop-color="#121C2F" stop-opacity="0.2"/>
<stop offset="1" stop-color="#010518" stop-opacity="0"/>
</radialGradient>
<radialGradient id="paint3_radial_306_9618" cx="0" cy="0" r="1" gradientUnits="userSpaceOnUse" gradientTransform="translate(379.61 1486.59) scale(669.532 669.532)">
<stop stop-color="#5C7B8D"/>
<stop offset="0.28" stop-color="#405769" stop-opacity="0.7"/>
<stop offset="0.77" stop-color="#121C2F" stop-opacity="0.2"/>
<stop offset="1" stop-color="#010518" stop-opacity="0"/>
</radialGradient>
<radialGradient id="paint4_radial_306_9618" cx="0" cy="0" r="1" gradientUnits="userSpaceOnUse" gradientTransform="translate(543.998 1262.4) scale(603.361 603.361)">
<stop offset="0.09" stop-color="white"/>
<stop offset="0.22" stop-color="#F4E73D"/>
<stop offset="0.34" stop-color="#F3E33C" stop-opacity="0.99"/>
<stop offset="0.44" stop-color="#F2DA3A" stop-opacity="0.94"/>
<stop offset="0.54" stop-color="#F0CA36" stop-opacity="0.87"/>
<stop offset="0.63" stop-color="#EEB331" stop-opacity="0.77"/>
<stop offset="0.71" stop-color="#EA962A" stop-opacity="0.64"/>
<stop offset="0.8" stop-color="#E67222" stop-opacity="0.48"/>
<stop offset="0.88" stop-color="#E14719" stop-opacity="0.3"/>
<stop offset="0.96" stop-color="#DC170E" stop-opacity="0.08"/>
<stop offset="0.99" stop-color="#DA050A" stop-opacity="0"/>
</radialGradient>
<linearGradient id="paint5_linear_306_9618" x1="147.807" y1="632.897" x2="150.734" y2="733.185" gradientUnits="userSpaceOnUse">
<stop stop-color="#010518"/>
<stop offset="1" stop-color="#010518" stop-opacity="0"/>
</linearGradient>
<radialGradient id="paint6_radial_306_9618" cx="0" cy="0" r="1" gradientUnits="userSpaceOnUse" gradientTransform="translate(1185.13 1094.04) scale(354.839 319.351)">
<stop offset="0.09" stop-color="white"/>
<stop offset="0.22" stop-color="#F4E73D"/>
<stop offset="0.48" stop-color="#EB9D2C" stop-opacity="0.67"/>
<stop offset="0.99" stop-color="#DA050A" stop-opacity="0"/>
</radialGradient>
<linearGradient id="paint7_linear_306_9618" x1="1337.38" y1="1480.39" x2="1333.69" y2="1518.86" gradientUnits="userSpaceOnUse">
<stop stop-color="#010518"/>
<stop offset="0.57" stop-color="#010518" stop-opacity="0.27"/>
<stop offset="1" stop-color="#010518" stop-opacity="0"/>
</linearGradient>
<radialGradient id="paint8_radial_306_9618" cx="0" cy="0" r="1" gradientUnits="userSpaceOnUse" gradientTransform="translate(24.1279 651.87) scale(184.486 184.486)">
<stop offset="0.31" stop-color="#FE1F02"/>
<stop offset="0.35" stop-color="#DF1B04" stop-opacity="0.88"/>
<stop offset="0.42" stop-color="#AC1609" stop-opacity="0.68"/>
<stop offset="0.49" stop-color="#7E110D" stop-opacity="0.5"/>
<stop offset="0.56" stop-color="#570D10" stop-opacity="0.34"/>
<stop offset="0.64" stop-color="#380A13" stop-opacity="0.22"/>
<stop offset="0.72" stop-color="#1F0815" stop-opacity="0.12"/>
<stop offset="0.8" stop-color="#0E0616" stop-opacity="0.05"/>
<stop offset="0.89" stop-color="#040517" stop-opacity="0.01"/>
<stop offset="1" stop-color="#010518" stop-opacity="0"/>
</radialGradient>
<radialGradient id="paint9_radial_306_9618" cx="0" cy="0" r="1" gradientUnits="userSpaceOnUse" gradientTransform="translate(303.353 909.886) scale(393.957 66.9727)">
<stop offset="0.07" stop-color="#FE1F02"/>
<stop offset="0.12" stop-color="#DF1B04" stop-opacity="0.88"/>
<stop offset="0.22" stop-color="#AC1609" stop-opacity="0.68"/>
<stop offset="0.31" stop-color="#7E110D" stop-opacity="0.5"/>
<stop offset="0.41" stop-color="#570D10" stop-opacity="0.34"/>
<stop offset="0.52" stop-color="#380A13" stop-opacity="0.22"/>
<stop offset="0.62" stop-color="#1F0815" stop-opacity="0.12"/>
<stop offset="0.74" stop-color="#0E0616" stop-opacity="0.05"/>
<stop offset="0.86" stop-color="#040517" stop-opacity="0.01"/>
<stop offset="1" stop-color="#010518" stop-opacity="0"/>
</radialGradient>
<radialGradient id="paint10_radial_306_9618" cx="0" cy="0" r="1" gradientUnits="userSpaceOnUse" gradientTransform="translate(81.3897 867.314) scale(150.637 64.774)">
<stop offset="0.03" stop-color="#FE1F02"/>
<stop offset="0.08" stop-color="#DF1B04" stop-opacity="0.88"/>
<stop offset="0.18" stop-color="#AC1609" stop-opacity="0.68"/>
<stop offset="0.28" stop-color="#7E110D" stop-opacity="0.5"/>
<stop offset="0.39" stop-color="#570D10" stop-opacity="0.34"/>
<stop offset="0.5" stop-color="#380A13" stop-opacity="0.22"/>
<stop offset="0.61" stop-color="#1F0815" stop-opacity="0.12"/>
<stop offset="0.72" stop-color="#0E0616" stop-opacity="0.05"/>
<stop offset="0.85" stop-color="#040517" stop-opacity="0.01"/>
<stop offset="1" stop-color="#010518" stop-opacity="0"/>
</radialGradient>
<radialGradient id="paint11_radial_306_9618" cx="0" cy="0" r="1" gradientUnits="userSpaceOnUse" gradientTransform="translate(520.933 938.573) rotate(37.9) scale(145.698 62.6503)">
<stop offset="0.03" stop-color="#FE1F02"/>
<stop offset="0.08" stop-color="#DF1B04" stop-opacity="0.88"/>
<stop offset="0.18" stop-color="#AC1609" stop-opacity="0.68"/>
<stop offset="0.28" stop-color="#7E110D" stop-opacity="0.5"/>
<stop offset="0.39" stop-color="#570D10" stop-opacity="0.34"/>
<stop offset="0.5" stop-color="#380A13" stop-opacity="0.22"/>
<stop offset="0.61" stop-color="#1F0815" stop-opacity="0.12"/>
<stop offset="0.72" stop-color="#0E0616" stop-opacity="0.05"/>
<stop offset="0.85" stop-color="#040517" stop-opacity="0.01"/>
<stop offset="1" stop-color="#010518" stop-opacity="0"/>
</radialGradient>
<radialGradient id="paint12_radial_306_9618" cx="0" cy="0" r="1" gradientUnits="userSpaceOnUse" gradientTransform="translate(119.435 583.336) rotate(37.9) scale(145.229 62.4485)">
<stop offset="0.26" stop-color="#5C7B8D"/>
<stop offset="0.3" stop-color="#516D7F" stop-opacity="0.89"/>
<stop offset="0.4" stop-color="#394D60" stop-opacity="0.62"/>
<stop offset="0.51" stop-color="#243345" stop-opacity="0.39"/>
<stop offset="0.62" stop-color="#141E31" stop-opacity="0.22"/>
<stop offset="0.73" stop-color="#091023" stop-opacity="0.1"/>
<stop offset="0.85" stop-color="#03071A" stop-opacity="0.02"/>
<stop offset="1" stop-color="#010518" stop-opacity="0"/>
</radialGradient>
<radialGradient id="paint13_radial_306_9618" cx="0" cy="0" r="1" gradientUnits="userSpaceOnUse" gradientTransform="translate(443.918 865.313) rotate(-0.12) scale(348.994 48.8591)">
<stop offset="0.26" stop-color="#5C7B8D"/>
<stop offset="0.3" stop-color="#516D7F" stop-opacity="0.89"/>
<stop offset="0.4" stop-color="#394D60" stop-opacity="0.62"/>
<stop offset="0.51" stop-color="#243345" stop-opacity="0.39"/>
<stop offset="0.62" stop-color="#141E31" stop-opacity="0.22"/>
<stop offset="0.73" stop-color="#091023" stop-opacity="0.1"/>
<stop offset="0.85" stop-color="#03071A" stop-opacity="0.02"/>
<stop offset="1" stop-color="#010518" stop-opacity="0"/>
</radialGradient>
<radialGradient id="paint14_radial_306_9618" cx="0" cy="0" r="1" gradientUnits="userSpaceOnUse" gradientTransform="translate(125.706 791.581) rotate(90.66) scale(100.713 40.2851)">
<stop stop-color="#5C7B8D"/>
<stop offset="0.05" stop-color="#516D7F" stop-opacity="0.89"/>
<stop offset="0.19" stop-color="#394D60" stop-opacity="0.62"/>
<stop offset="0.33" stop-color="#243345" stop-opacity="0.39"/>
<stop offset="0.48" stop-color="#141E31" stop-opacity="0.22"/>
<stop offset="0.63" stop-color="#091023" stop-opacity="0.1"/>
<stop offset="0.8" stop-color="#03071A" stop-opacity="0.02"/>
<stop offset="1" stop-color="#010518" stop-opacity="0"/>
</radialGradient>
<radialGradient id="paint15_radial_306_9618" cx="0" cy="0" r="1" gradientUnits="userSpaceOnUse" gradientTransform="translate(84.3328 616.243) rotate(-45) scale(116.118 118.44)">
<stop stop-color="#5C7B8D"/>
<stop offset="0.05" stop-color="#516D7F" stop-opacity="0.89"/>
<stop offset="0.19" stop-color="#394D60" stop-opacity="0.62"/>
<stop offset="0.33" stop-color="#243345" stop-opacity="0.39"/>
<stop offset="0.48" stop-color="#141E31" stop-opacity="0.22"/>
<stop offset="0.63" stop-color="#091023" stop-opacity="0.1"/>
<stop offset="0.8" stop-color="#03071A" stop-opacity="0.02"/>
<stop offset="1" stop-color="#010518" stop-opacity="0"/>
</radialGradient>
<radialGradient id="paint16_radial_306_9618" cx="0" cy="0" r="1" gradientUnits="userSpaceOnUse" gradientTransform="translate(112.751 671.053) scale(101.264 277.464)">
<stop stop-color="#FE1F02"/>
<stop offset="0.05" stop-color="#DF1B04" stop-opacity="0.88"/>
<stop offset="0.15" stop-color="#AC1609" stop-opacity="0.68"/>
<stop offset="0.26" stop-color="#7E110D" stop-opacity="0.5"/>
<stop offset="0.37" stop-color="#570D10" stop-opacity="0.34"/>
<stop offset="0.48" stop-color="#380A13" stop-opacity="0.22"/>
<stop offset="0.59" stop-color="#1F0815" stop-opacity="0.12"/>
<stop offset="0.71" stop-color="#0E0616" stop-opacity="0.05"/>
<stop offset="0.84" stop-color="#040517" stop-opacity="0.01"/>
<stop offset="1" stop-color="#010518" stop-opacity="0"/>
</radialGradient>
<radialGradient id="paint17_radial_306_9618" cx="0" cy="0" r="1" gradientUnits="userSpaceOnUse" gradientTransform="translate(390.463 920.286) rotate(89.52) scale(143.136 319.193)">
<stop stop-color="#5C7B8D"/>
<stop offset="0.05" stop-color="#516D7F" stop-opacity="0.89"/>
<stop offset="0.19" stop-color="#394D60" stop-opacity="0.62"/>
<stop offset="0.33" stop-color="#243345" stop-opacity="0.39"/>
<stop offset="0.48" stop-color="#141E31" stop-opacity="0.22"/>
<stop offset="0.63" stop-color="#091023" stop-opacity="0.1"/>
<stop offset="0.8" stop-color="#03071A" stop-opacity="0.02"/>
<stop offset="1" stop-color="#010518" stop-opacity="0"/>
</radialGradient>
<radialGradient id="paint18_radial_306_9618" cx="0" cy="0" r="1" gradientUnits="userSpaceOnUse" gradientTransform="translate(234.427 889.726) rotate(89.52) scale(78.2238 257.356)">
<stop stop-color="#FE1F02"/>
<stop offset="0.05" stop-color="#DF1B04" stop-opacity="0.88"/>
<stop offset="0.15" stop-color="#AC1609" stop-opacity="0.68"/>
<stop offset="0.26" stop-color="#7E110D" stop-opacity="0.5"/>
<stop offset="0.37" stop-color="#570D10" stop-opacity="0.34"/>
<stop offset="0.48" stop-color="#380A13" stop-opacity="0.22"/>
<stop offset="0.59" stop-color="#1F0815" stop-opacity="0.12"/>
<stop offset="0.71" stop-color="#0E0616" stop-opacity="0.05"/>
<stop offset="0.84" stop-color="#040517" stop-opacity="0.01"/>
<stop offset="1" stop-color="#010518" stop-opacity="0"/>
</radialGradient>
<radialGradient id="paint19_radial_306_9618" cx="0" cy="0" r="1" gradientUnits="userSpaceOnUse" gradientTransform="translate(528.427 921.67) rotate(45) scale(104.311 39.6381)">
<stop stop-color="#FE1F02"/>
<stop offset="0.05" stop-color="#DF1B04" stop-opacity="0.88"/>
<stop offset="0.15" stop-color="#AC1609" stop-opacity="0.68"/>
<stop offset="0.26" stop-color="#7E110D" stop-opacity="0.5"/>
<stop offset="0.37" stop-color="#570D10" stop-opacity="0.34"/>
<stop offset="0.48" stop-color="#380A13" stop-opacity="0.22"/>
<stop offset="0.59" stop-color="#1F0815" stop-opacity="0.12"/>
<stop offset="0.71" stop-color="#0E0616" stop-opacity="0.05"/>
<stop offset="0.84" stop-color="#040517" stop-opacity="0.01"/>
<stop offset="1" stop-color="#010518" stop-opacity="0"/>
</radialGradient>
<radialGradient id="paint20_radial_306_9618" cx="0" cy="0" r="1" gradientUnits="userSpaceOnUse" gradientTransform="translate(312.558 878.078) rotate(-179.75) scale(142.273 21.1114)">
<stop stop-color="#FE1F02"/>
<stop offset="0.05" stop-color="#DF1B04" stop-opacity="0.88"/>
<stop offset="0.15" stop-color="#AC1609" stop-opacity="0.68"/>
<stop offset="0.26" stop-color="#7E110D" stop-opacity="0.5"/>
<stop offset="0.37" stop-color="#570D10" stop-opacity="0.34"/>
<stop offset="0.48" stop-color="#380A13" stop-opacity="0.22"/>
<stop offset="0.59" stop-color="#1F0815" stop-opacity="0.12"/>
<stop offset="0.71" stop-color="#0E0616" stop-opacity="0.05"/>
<stop offset="0.84" stop-color="#040517" stop-opacity="0.01"/>
<stop offset="1" stop-color="#010518" stop-opacity="0"/>
</radialGradient>
<radialGradient id="paint21_radial_306_9618" cx="0" cy="0" r="1" gradientUnits="userSpaceOnUse" gradientTransform="translate(118.196 677.605) rotate(-89.58) scale(81.3867 21.0733)">
<stop stop-color="#FE1F02"/>
<stop offset="0.05" stop-color="#DF1B04" stop-opacity="0.88"/>
<stop offset="0.15" stop-color="#AC1609" stop-opacity="0.68"/>
<stop offset="0.26" stop-color="#7E110D" stop-opacity="0.5"/>
<stop offset="0.37" stop-color="#570D10" stop-opacity="0.34"/>
<stop offset="0.48" stop-color="#380A13" stop-opacity="0.22"/>
<stop offset="0.59" stop-color="#1F0815" stop-opacity="0.12"/>
<stop offset="0.71" stop-color="#0E0616" stop-opacity="0.05"/>
<stop offset="0.84" stop-color="#040517" stop-opacity="0.01"/>
<stop offset="1" stop-color="#010518" stop-opacity="0"/>
</radialGradient>
<radialGradient id="paint22_radial_306_9618" cx="0" cy="0" r="1" gradientUnits="userSpaceOnUse" gradientTransform="translate(58.1475 587.766) rotate(46.27) scale(54.3935 23.5215)">
<stop stop-color="#FE1F02"/>
<stop offset="0.05" stop-color="#DF1B04" stop-opacity="0.88"/>
<stop offset="0.15" stop-color="#AC1609" stop-opacity="0.68"/>
<stop offset="0.26" stop-color="#7E110D" stop-opacity="0.5"/>
<stop offset="0.37" stop-color="#570D10" stop-opacity="0.34"/>
<stop offset="0.48" stop-color="#380A13" stop-opacity="0.22"/>
<stop offset="0.59" stop-color="#1F0815" stop-opacity="0.12"/>
<stop offset="0.71" stop-color="#0E0616" stop-opacity="0.05"/>
<stop offset="0.84" stop-color="#040517" stop-opacity="0.01"/>
<stop offset="1" stop-color="#010518" stop-opacity="0"/>
</radialGradient>
<radialGradient id="paint23_radial_306_9618" cx="0" cy="0" r="1" gradientUnits="userSpaceOnUse" gradientTransform="translate(254.039 797.345) scale(142.778 142.778)">
<stop offset="0.09" stop-color="white"/>
<stop offset="0.22" stop-color="#F4E73D"/>
<stop offset="0.34" stop-color="#F3E33C" stop-opacity="0.99"/>
<stop offset="0.44" stop-color="#F2DA3A" stop-opacity="0.94"/>
<stop offset="0.54" stop-color="#F0CA36" stop-opacity="0.87"/>
<stop offset="0.63" stop-color="#EEB331" stop-opacity="0.77"/>
<stop offset="0.71" stop-color="#EA962A" stop-opacity="0.64"/>
<stop offset="0.8" stop-color="#E67222" stop-opacity="0.48"/>
<stop offset="0.88" stop-color="#E14719" stop-opacity="0.3"/>
<stop offset="0.96" stop-color="#DC170E" stop-opacity="0.08"/>
<stop offset="0.99" stop-color="#DA050A" stop-opacity="0"/>
</radialGradient>
<radialGradient id="paint24_radial_306_9618" cx="0" cy="0" r="1" gradientUnits="userSpaceOnUse" gradientTransform="translate(488.003 961.547) scale(83.0583 83.0583)">
<stop offset="0.09" stop-color="white"/>
<stop offset="0.22" stop-color="#F4E73D"/>
<stop offset="0.34" stop-color="#F3E33C" stop-opacity="0.99"/>
<stop offset="0.44" stop-color="#F2DA3A" stop-opacity="0.94"/>
<stop offset="0.54" stop-color="#F0CA36" stop-opacity="0.87"/>
<stop offset="0.63" stop-color="#EEB331" stop-opacity="0.77"/>
<stop offset="0.71" stop-color="#EA962A" stop-opacity="0.64"/>
<stop offset="0.8" stop-color="#E67222" stop-opacity="0.48"/>
<stop offset="0.88" stop-color="#E14719" stop-opacity="0.3"/>
<stop offset="0.96" stop-color="#DC170E" stop-opacity="0.08"/>
<stop offset="0.99" stop-color="#DA050A" stop-opacity="0"/>
</radialGradient>
<radialGradient id="paint25_radial_306_9618" cx="0" cy="0" r="1" gradientUnits="userSpaceOnUse" gradientTransform="translate(48.211 639.147) scale(83.036 83.036)">
<stop offset="0.09" stop-color="white"/>
<stop offset="0.22" stop-color="#F4E73D"/>
<stop offset="0.34" stop-color="#F3E33C" stop-opacity="0.99"/>
<stop offset="0.44" stop-color="#F2DA3A" stop-opacity="0.94"/>
<stop offset="0.54" stop-color="#F0CA36" stop-opacity="0.87"/>
<stop offset="0.63" stop-color="#EEB331" stop-opacity="0.77"/>
<stop offset="0.71" stop-color="#EA962A" stop-opacity="0.64"/>
<stop offset="0.8" stop-color="#E67222" stop-opacity="0.48"/>
<stop offset="0.88" stop-color="#E14719" stop-opacity="0.3"/>
<stop offset="0.96" stop-color="#DC170E" stop-opacity="0.08"/>
<stop offset="0.99" stop-color="#DA050A" stop-opacity="0"/>
</radialGradient>
<radialGradient id="paint26_radial_306_9618" cx="0" cy="0" r="1" gradientUnits="userSpaceOnUse" gradientTransform="translate(1234.06 1467.39) scale(198.826 29.8239)">
<stop stop-color="#FE1F02"/>
<stop offset="0.18" stop-color="#C91906" stop-opacity="0.79"/>
<stop offset="0.48" stop-color="#74100D" stop-opacity="0.46"/>
<stop offset="0.73" stop-color="#360A13" stop-opacity="0.21"/>
<stop offset="0.91" stop-color="#0F0616" stop-opacity="0.06"/>
<stop offset="1" stop-color="#010518" stop-opacity="0"/>
</radialGradient>
<radialGradient id="paint27_radial_306_9618" cx="0" cy="0" r="1" gradientUnits="userSpaceOnUse" gradientTransform="translate(840.821 1237.61) rotate(45.1) scale(348.398 41.8078)">
<stop stop-color="#FE1F02"/>
<stop offset="0.18" stop-color="#C91906" stop-opacity="0.79"/>
<stop offset="0.48" stop-color="#74100D" stop-opacity="0.46"/>
<stop offset="0.73" stop-color="#360A13" stop-opacity="0.21"/>
<stop offset="0.91" stop-color="#0F0616" stop-opacity="0.06"/>
<stop offset="1" stop-color="#010518" stop-opacity="0"/>
</radialGradient>
<radialGradient id="paint28_radial_306_9618" cx="0" cy="0" r="1" gradientUnits="userSpaceOnUse" gradientTransform="translate(1001.75 1354.49) rotate(45.1) scale(348.398 41.8078)">
<stop stop-color="#5C7B8D"/>
<stop offset="0.05" stop-color="#516D7F" stop-opacity="0.89"/>
<stop offset="0.19" stop-color="#394D60" stop-opacity="0.62"/>
<stop offset="0.33" stop-color="#243345" stop-opacity="0.39"/>
<stop offset="0.48" stop-color="#141E31" stop-opacity="0.22"/>
<stop offset="0.63" stop-color="#091023" stop-opacity="0.1"/>
<stop offset="0.8" stop-color="#03071A" stop-opacity="0.02"/>
<stop offset="1" stop-color="#010518" stop-opacity="0"/>
</radialGradient>
<radialGradient id="paint29_radial_306_9618" cx="0" cy="0" r="1" gradientUnits="userSpaceOnUse" gradientTransform="translate(1182.65 1417.37) rotate(180) scale(168.262 52.1613)">
<stop offset="0.09" stop-color="white"/>
<stop offset="0.22" stop-color="#F4E73D"/>
<stop offset="0.34" stop-color="#F3E33C" stop-opacity="0.99"/>
<stop offset="0.44" stop-color="#F2DA3A" stop-opacity="0.94"/>
<stop offset="0.54" stop-color="#F0CA36" stop-opacity="0.87"/>
<stop offset="0.63" stop-color="#EEB331" stop-opacity="0.77"/>
<stop offset="0.71" stop-color="#EA962A" stop-opacity="0.64"/>
<stop offset="0.8" stop-color="#E67222" stop-opacity="0.48"/>
<stop offset="0.88" stop-color="#E14719" stop-opacity="0.3"/>
<stop offset="0.96" stop-color="#DC170E" stop-opacity="0.08"/>
<stop offset="0.99" stop-color="#DA050A" stop-opacity="0"/>
</radialGradient>
<radialGradient id="paint30_radial_306_9618" cx="0" cy="0" r="1" gradientUnits="userSpaceOnUse" gradientTransform="translate(938.827 1506.25) scale(464.233 464.233)">
<stop stop-color="#5C7B8D"/>
<stop offset="0.05" stop-color="#516D7F" stop-opacity="0.89"/>
<stop offset="0.19" stop-color="#394D60" stop-opacity="0.62"/>
<stop offset="0.33" stop-color="#243345" stop-opacity="0.39"/>
<stop offset="0.48" stop-color="#141E31" stop-opacity="0.22"/>
<stop offset="0.63" stop-color="#091023" stop-opacity="0.1"/>
<stop offset="0.8" stop-color="#03071A" stop-opacity="0.02"/>
<stop offset="1" stop-color="#010518" stop-opacity="0"/>
</radialGradient>
<radialGradient id="paint31_radial_306_9618" cx="0" cy="0" r="1" gradientUnits="userSpaceOnUse" gradientTransform="translate(1215.76 1446.93) scale(217.829 52.2789)">
<stop stop-color="#5C7B8D"/>
<stop offset="0.05" stop-color="#516D7F" stop-opacity="0.89"/>
<stop offset="0.19" stop-color="#394D60" stop-opacity="0.62"/>
<stop offset="0.33" stop-color="#243345" stop-opacity="0.39"/>
<stop offset="0.48" stop-color="#141E31" stop-opacity="0.22"/>
<stop offset="0.63" stop-color="#091023" stop-opacity="0.1"/>
<stop offset="0.8" stop-color="#03071A" stop-opacity="0.02"/>
<stop offset="1" stop-color="#010518" stop-opacity="0"/>
</radialGradient>
<radialGradient id="paint32_radial_306_9618" cx="0" cy="0" r="1" gradientUnits="userSpaceOnUse" gradientTransform="translate(926.499 1260.65) rotate(46.09) scale(374.455 172.249)">
<stop stop-color="#FE1F02"/>
<stop offset="0.05" stop-color="#DF1B04" stop-opacity="0.88"/>
<stop offset="0.15" stop-color="#AC1609" stop-opacity="0.68"/>
<stop offset="0.26" stop-color="#7E110D" stop-opacity="0.5"/>
<stop offset="0.37" stop-color="#570D10" stop-opacity="0.34"/>
<stop offset="0.48" stop-color="#380A13" stop-opacity="0.22"/>
<stop offset="0.59" stop-color="#1F0815" stop-opacity="0.12"/>
<stop offset="0.71" stop-color="#0E0616" stop-opacity="0.05"/>
<stop offset="0.84" stop-color="#040517" stop-opacity="0.01"/>
<stop offset="1" stop-color="#010518" stop-opacity="0"/>
</radialGradient>
<radialGradient id="paint33_radial_306_9618" cx="0" cy="0" r="1" gradientUnits="userSpaceOnUse" gradientTransform="translate(1230.48 1410.79) rotate(0.72) scale(191.123 87.9168)">
<stop stop-color="#FE1F02"/>
<stop offset="0.05" stop-color="#DF1B04" stop-opacity="0.88"/>
<stop offset="0.15" stop-color="#AC1609" stop-opacity="0.68"/>
<stop offset="0.26" stop-color="#7E110D" stop-opacity="0.5"/>
<stop offset="0.37" stop-color="#570D10" stop-opacity="0.34"/>
<stop offset="0.48" stop-color="#380A13" stop-opacity="0.22"/>
<stop offset="0.59" stop-color="#1F0815" stop-opacity="0.12"/>
<stop offset="0.71" stop-color="#0E0616" stop-opacity="0.05"/>
<stop offset="0.84" stop-color="#040517" stop-opacity="0.01"/>
<stop offset="1" stop-color="#010518" stop-opacity="0"/>
</radialGradient>
<clipPath id="clip0_306_9618">
<rect width="1440" height="1594.96" fill="white"/>
</clipPath>
</defs>
</svg>
