<svg width="151" height="36" viewBox="0 0 151 36" fill="none" xmlns="http://www.w3.org/2000/svg">
<g clip-path="url(#clip0_306_4987)">
<path d="M6.42604 6.79712L1.65139 9.49857C1.52573 9.5614 1.52573 9.74989 1.65139 9.87554L12.8341 16.2836C12.9598 16.3464 13.0855 16.3464 13.2111 16.2836L17.9858 13.5822C18.1114 13.5193 18.1114 13.3309 17.9858 13.2052L6.80301 6.79712C6.67735 6.73429 6.55169 6.73429 6.42604 6.79712Z" fill="#8992A3"/>
<path d="M19.1167 6.79712L14.3419 9.49857C14.2163 9.5614 14.2163 9.74989 14.3419 9.87554L19.1795 12.6398C19.305 12.7026 19.4307 12.7026 19.5564 12.6398L24.3309 9.93834C24.4567 9.87551 24.4567 9.68706 24.3309 9.56143L19.4935 6.79712C19.4307 6.73429 19.2424 6.73429 19.1167 6.79712Z" fill="#8992A3"/>
<path d="M13.5252 23.1943V17.6658C13.5252 17.5401 13.6509 17.4145 13.7765 17.3517L18.4884 14.6502C18.614 14.5874 18.8025 14.713 18.8025 14.8387V20.4301C18.8025 20.4929 18.7397 20.5557 18.6768 20.6185L13.8393 23.3828C13.7137 23.4457 13.5252 23.32 13.5252 23.1943Z" fill="#8992A3"/>
<path d="M20.1218 13.7079L24.8964 11.0064C25.0221 10.9436 25.2107 11.0064 25.2107 11.1949V24.0111C25.2107 24.1368 25.1478 24.2623 25.0221 24.388L13.8393 30.6705C13.7137 30.7334 13.5252 30.6705 13.5252 30.482V24.9534C13.5252 24.828 13.5881 24.7023 13.7137 24.5765L19.6821 21.184C19.8075 21.1212 19.8704 20.9955 19.8704 20.807V13.9592C19.8704 13.8964 19.9332 13.7707 20.1218 13.7079Z" fill="#8992A3"/>
<path d="M12.4572 23.2571V17.6657C12.4572 17.5401 12.3944 17.3516 12.2687 17.2888L1.08596 10.8807C0.960335 10.8179 0.771851 10.9435 0.771851 11.0691V23.9483C0.771851 24.1365 0.834679 24.2623 0.960335 24.3251L5.73498 27.0265C5.86064 27.0894 6.0491 26.9637 6.0491 26.8383V20.2415C6.0491 20.0531 6.23758 19.9902 6.36324 20.053L12.2059 23.3828C12.3316 23.4456 12.4572 23.3828 12.4572 23.2571Z" fill="#8992A3"/>
<path d="M7.43124 21.875L12.2059 24.6394C12.3316 24.7023 12.3944 24.8277 12.3944 25.0163V30.5448C12.3944 30.6705 12.2059 30.796 12.0803 30.7334L7.30561 27.9691C7.17995 27.9062 7.11712 27.7805 7.11712 27.592V22.0635C7.11712 21.9378 7.30561 21.8122 7.43124 21.875Z" fill="#8992A3"/>
<path d="M101.48 23.8854V10.8179H104.055V23.8854H101.48Z" fill="#8992A3"/>
<path d="M65.9837 21.2467C66.0466 22.1891 66.4234 22.4404 67.8683 22.3148V24.0111C67.3029 24.074 66.7377 24.1365 66.1723 24.1365C64.2875 24.1365 63.5963 23.5084 63.4706 22.1263C63.408 21.6865 63.408 21.2467 63.408 20.6813V15.8439H61.9629V14.1476H63.408V10.8807H65.9837V14.1476H67.994V15.8439H65.9837V21.2467Z" fill="#8992A3"/>
<path fill-rule="evenodd" clip-rule="evenodd" d="M43.6809 15.09C43.6809 17.4145 42.1104 18.7338 40.2255 18.9851C39.5975 19.0479 39.0949 19.0479 38.3415 19.0479H36.4561V23.8854H33.9432V11.0692H38.4038C39.1575 11.0692 39.5975 11.0692 40.2884 11.132C42.1732 11.3833 43.6809 12.7026 43.6809 15.09ZM40.9795 15.09C40.9795 13.8963 40.3512 13.3309 39.4718 13.2052C39.2204 13.1424 38.7807 13.1424 38.3409 13.1424H36.5189V17.1003H38.3409C38.7807 17.1003 39.2204 17.1003 39.4718 17.0375C40.3512 16.849 40.9795 16.2836 40.9795 15.09Z" fill="#8992A3"/>
<path d="M50.6546 13.8335V15.9067C48.5186 15.781 47.4503 16.7234 47.4503 19.362V23.8854H44.8746V14.022H47.4503V15.8439L48.2043 14.4617C48.7069 14.022 49.3352 13.7706 49.9006 13.7706C50.2146 13.7706 50.4032 13.7706 50.6546 13.8335Z" fill="#8992A3"/>
<path fill-rule="evenodd" clip-rule="evenodd" d="M56.2458 24.1365C59.5129 24.1365 61.3346 21.9378 61.3346 18.9222C61.3346 15.9695 59.5129 13.7706 56.2458 13.7078C52.9789 13.7078 51.1572 15.9067 51.1572 18.9222C51.1572 21.9378 52.9789 24.1365 56.2458 24.1365ZM56.2458 15.5298C57.7537 15.5298 58.696 16.7862 58.696 18.9222C58.696 21.0583 57.7537 22.3148 56.2458 22.3148C54.738 22.3148 53.7958 21.0583 53.7958 18.9222C53.7958 16.7862 54.738 15.5298 56.2458 15.5298Z" fill="#8992A3"/>
<path fill-rule="evenodd" clip-rule="evenodd" d="M73.8369 24.1365C77.1037 24.1365 78.9254 21.9378 78.9254 18.9222C78.9254 15.9695 77.0408 13.7706 73.8369 13.7078C70.5697 13.7078 68.748 15.9067 68.748 18.9222C68.748 21.9378 70.5697 24.1365 73.8369 24.1365ZM73.774 15.5298C75.2817 15.5298 76.224 16.7862 76.224 18.9222C76.224 21.0583 75.3446 22.3148 73.774 22.3148C72.266 22.3148 71.3237 21.0583 71.3237 18.9222C71.3237 16.7862 72.266 15.5298 73.774 15.5298Z" fill="#8992A3"/>
<path d="M89.2288 17.6029H86.7157C86.4645 16.158 85.7105 15.5926 84.7054 15.5926C83.386 15.5926 82.5065 16.6606 82.5065 18.9223C82.5065 21.3724 83.4488 22.3776 84.7054 22.3776C85.7105 22.3776 86.4645 21.7493 86.7157 20.4929H89.2917C88.8517 22.943 87.03 24.1365 84.5797 24.1365C81.8783 24.1365 79.868 22.4404 79.868 19.0479C79.868 15.6554 82.0668 13.7706 84.7683 13.7706C87.4068 13.7706 89.0403 15.4041 89.2288 17.6029Z" fill="#8992A3"/>
<path fill-rule="evenodd" clip-rule="evenodd" d="M95.26 24.1365C98.5268 24.1365 100.349 21.9378 100.349 18.9222C100.349 15.9695 98.5268 13.7706 95.26 13.7078C91.9931 13.7078 90.1711 15.9067 90.1711 18.9222C90.1711 21.9378 91.9931 24.1365 95.26 24.1365ZM95.26 15.5298C96.7677 15.5298 97.7099 16.7862 97.7099 18.9222C97.7099 21.0583 96.7677 22.3148 95.26 22.3148C93.7522 22.3148 92.8097 21.0583 92.8097 18.9222C92.8097 16.7862 93.7522 15.5298 95.26 15.5298Z" fill="#8992A3"/>
<path d="M110.652 23.8854H119.887V21.7494H113.228V10.8179H110.652V23.8854Z" fill="#8992A3"/>
<path fill-rule="evenodd" clip-rule="evenodd" d="M126.798 22.4405L126.295 23.5084C125.604 23.9482 124.787 24.1365 123.845 24.1365C122.149 24.1365 120.704 23.1315 120.704 21.2468C120.704 19.0479 122.588 17.8542 126.107 17.8542H126.735V17.6657C126.735 17.3516 126.735 17.1003 126.672 16.7234C126.609 16.0323 126.17 15.5298 125.164 15.5298C124.159 15.5298 123.594 16.0951 123.531 17.226H121.018C121.081 15.0271 122.903 13.7706 125.227 13.7706C127.992 13.7706 128.997 14.9643 129.185 16.6606C129.248 17.1003 129.248 17.6657 129.248 18.1683V21.3724C129.248 22.1263 129.311 22.7546 129.436 23.8854H126.923L126.798 22.4405ZM126.798 20.2416V19.4248C124.787 19.2992 123.405 19.739 123.405 21.0583C123.405 21.9379 123.971 22.3148 124.913 22.3148C125.918 22.3148 126.798 21.6237 126.798 20.2416Z" fill="#8992A3"/>
<path fill-rule="evenodd" clip-rule="evenodd" d="M136.787 24.1368C139.3 24.1368 141.499 22.3148 141.499 18.7338C141.499 15.8439 139.865 13.7706 137.164 13.7706C136.159 13.7706 135.154 14.022 134.588 14.4618L133.834 15.5298V10.8179H131.258V23.8854H133.834V22.5661L134.462 23.5713C134.965 23.9482 135.97 24.1368 136.787 24.1368ZM136.284 15.5298C137.855 15.5298 138.797 16.9119 138.797 18.9223C138.797 21.1839 137.729 22.3148 136.159 22.252C134.965 22.252 133.708 21.4981 133.708 19.2364V18.7966C133.708 16.4093 134.902 15.5298 136.284 15.5298Z" fill="#8992A3"/>
<path d="M150.483 16.849H147.907C147.718 15.9695 147.216 15.4041 146.399 15.4041C145.645 15.4041 145.206 15.8439 145.206 16.4721C145.206 17.226 145.834 17.6029 147.467 17.9799C149.478 18.4825 150.671 19.2992 150.671 21.1211C150.671 23.1315 148.849 24.074 146.588 24.074C144.2 24.074 142.504 23.0058 142.253 20.807H144.828C145.017 21.875 145.771 22.3776 146.65 22.3776C147.467 22.3776 148.095 22.0006 148.095 21.3096C148.095 20.5557 147.467 20.1159 145.771 19.6761C143.949 19.2364 142.692 18.4197 142.692 16.7234C142.692 14.8386 144.263 13.7078 146.588 13.7078C148.912 13.7078 150.231 15.09 150.483 16.849Z" fill="#8992A3"/>
</g>
<defs>
<clipPath id="clip0_306_4987">
<rect width="150" height="36" fill="white" transform="translate(0.771851)"/>
</clipPath>
</defs>
</svg>
