<svg width="24" height="24" viewBox="0 0 24 24" fill="none" xmlns="http://www.w3.org/2000/svg">
<path d="M6.49994 8C6.2238 8 5.99994 8.22386 5.99994 8.5V9.5C5.99994 9.77614 6.2238 10 6.49994 10H13.4999C13.7761 10 13.9999 10.2239 13.9999 10.5V11L13.9949 11.5C13.9921 11.7722 13.7722 11.9922 13.5 11.9949L12.9999 12H12.4999C12.2238 12 11.9999 12.2239 11.9999 12.5V13L11.9949 13.5C11.9921 13.7722 11.7722 13.9922 11.5 13.9949L10.9999 14H10.4999C10.2238 14 9.99994 14.2239 9.99994 14.5V15L9.99489 15.5C9.99214 15.7722 9.77216 15.9922 9.49996 15.9949L8.99994 16H8.49994C8.2238 16 7.99994 16.2239 7.99994 16.5V17L7.99489 17.5C7.99214 17.7722 7.77216 17.9922 7.49996 17.9949L6.99994 18H6.49994C6.2238 18 5.99994 18.2239 5.99994 18.5V19.5C5.99994 19.7761 6.2238 20 6.49994 20H7.49994C7.77608 20 7.99994 19.7761 7.99994 19.5V19L8.00499 18.5C8.00774 18.2278 8.22772 18.0078 8.49991 18.0051L8.99994 18H9.49994C9.77608 18 9.99994 17.7761 9.99994 17.5V17L10.005 16.5C10.0077 16.2278 10.2277 16.0078 10.4999 16.0051L10.9999 16H11.4999C11.7761 16 11.9999 15.7761 11.9999 15.5V15L12.005 14.5C12.0077 14.2278 12.2277 14.0078 12.4999 14.0051L12.9999 14H13.4999C13.7761 14 13.9999 13.7761 13.9999 13.5V13L14.005 12.5C14.0077 12.2278 14.2277 12.0078 14.4999 12.0051L14.9999 12H15.4999C15.7761 12 15.9999 12.2239 15.9999 12.5V19.5C15.9999 19.7761 16.2238 20 16.4999 20H17.4999C17.7761 20 17.9999 19.7761 17.9999 19.5V8.5C17.9999 8.22386 17.7761 8 17.4999 8H6.49994Z" fill="#000A1E"/>
<path d="M6.49994 6C6.2238 6 5.99994 6.22386 5.99994 6.5V7.5C5.99994 7.77614 6.2238 8 6.49994 8H13.4999C13.7761 8 13.9999 8.22386 13.9999 8.5V9L13.9949 9.50002C13.9921 9.77222 13.7722 9.9922 13.5 9.99495L12.9999 10H12.4999C12.2238 10 11.9999 10.2239 11.9999 10.5V11L11.9949 11.5C11.9921 11.7722 11.7722 11.9922 11.5 11.9949L10.9999 12H10.4999C10.2238 12 9.99994 12.2239 9.99994 12.5V13L9.99489 13.5C9.99214 13.7722 9.77216 13.9922 9.49996 13.9949L8.99994 14H8.49994C8.2238 14 7.99994 14.2239 7.99994 14.5V15L7.99489 15.5C7.99214 15.7722 7.77216 15.9922 7.49996 15.9949L6.99994 16H6.49994C6.2238 16 5.99994 16.2239 5.99994 16.5V17.5C5.99994 17.7761 6.2238 18 6.49994 18H7.49994C7.77608 18 7.99994 17.7761 7.99994 17.5V17L8.00499 16.5C8.00774 16.2278 8.22772 16.0078 8.49991 16.0051L8.99994 16H9.49994C9.77608 16 9.99994 15.7761 9.99994 15.5V15L10.005 14.5C10.0077 14.2278 10.2277 14.0078 10.4999 14.0051L10.9999 14H11.4999C11.7761 14 11.9999 13.7761 11.9999 13.5V13L12.005 12.5C12.0077 12.2278 12.2277 12.0078 12.4999 12.0051L12.9999 12H13.4999C13.7761 12 13.9999 11.7761 13.9999 11.5V11L14.005 10.5C14.0077 10.2278 14.2277 10.0078 14.4999 10.0051L14.9999 10H15.4999C15.7761 10 15.9999 10.2239 15.9999 10.5V17.5C15.9999 17.7761 16.2238 18 16.4999 18H17.4999C17.7761 18 17.9999 17.7761 17.9999 17.5V6.5C17.9999 6.22386 17.7761 6 17.4999 6H6.49994Z" fill="#8992A3"/>
</svg>
