<svg width="144" height="144" viewBox="0 0 144 144" fill="none" xmlns="http://www.w3.org/2000/svg">
<rect width="144" height="144" rx="72" fill="#000A1E"/>
<g clip-path="url(#clip0_402_379)">
<path d="M53.5977 42.345L60.8877 35.4L77.9877 32.2725L105.13 33.105L106.57 35.385L111.175 40.0575L113.298 41.6775L113.463 99.4725L111.168 104.047L106.57 108.622L94.1427 111.367L60.8877 108.622L56.2752 104.047L53.5977 42.345Z" fill="#010518"/>
<path d="M106.593 44.5649H100.233V49.1249H106.593V44.5649Z" fill="#075886"/>
<path d="M116.935 44.5575H106.57V49.155H116.935V44.5575Z" fill="#075886"/>
<path d="M120.318 44.5725H106.57V49.1475H120.318V44.5725Z" fill="#075886"/>
<path d="M47.0952 40.005H42.5652V104.055H47.0952V40.005Z" fill="white"/>
<path d="M56.2675 40.005H51.7375V104.055H56.2675V40.005Z" fill="white"/>
<path d="M106.57 44.5575H60.8501V99.39H106.57V44.5575Z" fill="url(#paint0_linear_402_379)"/>
<path d="M102.018 40.0199H65.425V104.07H102.018V40.0199Z" fill="url(#paint1_linear_402_379)"/>
<path d="M60.865 35.4075H56.29V39.96H60.865V35.4075Z" fill="#075886"/>
<path d="M111.168 35.475H106.593V40.05H111.168V35.475Z" fill="url(#paint2_linear_402_379)"/>
<path d="M115.75 40.0575H111.175V44.6325H115.75V40.0575Z" fill="url(#paint3_linear_402_379)"/>
<path d="M60.8501 104.047H56.2751V108.6H60.8501V104.047Z" fill="url(#paint4_linear_402_379)"/>
<path d="M56.2825 108.622H51.7075V113.175H56.2825V108.622Z" fill="url(#paint5_linear_402_379)"/>
<path d="M56.2825 30.8474H51.7075V35.3999H56.2825V30.8474Z" fill="white"/>
<path d="M70.0075 53.7749H74.56V58.3274H60.8125V53.7749H69.985H70.0075ZM74.5675 62.8799H79.1425V58.3274H74.5675V62.8799ZM88.3 62.8799H92.875V58.3274H88.3V62.8799ZM92.875 58.3049H97.45V53.7524H92.875V58.3049ZM97.45 53.7299H102.025V49.1774H97.45V53.7299ZM102.025 49.1549H120.317V44.4824H102.025V49.1549ZM79.18 67.4549H88.3075V62.9024H79.135L79.18 67.4549Z" fill="white"/>
<path d="M65.4327 67.4924H60.8052V72.0449H65.4327V67.4924Z" fill="#FFCB5C"/>
<path d="M70.0076 72.075H65.4326V76.6275H70.0076V72.075Z" fill="#FFCB5C"/>
<path d="M74.5601 76.6274H69.9851V81.1799H74.5601V76.6274Z" fill="#FFCB5C"/>
<path d="M79.1426 81.1725H74.5676V85.725H79.1426V81.1725Z" fill="#FFCB5C"/>
<path d="M92.8826 81.1725H88.3076V85.725H92.8826V81.1725Z" fill="#FFCB5C"/>
<path d="M97.45 76.5974H92.875V81.1499H97.45V76.5974Z" fill="#FFCB5C"/>
<path d="M102.025 72.075H97.4502V76.6275H102.025V72.075Z" fill="#FFCB5C"/>
<path d="M106.6 67.4624H102.025V72.0899H106.6V67.4624Z" fill="#FFCB5C"/>
<path d="M65.4327 72.0599H60.8577V76.6124H65.4327V72.0599Z" fill="#010518"/>
<path d="M70 76.6274H65.425V81.1799H70V76.6274Z" fill="#010518"/>
<path d="M74.5601 81.1725H69.9851V85.725H74.5601V81.1725Z" fill="#010518"/>
<path d="M79.1426 85.7324H74.5676V90.2849H79.1426V85.7324Z" fill="#010518"/>
<path d="M88.3001 90.2999H79.1426V94.8524H88.3001V90.2999Z" fill="#010518"/>
<path d="M92.8826 85.7324H88.3076V90.2849H92.8826V85.7324Z" fill="#010518"/>
<path d="M97.4576 81.1499H92.8826V85.7024H97.4576V81.1499Z" fill="#010518"/>
<path d="M102.025 76.6274H97.4502V81.1799H102.025V76.6274Z" fill="#010518"/>
<path d="M106.6 72.1499H102.025V76.7024H106.6V72.1499Z" fill="#010518"/>
<path d="M88.3077 85.7474H79.1501V90.2999H88.3077V85.7474Z" fill="#FFCB5C"/>
<path d="M51.7151 104.047H47.1401V108.6H51.7151V104.047Z" fill="url(#paint6_linear_402_379)"/>
<path d="M51.7151 35.4225H47.1401V39.975H51.7151V35.4225Z" fill="white"/>
<path d="M106.57 30.8324H60.8652V35.3849H106.57V30.8324Z" fill="white"/>
<path d="M111.19 49.1775H115.72V104.062H111.19V49.1775ZM111.168 104.047H106.593V108.6H111.168V104.047ZM106.57 108.622H60.8877V113.175H106.57V108.622Z" fill="url(#paint7_linear_402_379)"/>
<path d="M115.75 62.8724H111.175V67.4249H115.75V62.8724Z" fill="#010518"/>
<path d="M111.175 67.4624H106.6V72.0899H111.175V67.4624Z" fill="#010518"/>
<path d="M92.8601 30.825V35.4H60.8876V30.825H92.8601ZM56.2676 39.975H60.8876V35.4H56.2676V39.975Z" fill="white"/>
<path d="M111.175 62.8724H106.6V67.4624H111.175V62.8724Z" fill="#FFCB5C"/>
<path d="M115.75 58.3274H111.175V62.8799H115.75V58.3274Z" fill="#FFCB5C"/>
<path d="M115.75 49.1849H110.845V58.3274H115.75V49.1849Z" fill="white"/>
<path d="M120.31 48.9149H102.025V53.7149H120.31V48.9149Z" fill="white"/>
<path d="M60.8127 58.3274L63.1677 58.3199H65.6952L74.5677 58.3274V62.8799H79.1427L79.1802 67.4549H88.3077V62.7524L92.8827 62.8799L92.8752 58.3049H97.4502V53.7449L102.025 53.7299V49.1549L111.153 49.1699L111.175 62.8724H106.6V67.4699L102.025 67.4549V72.0974L97.4502 72.0824V76.6349L92.8752 76.6199V81.1724L88.3077 81.1574V85.7624L79.1577 85.7249V81.1724L74.5602 81.1799V76.6199H69.9852L70.0077 72.0824H65.4327L65.4552 67.4774H60.8052L60.8127 58.3274Z" fill="white"/>
<path d="M37.9825 49.1775H23.3425V53.7075H37.9825V49.1775Z" fill="white"/>
<path d="M37.9826 67.485H19.6826V72.015H37.9826V67.485Z" fill="white"/>
<path d="M37.9827 85.7549H26.9727V90.3599H37.9827V85.7549Z" fill="white"/>
</g>
<defs>
<linearGradient id="paint0_linear_402_379" x1="112.173" y1="112.643" x2="54.5726" y2="30.33" gradientUnits="userSpaceOnUse">
<stop stop-color="#FCEE21"/>
<stop offset="1" stop-color="#DA050A"/>
</linearGradient>
<linearGradient id="paint1_linear_402_379" x1="112.15" y1="112.665" x2="54.5425" y2="30.3524" gradientUnits="userSpaceOnUse">
<stop stop-color="#FCEE21"/>
<stop offset="1" stop-color="#DA050A"/>
</linearGradient>
<linearGradient id="paint2_linear_402_379" x1="145.135" y1="89.58" x2="87.535" y2="7.25999" gradientUnits="userSpaceOnUse">
<stop stop-color="#FCEE21"/>
<stop offset="1" stop-color="#DA050A"/>
</linearGradient>
<linearGradient id="paint3_linear_402_379" x1="146.065" y1="88.9275" x2="88.4576" y2="6.615" gradientUnits="userSpaceOnUse">
<stop stop-color="#FCEE21"/>
<stop offset="1" stop-color="#DA050A"/>
</linearGradient>
<linearGradient id="paint4_linear_402_379" x1="79.1576" y1="135.75" x2="21.5501" y2="53.4375" gradientUnits="userSpaceOnUse">
<stop stop-color="#FCEE21"/>
<stop offset="1" stop-color="#DA050A"/>
</linearGradient>
<linearGradient id="paint5_linear_402_379" x1="73.945" y1="139.402" x2="16.3375" y2="57.0825" gradientUnits="userSpaceOnUse">
<stop stop-color="#FCEE21"/>
<stop offset="1" stop-color="#DA050A"/>
</linearGradient>
<linearGradient id="paint6_linear_402_379" x1="73.0226" y1="140.047" x2="15.4151" y2="57.7275" gradientUnits="userSpaceOnUse">
<stop stop-color="#FCEE21"/>
<stop offset="1" stop-color="#DA050A"/>
</linearGradient>
<linearGradient id="paint7_linear_402_379" x1="110.935" y1="113.512" x2="53.3277" y2="31.2" gradientUnits="userSpaceOnUse">
<stop stop-color="#FCEE21"/>
<stop offset="1" stop-color="#DA050A"/>
</linearGradient>
<clipPath id="clip0_402_379">
<rect width="108" height="108" fill="white" transform="translate(16 18)"/>
</clipPath>
</defs>
</svg>
