<svg width="40" height="40" viewBox="0 0 40 40" fill="none" xmlns="http://www.w3.org/2000/svg">
<g clip-path="url(#clip0_306_5111)">
<path fill-rule="evenodd" clip-rule="evenodd" d="M40 20C40 31.0458 31.0459 40 20.0003 40C8.95465 40 0 31.0458 0 20C0 8.95417 8.95465 0 20.0003 0C31.0459 0 40 8.95417 40 20Z" fill="#29296E"/>
<path fill-rule="evenodd" clip-rule="evenodd" d="M28.591 15.0633L28.1216 13.613C28.0262 13.318 27.7934 13.0885 27.4973 12.998L26.0399 12.5498C25.8381 12.4881 25.8365 12.2036 26.0366 12.1387L27.4875 11.6692C27.7819 11.5738 28.0115 11.341 28.1025 11.0449L28.5501 9.58748C28.6118 9.38629 28.8964 9.38412 28.9613 9.58475L29.4307 11.0351C29.5261 11.3295 29.7589 11.559 30.055 11.6501L31.5124 12.0978C31.7142 12.1599 31.7163 12.444 31.5157 12.5089L30.0648 12.9783C29.7704 13.0737 29.5408 13.3071 29.4498 13.6031L29.0022 15.06C28.9406 15.2618 28.6559 15.264 28.591 15.0633Z" fill="#FAFAFA"/>
<path fill-rule="evenodd" clip-rule="evenodd" d="M3.21703 19.7069C3.65594 18.8471 4.52396 18.1994 5.42578 17.7899C6.33686 17.3848 7.33848 17.1361 8.32208 17.0555C10.3078 16.8761 12.2423 17.2081 14.0045 17.7823C14.9124 18.0527 15.7248 18.4284 16.5639 18.8078C16.9717 19.0041 17.355 19.2266 17.7498 19.4414L18.8403 20.0733C20.0376 20.8072 21.1984 21.4571 22.2889 21.962C23.3821 22.4626 24.3701 22.8011 25.3013 22.974C26.2326 23.149 27.1791 23.1469 28.3432 22.8797C29.498 22.6185 30.7973 22.0553 32.1555 21.3328C33.5218 20.6098 34.9231 19.7233 36.5218 18.8569C36.3614 20.6676 35.8489 22.3655 35.0485 24.005C34.2285 25.625 33.0878 27.205 31.4249 28.4847C29.7935 29.7747 27.5531 30.6738 25.2724 30.8091C22.9906 30.9633 20.82 30.4606 18.9733 29.7044C17.1195 28.9373 15.5176 27.9291 14.0978 26.8163C13.7057 26.5088 13.4953 26.3343 13.2058 26.0895L12.3972 25.3812C11.8525 24.9548 11.3247 24.4451 10.7855 24.0225C9.70971 23.1234 8.6454 22.2227 7.47859 21.4419C6.89027 21.045 6.28345 20.6769 5.59535 20.3509C5.25349 20.1933 4.89036 20.0466 4.50052 19.931C4.1014 19.8007 3.69575 19.7233 3.21703 19.7069Z" fill="#F6643C"/>
<path fill-rule="evenodd" clip-rule="evenodd" d="M3.21703 19.707C3.44112 17.844 4.30968 16.0965 5.70167 14.6091C7.08656 13.1359 9.25006 12.0001 11.6507 11.8496C12.8356 11.7705 14.0383 11.9025 15.1441 12.2089C16.2449 12.5143 17.2765 12.9592 18.2061 13.4831C18.6707 13.7465 19.1052 14.0344 19.5381 14.325L20.6919 15.1985L22.4928 16.6194C23.6618 17.5501 24.7773 18.411 25.8084 19.122C26.8492 19.8341 27.7358 20.3542 28.5825 20.659C29.4217 20.9916 30.4816 21.0767 31.8829 20.7244C32.5786 20.5641 33.3043 20.2714 34.0785 19.954C34.8484 19.6291 35.6477 19.2414 36.5218 18.857C36.4165 19.7937 36.2262 20.7266 35.8647 21.5985C35.5174 22.4823 35.06 23.3471 34.4204 24.1534C34.0933 24.546 33.7427 24.9408 33.3337 25.305C32.9248 25.6605 32.4717 25.998 31.9712 26.294C30.9729 26.8725 29.7886 27.2951 28.5738 27.4456C27.359 27.5983 26.1394 27.5219 25.0287 27.2864C23.912 27.0574 22.8946 26.6882 21.9606 26.2619C20.0992 25.396 18.542 24.3077 17.1653 23.1557C16.4739 22.5804 15.8256 21.9796 15.2117 21.3695L14.4865 20.6416C14.2679 20.4306 14.0471 20.2185 13.8284 20.0244C12.9473 19.2452 12.1295 18.6498 11.2287 18.2785C10.3346 17.8897 9.1901 17.73 7.7861 17.9928C6.38759 18.2529 4.85328 18.8576 3.21703 19.707Z" fill="#FAFAFA"/>
<path fill-rule="evenodd" clip-rule="evenodd" d="M10.5965 29.3145C10.5965 29.8657 10.1494 30.3128 9.59813 30.3128C9.04689 30.3128 8.60033 29.8657 8.60033 29.3145C8.60033 28.7633 9.04689 28.3162 9.59813 28.3162C10.1494 28.3162 10.5965 28.7633 10.5965 29.3145Z" fill="#FAFAFA"/>
<path fill-rule="evenodd" clip-rule="evenodd" d="M10.5965 29.3145C10.5965 29.8657 10.1494 30.3128 9.59813 30.3128C9.04689 30.3128 8.60033 29.8657 8.60033 29.3145C8.60033 28.7633 9.04689 28.3162 9.59813 28.3162C10.1494 28.3162 10.5965 28.7633 10.5965 29.3145Z" fill="#FAFAFA"/>
</g>
<defs>
<clipPath id="clip0_306_5111">
<rect width="40" height="40" fill="white"/>
</clipPath>
</defs>
</svg>
