<svg width="144" height="144" viewBox="0 0 144 144" fill="none" xmlns="http://www.w3.org/2000/svg">
<rect width="144" height="144" rx="72" fill="#000A1E"/>
<g clip-path="url(#clip0_402_302)">
<path d="M35.4751 72.0375H30.8401V99.555H35.4526V104.092H39.9601V108.66H72.0676V67.4325H35.4751V72.0375Z" fill="url(#paint0_linear_402_302)"/>
<path d="M104.07 30.8625H58.3125V35.4825L53.7375 35.4375V85.7701H108.608L108.615 35.565H104.033L104.07 30.8625Z" fill="url(#paint1_linear_402_302)"/>
<path d="M71.985 67.5H53.73V81.2475H71.985V67.5Z" fill="#010518"/>
<path d="M104.07 94.8976H90.3301V108.638H104.07V94.8976Z" fill="#010518"/>
<path d="M44.6025 35.4375H30.8625V49.1775H44.6025V35.4375Z" fill="#010518"/>
<path d="M30.9076 104.093H35.4151V108.6H30.9076V104.093ZM90.3301 113.138H104.063V108.63H90.3301V113.138ZM104.078 108.683H108.615V94.9126H104.078V108.683ZM44.6026 49.2901H30.8701V53.7976H44.6026V49.2901ZM49.1626 35.5651H44.6251V49.3351H49.1626V35.5651ZM108.623 40.0576L108.608 85.7551H75.3826V85.7851H72.0751V108.63H35.4751V113.138H72.0676V108.683H76.6051V90.3076H108.6V85.7926H113.16V40.0576H108.623Z" fill="white"/>
<path d="M76.6127 62.8876H67.4626V72.0376H76.6127V62.8876Z" fill="#010518"/>
<path d="M81.1876 58.3125H72.0376V67.4625H81.1876V58.3125Z" fill="#010518"/>
<path d="M85.7625 53.7375H76.6125V62.8875H85.7625V53.7375Z" fill="#010518"/>
<path d="M90.3375 49.17H81.1875V58.32H90.3375V49.17Z" fill="#010518"/>
<path d="M94.9127 44.5951H85.7627V53.7451H94.9127V44.5951Z" fill="#010518"/>
<path d="M85.7625 44.5951H76.6125V49.1701H85.7625V44.5951Z" fill="#010518"/>
<path d="M94.9051 53.7375H90.3301V62.8875H94.9051V53.7375Z" fill="#010518"/>
<path d="M94.9126 58.545H90.3301V67.5H94.9126V58.545Z" fill="#010518"/>
<path d="M71.9927 44.5876V49.1626H81.0977V44.5876H71.9927Z" fill="#010518"/>
<path d="M104.033 35.46H58.2826V30.885H104.07L104.033 35.46ZM58.3201 62.9025V35.445H53.7451V62.9025H58.3201Z" fill="#FFCB5C"/>
<path d="M76.6125 67.4625H35.415V72.0375H76.6125V67.4625Z" fill="#010518"/>
<path d="M35.4451 99.4801V72.0226H30.8701V99.4801H35.4451Z" fill="#FFCB5C"/>
<path d="M35.475 49.1775V40.0575H44.6176V35.4375H30.8625V49.29L35.475 49.1775Z" fill="#FFCB5C"/>
<path d="M94.9277 108.69V99.5701H104.07V94.9501H90.3152V108.803L94.9277 108.69Z" fill="#FFCB5C"/>
<path d="M67.4625 104.055H39.675V108.593H67.4625V104.055Z" fill="#010518"/>
<path d="M104.085 81.2025H58.2375V85.74H104.085V81.2025Z" fill="#010518"/>
<path d="M67.4626 72.1051H58.3201V81.2476H67.4626V72.1051Z" fill="#FFCB5C"/>
<path d="M108.608 76.6801H104.078V81.2101H108.608V76.6801Z" fill="#010518"/>
<path d="M39.9751 40.0575H35.4451V44.5875H39.9751V40.0575Z" fill="white"/>
<path d="M99.435 99.5026H94.905V104.033H99.435V99.5026Z" fill="white"/>
<path d="M72.0752 99.5026H67.5452V104.033H72.0752V99.5026Z" fill="#010518"/>
</g>
<defs>
<linearGradient id="paint0_linear_402_302" x1="88.2076" y1="124.672" x2="16.4401" y2="44.265" gradientUnits="userSpaceOnUse">
<stop stop-color="#FCEE21"/>
<stop offset="1" stop-color="#DA050A"/>
</linearGradient>
<linearGradient id="paint1_linear_402_302" x1="116.085" y1="99.7876" x2="44.325" y2="19.3801" gradientUnits="userSpaceOnUse">
<stop stop-color="#FCEE21"/>
<stop offset="1" stop-color="#DA050A"/>
</linearGradient>
<clipPath id="clip0_402_302">
<rect width="108" height="108" fill="white" transform="translate(18 18)"/>
</clipPath>
</defs>
</svg>
