<svg width="32" height="32" viewBox="0 0 32 32" fill="none" xmlns="http://www.w3.org/2000/svg">
<path d="M25.6765 11.2595C25.6765 11.3676 25.6765 11.4711 25.6765 11.5702C25.6765 11.6693 25.6765 11.7728 25.6765 11.8809C25.6765 13.4118 25.3883 14.9607 24.812 16.5277C24.2356 18.0946 23.3891 19.513 22.2725 20.7828C21.1558 22.0525 19.778 23.0836 18.139 23.8761C16.5 24.6866 14.6089 25.0919 12.4656 25.0919C11.1508 25.0919 9.89001 24.9072 8.68327 24.538C7.47654 24.1688 6.35988 23.651 5.33325 22.9846C5.53137 23.0206 5.72048 23.0386 5.90059 23.0386C6.0807 23.0386 6.26982 23.0386 6.46794 23.0386C7.54859 23.0386 8.5797 22.8675 9.5613 22.5253C10.5429 22.1831 11.4299 21.6968 12.2224 21.0664C11.2138 21.0484 10.3133 20.7377 9.52078 20.1344C8.72829 19.531 8.17897 18.7701 7.87278 17.8515C8.01687 17.8695 8.16546 17.8875 8.31855 17.9055C8.47164 17.9235 8.62023 17.9325 8.76432 17.9325C8.98045 17.9325 9.18757 17.9145 9.38569 17.8785C9.58382 17.8425 9.78193 17.8065 9.98005 17.7704C8.91741 17.5543 8.03038 17.023 7.31895 16.1765C6.60752 15.33 6.25181 14.3394 6.25181 13.2047V13.1507C6.576 13.3128 6.9137 13.4478 7.26492 13.5559C7.61613 13.664 7.98085 13.727 8.35908 13.745C7.72869 13.3308 7.22439 12.7814 6.84616 12.097C6.46793 11.4126 6.27882 10.6742 6.27882 9.88169C6.27882 9.44942 6.33736 9.03518 6.45443 8.63894C6.5715 8.2427 6.72909 7.87348 6.92721 7.53127C7.50356 8.2337 8.14294 8.87308 8.84537 9.44943C9.5478 10.0258 10.3042 10.5211 11.1147 10.9353C11.9252 11.3496 12.7897 11.6828 13.7083 11.9349C14.6088 12.1871 15.5364 12.3402 16.491 12.3942C16.455 12.2141 16.4279 12.034 16.4099 11.8539C16.3919 11.6738 16.3829 11.4937 16.3829 11.3135C16.3829 10.0348 16.8332 8.94062 17.7337 8.03107C18.6343 7.12152 19.7329 6.66675 21.0297 6.66675C21.6961 6.66675 22.322 6.80183 22.9073 7.07199C23.4927 7.34216 23.9925 7.70237 24.4068 8.15264C24.9471 8.04458 25.4649 7.89599 25.9602 7.70688C26.4555 7.51776 26.9193 7.28812 27.3515 7.01796C27.1894 7.55829 26.9328 8.04908 26.5816 8.49035C26.2303 8.93162 25.8116 9.29633 25.3253 9.58451C25.7936 9.53047 26.2529 9.44042 26.7031 9.31434C27.1534 9.18827 27.5857 9.03518 27.9999 8.85507C27.6757 9.32335 27.32 9.76011 26.9328 10.1654C26.5455 10.5706 26.1268 10.9353 25.6765 11.2595Z" fill="white"/>
</svg>
