<svg width="32" height="32" viewBox="0 0 32 32" fill="none" xmlns="http://www.w3.org/2000/svg">
<path d="M15.9868 4.66675C14.4242 4.66675 12.9503 4.96861 11.5653 5.57235C10.198 6.15833 8.99943 6.96626 7.96953 7.99616C6.93962 9.02607 6.13169 10.2246 5.54571 11.5919C4.95973 12.977 4.66675 14.4508 4.66675 16.0134C4.66675 17.2564 4.85319 18.4461 5.22609 19.5825C5.61674 20.719 6.15388 21.7577 6.83753 22.6989C7.52117 23.64 8.34242 24.4568 9.3013 25.1493C10.2424 25.8596 11.2812 26.4012 12.4176 26.7741C12.7017 26.8273 12.9015 26.7874 13.0169 26.6542C13.1323 26.521 13.1901 26.3745 13.1901 26.2147C13.1901 26.0904 13.1856 25.8552 13.1767 25.5089C13.1679 25.1626 13.1634 24.7587 13.1634 24.297C11.583 24.6344 10.5532 24.4657 10.0737 23.7909C9.59428 23.1161 9.35457 22.7788 9.35457 22.7788C9.08821 22.1218 8.80854 21.6823 8.51555 21.4603C8.22256 21.2384 8.07607 21.1274 8.07607 21.1274C7.56112 20.7722 7.4457 20.568 7.72981 20.5148C8.01392 20.4615 8.15598 20.4349 8.15598 20.4349C8.7242 20.4704 9.15924 20.6746 9.46111 21.0475C9.76298 21.4204 9.91391 21.6068 9.91391 21.6068C10.4111 22.4592 11.0015 22.8631 11.6852 22.8187C12.3688 22.7743 12.8704 22.6811 13.1901 22.5391C13.2433 22.1662 13.3365 21.8554 13.4697 21.6068C13.6029 21.3582 13.7494 21.1629 13.9092 21.0208C12.6662 20.8788 11.4987 20.4526 10.4067 19.7423C9.31461 19.0321 8.76859 17.5938 8.76859 15.4274C8.76859 14.8059 8.87069 14.2422 9.0749 13.7361C9.2791 13.23 9.55877 12.7816 9.91391 12.391C9.86064 12.2312 9.78961 11.8849 9.70083 11.3522C9.61204 10.8195 9.72746 10.1625 10.0471 9.3812C10.0471 9.3812 10.2957 9.39008 10.7929 9.40784C11.2901 9.42559 12.0802 9.79848 13.1634 10.5265C13.6073 10.4022 14.069 10.309 14.5485 10.2468C15.0279 10.1847 15.5073 10.1536 15.9868 10.1536C16.4662 10.1536 16.9456 10.1847 17.4251 10.2468C17.9045 10.309 18.3751 10.4022 18.8367 10.5265C19.9199 9.79848 20.7101 9.42559 21.2073 9.40784C21.7045 9.39008 21.9531 9.3812 21.9531 9.3812C22.2549 10.1625 22.3615 10.8195 22.2727 11.3522C22.1839 11.8849 22.1129 12.2312 22.0596 12.391C22.4148 12.7816 22.6944 13.23 22.8986 13.7361C23.1028 14.2422 23.2049 14.8059 23.2049 15.4274C23.2049 17.5938 22.6589 19.0321 21.5669 19.7423C20.4748 20.4526 19.2984 20.8788 18.0377 21.0208C18.2508 21.1984 18.4328 21.4603 18.5837 21.8066C18.7346 22.1528 18.8101 22.5834 18.8101 23.0984C18.8101 23.8619 18.8101 24.5278 18.8101 25.096C18.8101 25.6643 18.8101 26.0372 18.8101 26.2147C18.8101 26.3745 18.8678 26.521 18.9832 26.6542C19.0987 26.7874 19.2984 26.8273 19.5825 26.7741C20.7012 26.3834 21.74 25.8418 22.6989 25.1493C23.64 24.4568 24.4524 23.64 25.136 22.6989C25.8196 21.7577 26.3568 20.719 26.7474 19.5825C27.1381 18.4461 27.3334 17.2564 27.3334 16.0134C27.3334 14.4508 27.0316 12.977 26.4278 11.5919C25.8418 10.2246 25.0339 9.02607 24.004 7.99616C22.9741 6.96626 21.7755 6.15833 20.4082 5.57235C19.0232 4.96861 17.5494 4.66675 15.9868 4.66675Z" fill="white"/>
</svg>
