<svg width="125" height="36" viewBox="0 0 125 36" fill="none" xmlns="http://www.w3.org/2000/svg">
<g clip-path="url(#clip0_306_4989)">
<path fill-rule="evenodd" clip-rule="evenodd" d="M31.7604 18C31.7604 26.6984 24.7874 33.75 16.1856 33.75C7.5839 33.75 0.61084 26.6984 0.61084 18C0.61084 9.30149 7.5839 2.25 16.1856 2.25C24.7874 2.25 31.7604 9.30149 31.7604 18ZM24.6311 23.6C20.52 19.11 17.6209 13.6256 16.2128 7.67448C14.842 13.6206 11.9449 19.0961 7.81367 23.5486L5.74983 25.7731C12.447 23.1352 19.9282 23.1231 26.6207 25.7731L24.6311 23.6Z" fill="#8992A3"/>
<path d="M112.1 12.8847C111.258 12.4445 110.327 12.2244 109.306 12.2244C107.615 12.2244 106.22 12.7728 105.121 13.8697C104.022 14.9592 103.473 16.3555 103.473 18.0585C103.473 19.7613 104.022 21.1648 105.121 22.2688C106.22 23.3657 107.615 23.9141 109.306 23.9141C110.305 23.9141 111.211 23.7048 112.025 23.2862C112.838 22.8678 113.502 22.2832 114.016 21.5329L112.603 20.5155C112.253 21.0565 111.789 21.4787 111.211 21.7817C110.64 22.0777 110.006 22.2255 109.306 22.2255C108.157 22.2255 107.201 21.8431 106.438 21.0783C105.674 20.3134 105.292 19.3068 105.292 18.0585C105.292 16.839 105.671 15.8432 106.427 15.0711C107.19 14.2918 108.15 13.9021 109.306 13.9021C110.006 13.9021 110.64 14.0536 111.211 14.3567C111.789 14.6598 112.25 15.0819 112.592 15.6231L114.059 14.7139C113.595 13.9274 112.942 13.3176 112.1 12.8847Z" fill="#8992A3"/>
<path fill-rule="evenodd" clip-rule="evenodd" d="M52.5932 23.73H50.7307L49.5318 20.8293H43.9234L42.7245 23.73H40.9265L45.7108 12.3868H47.8087L52.5932 23.73ZM48.8685 19.2167L46.7277 14.0429L44.587 19.2167H48.8685Z" fill="#8992A3"/>
<path d="M62.5298 23.73H54.1812V12.3975H55.926V22.0847H62.5298V23.73Z" fill="#8992A3"/>
<path d="M64.2191 23.73H72.5677V22.0847H65.9637V12.3975H64.2191V23.73Z" fill="#8992A3"/>
<path d="M76.0015 23.73H74.2568V12.3975H76.0015V23.73Z" fill="#8992A3"/>
<path fill-rule="evenodd" clip-rule="evenodd" d="M87.4115 23.73H89.2737L84.4894 12.3868H82.3915L77.6071 23.73H79.4051L80.604 20.8293H86.2126L87.4115 23.73ZM83.4083 14.0429L85.549 19.2167H81.2675L83.4083 14.0429Z" fill="#8992A3"/>
<path d="M100.998 23.741H99.3816L92.6065 15.3309V23.7302H90.862V12.3868H92.4781L99.2642 20.8077V12.3977H100.998V23.741Z" fill="#8992A3"/>
<path d="M124.84 23.73H116.331V12.3975H124.84V14.0103H118.076V17.2141H124.84V18.8268H118.076V22.1173H124.84V23.73Z" fill="#8992A3"/>
</g>
<defs>
<clipPath id="clip0_306_4989">
<rect width="124.5" height="36" fill="white" transform="translate(0.402283)"/>
</clipPath>
</defs>
</svg>
