<svg width="138" height="36" viewBox="0 0 138 36" fill="none" xmlns="http://www.w3.org/2000/svg">
<path d="M10.1342 14.9877C10.1342 14.3256 10.0422 13.78 9.85831 13.3508C9.67439 12.9094 9.41076 12.5845 9.06744 12.376C8.73638 12.1553 8.33788 12.0511 7.87194 12.0634H6.9891V20.6894C6.9891 21.0204 6.98297 21.3392 6.97071 21.6458C6.95845 21.9523 6.94005 22.1853 6.91553 22.3447C7.12398 22.3202 7.3876 22.3079 7.7064 22.3079C8.03747 22.2956 8.26431 22.2895 8.38692 22.2895V23.7057H3.01635V22.4918C3.29837 22.4796 3.53134 22.4428 3.71526 22.3815C3.91144 22.3202 4.05858 22.1792 4.15668 21.9584C4.26703 21.7377 4.32221 21.3822 4.32221 20.8917V12.0817H3.47616C2.77725 12.094 2.22548 12.3331 1.82084 12.799C1.41621 13.265 1.2139 13.9946 1.2139 14.9877H0L0.0919619 10.8311H11.2377L11.3481 14.9877H10.1342Z" fill="#8992A3"/>
<path d="M12.5876 23.7057V22.4918C12.8696 22.4796 13.1026 22.4428 13.2865 22.3815C13.4827 22.3202 13.6298 22.1792 13.7279 21.9584C13.8382 21.7377 13.8934 21.3822 13.8934 20.8917V13.8474C13.8934 13.5163 13.8996 13.1975 13.9118 12.891C13.9363 12.5845 13.9547 12.3515 13.967 12.1921C13.7708 12.2044 13.5256 12.2166 13.2313 12.2289C12.937 12.2289 12.7224 12.235 12.5876 12.2473V10.8311C13.4581 10.8188 14.3287 10.8127 15.1993 10.8127C16.0699 10.8127 16.9404 10.8065 17.811 10.7943C18.89 10.782 19.828 10.9046 20.625 11.1621C21.422 11.4196 22.0351 11.8365 22.4643 12.4128C22.8934 12.9891 23.0957 13.7677 23.0712 14.7486C23.059 15.2636 22.9302 15.7541 22.685 16.22C22.452 16.686 22.0964 17.0967 21.6182 17.4523C21.1523 17.8079 20.5576 18.0899 19.8342 18.2984C20.0671 18.3965 20.294 18.5559 20.5147 18.7766C20.7476 18.9973 20.9438 19.2302 21.1032 19.4755L21.9677 20.7629C22.2374 21.1798 22.4765 21.5109 22.685 21.7561C22.8934 22.0014 23.1019 22.1853 23.3103 22.3079C23.5188 22.4183 23.7579 22.4796 24.0276 22.4918V23.7057H20.9929C20.7722 23.5463 20.5515 23.3195 20.3308 23.0252C20.1223 22.7187 19.8955 22.3692 19.6502 21.9768L18.2892 19.7698C18.1298 19.5245 17.9888 19.3161 17.8662 19.1444C17.7558 18.9728 17.6393 18.8256 17.5167 18.703C17.3205 18.703 17.155 18.703 17.0201 18.703C16.8853 18.703 16.732 18.703 16.5603 18.703V20.671C16.5603 21.0143 16.5542 21.3392 16.5419 21.6458C16.5297 21.9523 16.5113 22.1853 16.4867 22.3447C16.6216 22.3324 16.7933 22.3263 17.0017 22.3263C17.2102 22.314 17.4125 22.3079 17.6087 22.3079C17.8171 22.2956 17.9643 22.2895 18.0501 22.2895V23.7057H12.5876ZM17.4432 17.3787C18.1298 17.3787 18.6816 17.2807 19.0985 17.0845C19.5154 16.876 19.8158 16.5695 19.9997 16.1648C20.1959 15.748 20.294 15.2268 20.294 14.6015C20.294 14.0129 20.202 13.5531 20.0181 13.2221C19.8342 12.8787 19.6012 12.6274 19.3192 12.468C19.0494 12.2963 18.7735 12.1921 18.4915 12.1553C18.2095 12.1063 17.9765 12.0817 17.7926 12.0817C17.5351 12.0817 17.3144 12.1124 17.1305 12.1737C16.9466 12.235 16.8055 12.3699 16.7075 12.5783C16.6094 12.7868 16.5603 13.1056 16.5603 13.5347V17.3052C16.6952 17.3174 16.8362 17.3358 16.9833 17.3604C17.1305 17.3726 17.2838 17.3787 17.4432 17.3787Z" fill="#8992A3"/>
<path d="M30.475 12.045C30.2053 12.0572 29.9723 12.094 29.7761 12.1553C29.5799 12.2166 29.4266 12.3576 29.3163 12.5783C29.2182 12.7868 29.1691 13.1424 29.1691 13.6451V20.6894C29.1691 21.0204 29.163 21.3392 29.1508 21.6458C29.1385 21.9523 29.1201 22.1853 29.0956 22.3447C29.2918 22.3202 29.537 22.3079 29.8313 22.3079C30.1378 22.2956 30.3524 22.2895 30.475 22.2895V23.7057H25.1964V22.4918C25.4784 22.4796 25.7114 22.4428 25.8953 22.3815C26.0915 22.3202 26.2386 22.1792 26.3367 21.9584C26.4471 21.7377 26.5023 21.3822 26.5023 20.8917V13.8474C26.5023 13.5163 26.5084 13.1975 26.5206 12.891C26.5452 12.5845 26.5636 12.3515 26.5758 12.1921C26.3796 12.2044 26.1344 12.2166 25.8401 12.2289C25.5459 12.2289 25.3313 12.235 25.1964 12.2473V10.8311H30.475V12.045Z" fill="#8992A3"/>
<path d="M32.3091 23.7057V22.4918C32.5911 22.4796 32.8241 22.4428 33.008 22.3815C33.2042 22.3202 33.3513 22.1792 33.4494 21.9584C33.5598 21.7377 33.6149 21.3822 33.6149 20.8917V13.8474C33.6149 13.5163 33.6211 13.1975 33.6333 12.891C33.6578 12.5845 33.6762 12.3515 33.6885 12.1921C33.4923 12.2044 33.2471 12.2166 32.9528 12.2289C32.6585 12.2289 32.444 12.235 32.3091 12.2473V10.8311C33.1551 10.8188 34.0012 10.8127 34.8472 10.8127C35.7055 10.8127 36.5577 10.8065 37.4038 10.7943C38.8751 10.782 40.04 11.0579 40.8983 11.6219C41.7689 12.1737 42.1735 13.0136 42.1122 14.1417C42.0877 14.4973 41.9773 14.8467 41.7811 15.1901C41.585 15.5211 41.2907 15.8215 40.8983 16.0913C40.5182 16.361 40.04 16.5756 39.4637 16.735V16.7534C40.6899 16.9496 41.5911 17.3604 42.1674 17.9857C42.7437 18.5988 43.0318 19.2854 43.0318 20.0456C43.0318 20.8426 42.8356 21.517 42.4433 22.0688C42.0632 22.6083 41.5359 23.0191 40.8615 23.3011C40.1871 23.5708 39.4208 23.7057 38.5625 23.7057H32.3091ZM36.2083 22.3999C36.429 22.3999 36.6374 22.3999 36.8336 22.3999C37.0298 22.3999 37.226 22.3999 37.4221 22.3999C37.6183 22.3876 37.8084 22.3815 37.9923 22.3815C38.7403 22.3447 39.2859 22.1056 39.6292 21.6642C39.9726 21.2228 40.1442 20.6648 40.1442 19.9905C40.1442 19.4264 40.0277 18.985 39.7948 18.6662C39.5618 18.3351 39.2614 18.1022 38.8935 17.9673C38.538 17.8324 38.164 17.765 37.7716 17.765C37.4651 17.765 37.2014 17.765 36.9807 17.765C36.76 17.765 36.5271 17.7711 36.2818 17.7834V20.7813C36.2818 21.1124 36.2757 21.4251 36.2634 21.7193C36.2512 22.0136 36.2328 22.2405 36.2083 22.3999ZM36.2818 16.4775L37.2382 16.4591C37.7532 16.4469 38.1578 16.3304 38.4521 16.1097C38.7587 15.889 38.9732 15.5947 39.0959 15.2268C39.2307 14.8467 39.2982 14.436 39.2982 13.9946C39.2982 13.5041 39.2001 13.124 39.0039 12.8542C38.8077 12.5722 38.5625 12.3699 38.2682 12.2473C37.9739 12.1247 37.6674 12.0695 37.3486 12.0817C37.1524 12.0817 36.9746 12.1124 36.8152 12.1737C36.6558 12.235 36.5271 12.376 36.429 12.5967C36.3309 12.8052 36.2818 13.1485 36.2818 13.6267V16.4775Z" fill="#8992A3"/>
<path d="M50.5247 19.2732C50.5247 18.7582 50.445 18.3903 50.2856 18.1696C50.1262 17.9366 49.9055 17.7895 49.6235 17.7282C49.3537 17.6669 49.0533 17.6424 48.7223 17.6546L48.244 17.673V20.6894C48.244 21.0204 48.2379 21.3331 48.2257 21.6274C48.2134 21.9217 48.195 22.1485 48.1705 22.3079H50.6351C51.0029 22.3079 51.3585 22.2282 51.7018 22.0688C52.0451 21.8971 52.3272 21.6213 52.5479 21.2411C52.7686 20.8488 52.8789 20.3215 52.8789 19.6594H54.0744L53.9825 23.7057H44.2713V22.4918C44.5533 22.4796 44.7863 22.4428 44.9702 22.3815C45.1664 22.3202 45.3135 22.1792 45.4116 21.9584C45.522 21.7377 45.5772 21.3822 45.5772 20.8917V13.8474C45.5772 13.5163 45.5833 13.1975 45.5956 12.891C45.6201 12.5845 45.6385 12.3515 45.6507 12.1921C45.4545 12.2044 45.2093 12.2166 44.915 12.2289C44.6208 12.2289 44.4062 12.235 44.2713 12.2473V10.8311H53.4675L53.5778 14.3992H52.3639C52.3639 13.7248 52.2475 13.2159 52.0145 12.8726C51.7815 12.5293 51.4934 12.3025 51.15 12.1921C50.8067 12.0695 50.4695 12.0143 50.1385 12.0266L49.4763 12.045C49.2188 12.045 48.9981 12.0817 48.8142 12.1553C48.6303 12.2166 48.4893 12.3638 48.3912 12.5967C48.2931 12.8174 48.244 13.1669 48.244 13.6451V16.404H50.396L50.3224 14.8038H51.7386V19.2732H50.5247Z" fill="#8992A3"/>
<path d="M70.0706 14.951C69.9112 13.9332 69.5679 13.1669 69.0406 12.6519C68.5257 12.1369 67.839 11.8733 66.9807 11.861C66.3431 11.861 65.7852 12.0082 65.307 12.3025C64.8288 12.5967 64.4303 12.9891 64.1115 13.4796C63.805 13.97 63.572 14.5279 63.4126 15.1533C63.2654 15.7786 63.1919 16.4223 63.1919 17.0845C63.1919 18.139 63.339 19.077 63.6333 19.8985C63.9398 20.7078 64.3812 21.3454 64.9575 21.8113C65.5338 22.2772 66.2327 22.5102 67.0543 22.5102C67.8268 22.5102 68.5931 22.314 69.3533 21.9217C70.1135 21.517 70.7511 20.9591 71.2661 20.248L72.149 21.0572C71.5481 21.8787 70.9167 22.5041 70.2545 22.9332C69.5924 23.3501 68.9426 23.6322 68.305 23.7793C67.6796 23.9264 67.1156 24 66.6129 24C65.6687 24 64.8104 23.8345 64.0379 23.5034C63.2654 23.1601 62.5972 22.6941 62.0332 22.1056C61.4814 21.5048 61.0522 20.812 60.7457 20.0272C60.4514 19.2302 60.3043 18.3719 60.3043 17.4523C60.3043 16.6185 60.4392 15.7909 60.7089 14.9693C60.9787 14.1478 61.3772 13.406 61.9044 12.7439C62.4439 12.0695 63.1183 11.5361 63.9276 11.1437C64.7368 10.7391 65.6748 10.5368 66.7416 10.5368C67.2198 10.5368 67.7409 10.6165 68.305 10.7759C68.8812 10.923 69.4208 11.1437 69.9235 11.438L69.8499 10.6655H71.2661V14.951H70.0706Z" fill="#8992A3"/>
<path d="M72.2711 23.7057V22.4366C72.6144 22.4366 72.8903 22.3386 73.0988 22.1424C73.3072 21.9462 73.4789 21.6887 73.6137 21.3699C73.7609 21.0511 73.9019 20.7078 74.0368 20.3399L77.6233 10.5H78.9107L82.8283 20.5238C82.9019 20.7078 83 20.9898 83.1226 21.3699C83.2452 21.7377 83.3188 22.0627 83.3433 22.3447C83.5518 22.3202 83.7479 22.3079 83.9319 22.3079C84.128 22.2956 84.2874 22.2895 84.4101 22.2895V23.7057H79.4625V22.4918C79.8058 22.4918 80.0388 22.4244 80.1614 22.2895C80.2963 22.1424 80.3576 21.9462 80.3453 21.701C80.3331 21.4557 80.2656 21.1798 80.143 20.8733L79.7752 19.8617L75.784 19.9353L75.4898 20.7997C75.4285 20.9591 75.3365 21.1982 75.2139 21.517C75.1035 21.8236 74.9993 22.0811 74.9012 22.2895C75.0974 22.265 75.3304 22.2527 75.6001 22.2527C75.8821 22.2405 76.0844 22.2343 76.2071 22.2343V23.7057H72.2711ZM76.2439 18.5559H79.3154L78.4693 16.2568C78.3099 15.8154 78.1689 15.374 78.0463 14.9326C77.9237 14.4789 77.8317 14.0804 77.7704 13.7371H77.752C77.703 13.9455 77.6294 14.2582 77.5313 14.6751C77.4332 15.092 77.28 15.5886 77.0715 16.1648L76.2439 18.5559Z" fill="#8992A3"/>
<path d="M85.4027 22.4918C85.6847 22.4796 85.9177 22.4428 86.1016 22.3815C86.2978 22.3202 86.4449 22.1792 86.543 21.9584C86.6534 21.7377 86.7085 21.3822 86.7085 20.8917V13.8474C86.7085 13.5163 86.7147 13.1975 86.7269 12.891C86.7514 12.5845 86.7698 12.3515 86.7821 12.1921C86.5859 12.2044 86.3407 12.2166 86.0464 12.2289C85.7521 12.2289 85.5375 12.235 85.4027 12.2473V10.8311C86.2732 10.8188 87.1438 10.8127 88.0144 10.8127C88.885 10.8127 89.7555 10.8065 90.6261 10.7943C91.7051 10.782 92.6431 10.923 93.4401 11.2173C94.2494 11.5116 94.8686 11.9653 95.2978 12.5783C95.7392 13.1914 95.9476 13.9884 95.9231 14.9693C95.9109 15.4598 95.7944 15.9441 95.5737 16.4223C95.353 16.8883 95.028 17.3174 94.5989 17.7098C94.1697 18.0899 93.6302 18.4026 92.9803 18.6478C92.3305 18.8931 91.5703 19.0279 90.6997 19.0525C90.4299 19.0647 90.1908 19.0708 89.9824 19.0708C89.7862 19.0708 89.5839 19.0647 89.3754 19.0525V20.671C89.3754 21.0143 89.3693 21.3392 89.357 21.6458C89.3448 21.9523 89.3264 22.1853 89.3019 22.3447C89.4367 22.3324 89.6084 22.3263 89.8168 22.3263C90.0253 22.314 90.2276 22.3079 90.4238 22.3079C90.6322 22.2956 90.7794 22.2895 90.8652 22.2895V23.7057H85.4027V22.4918ZM89.3754 17.673C89.5103 17.6853 89.6452 17.6975 89.7801 17.7098C89.9149 17.7221 90.0559 17.7282 90.2031 17.7282C90.8775 17.7282 91.4231 17.6178 91.84 17.3971C92.2692 17.1642 92.5818 16.8331 92.778 16.404C92.9742 15.9625 93.0723 15.4292 93.0723 14.8038C93.0723 14.1907 92.9865 13.7003 92.8148 13.3324C92.6554 12.9646 92.4469 12.6948 92.1895 12.5232C91.932 12.3392 91.6622 12.2228 91.3802 12.1737C91.0982 12.1124 90.8407 12.0817 90.6077 12.0817C90.3502 12.0817 90.1295 12.1124 89.9456 12.1737C89.7617 12.235 89.6207 12.3699 89.5226 12.5783C89.4245 12.7868 89.3754 13.1056 89.3754 13.5347V17.673Z" fill="#8992A3"/>
<path d="M102.32 12.045C102.05 12.0572 101.817 12.094 101.621 12.1553C101.425 12.2166 101.272 12.3576 101.161 12.5783C101.063 12.7868 101.014 13.1424 101.014 13.6451V20.6894C101.014 21.0204 101.008 21.3392 100.996 21.6458C100.984 21.9523 100.965 22.1853 100.941 22.3447C101.137 22.3202 101.382 22.3079 101.676 22.3079C101.983 22.2956 102.198 22.2895 102.32 22.2895V23.7057H97.0416V22.4918C97.3236 22.4796 97.5566 22.4428 97.7405 22.3815C97.9367 22.3202 98.0838 22.1792 98.1819 21.9584C98.2923 21.7377 98.3475 21.3822 98.3475 20.8917V13.8474C98.3475 13.5163 98.3536 13.1975 98.3658 12.891C98.3904 12.5845 98.4088 12.3515 98.421 12.1921C98.2248 12.2044 97.9796 12.2166 97.6853 12.2289C97.3911 12.2289 97.1765 12.235 97.0416 12.2473V10.8311H102.32V12.045Z" fill="#8992A3"/>
<path d="M113.663 14.9877C113.663 14.3256 113.571 13.78 113.387 13.3508C113.203 12.9094 112.94 12.5845 112.596 12.376C112.265 12.1553 111.867 12.0511 111.401 12.0634H110.518V20.6894C110.518 21.0204 110.512 21.3392 110.5 21.6458C110.487 21.9523 110.469 22.1853 110.444 22.3447C110.653 22.3202 110.917 22.3079 111.235 22.3079C111.566 22.2956 111.793 22.2895 111.916 22.2895V23.7057H106.545V22.4918C106.827 22.4796 107.06 22.4428 107.244 22.3815C107.44 22.3202 107.588 22.1792 107.686 21.9584C107.796 21.7377 107.851 21.3822 107.851 20.8917V12.0817H107.005C106.306 12.094 105.754 12.3331 105.35 12.799C104.945 13.265 104.743 13.9946 104.743 14.9877H103.529L103.621 10.8311H114.767L114.877 14.9877H113.663Z" fill="#8992A3"/>
<path d="M114.283 23.7057V22.4366C114.626 22.4366 114.902 22.3386 115.11 22.1424C115.319 21.9462 115.49 21.6887 115.625 21.3699C115.772 21.0511 115.913 20.7078 116.048 20.3399L119.635 10.5H120.922L124.84 20.5238C124.913 20.7078 125.011 20.9898 125.134 21.3699C125.257 21.7377 125.33 22.0627 125.355 22.3447C125.563 22.3202 125.759 22.3079 125.943 22.3079C126.14 22.2956 126.299 22.2895 126.422 22.2895V23.7057H121.474V22.4918C121.817 22.4918 122.05 22.4244 122.173 22.2895C122.308 22.1424 122.369 21.9462 122.357 21.701C122.345 21.4557 122.277 21.1798 122.155 20.8733L121.787 19.8617L117.796 19.9353L117.501 20.7997C117.44 20.9591 117.348 21.1982 117.225 21.517C117.115 21.8236 117.011 22.0811 116.913 22.2895C117.109 22.265 117.342 22.2527 117.612 22.2527C117.894 22.2405 118.096 22.2343 118.219 22.2343V23.7057H114.283ZM118.255 18.5559H121.327L120.481 16.2568C120.321 15.8154 120.18 15.374 120.058 14.9326C119.935 14.4789 119.843 14.0804 119.782 13.7371H119.763C119.714 13.9455 119.641 14.2582 119.543 14.6751C119.445 15.092 119.291 15.5886 119.083 16.1648L118.255 18.5559Z" fill="#8992A3"/>
<path d="M127.414 23.7057V22.4918C127.696 22.4796 127.929 22.4428 128.113 22.3815C128.309 22.3202 128.456 22.1792 128.554 21.9584C128.665 21.7377 128.72 21.3822 128.72 20.8917V13.8474C128.72 13.5163 128.726 13.1975 128.738 12.891C128.763 12.5845 128.781 12.3515 128.794 12.1921C128.597 12.2044 128.352 12.2166 128.058 12.2289C127.764 12.2289 127.549 12.235 127.414 12.2473V10.8311H132.693V12.045C132.423 12.0572 132.19 12.094 131.994 12.1553C131.798 12.2166 131.644 12.3576 131.534 12.5783C131.436 12.7868 131.387 13.1424 131.387 13.6451V20.6894C131.387 21.0204 131.381 21.3331 131.369 21.6274C131.356 21.9217 131.338 22.1485 131.313 22.3079H133.778C134.501 22.2956 135.065 22.0443 135.47 21.5538C135.887 21.0511 136.095 20.297 136.095 19.2916H137.328L137.217 23.7057H127.414Z" fill="#8992A3"/>
</svg>
