<svg width="40" height="40" viewBox="0 0 40 40" fill="none" xmlns="http://www.w3.org/2000/svg">
<path d="M20 40C31.0457 40 40.0001 31.0457 40.0001 20C40.0001 8.9543 31.0457 0 20 0C8.95427 0 -6.10352e-05 8.9543 -6.10352e-05 20C-6.10352e-05 31.0457 8.95427 40 20 40Z" fill="black"/>
<path d="M20.8599 9.8855C20.8599 9.39647 20.485 9 20.0224 9L20.0214 9C19.5594 9 19.1845 9.39647 19.1845 9.8855V13.9322L16.0989 10.6765C15.7715 10.3311 15.2413 10.3318 14.9146 10.678L14.9139 10.6787C14.5876 11.0245 14.5881 11.5852 14.9155 11.9306L17.9728 15.1564L13.3379 15.1523C12.8753 15.1519 12.5003 15.548 12.4999 16.0371L12.4999 16.0381C12.4996 16.5267 12.8739 16.9234 13.3365 16.9238L18.0105 16.9279L14.9263 20.2005C14.5999 20.5469 14.6009 21.1075 14.9285 21.4527L14.9292 21.4535C15.2565 21.7983 15.7867 21.7974 16.1131 21.451L19.1845 18.192V26.7359L17.4769 26.7344C17.0146 26.734 16.6394 27.1301 16.639 27.6191L16.639 27.6202C16.6386 28.1087 17.0132 28.5055 17.4755 28.5059L19.1845 28.5074V30.33C19.1845 30.819 19.5594 31.2155 20.0214 31.2155H20.0224C20.485 31.2155 20.8599 30.819 20.8599 30.33V28.5089L22.4956 28.5103C22.9581 28.5107 23.3333 28.1146 23.3337 27.6261L23.3337 27.625C23.3341 27.1359 22.9595 26.7392 22.497 26.7388L20.8599 26.7373L20.8599 18.2025L23.9276 21.4393C24.255 21.7847 24.7852 21.7841 25.1116 21.4383L25.1123 21.4375C25.439 21.0913 25.4384 20.5307 25.1111 20.1853L22.0272 16.9315L26.662 16.9355C27.1242 16.9359 27.4996 16.5398 27.4999 16.0513L27.4999 16.0502C27.5003 15.5612 27.1256 15.1644 26.6634 15.164L22.042 15.1599L25.0998 11.9154C25.4263 11.569 25.4253 11.0084 25.0981 10.6635L25.0974 10.6628C24.7697 10.3175 24.2395 10.3185 23.9131 10.6649L20.8599 13.9046L20.8599 9.8855Z" fill="white"/>
</svg>
