<svg id="Layer_1" data-name="Layer 1" xmlns="http://www.w3.org/2000/svg" viewBox="0 0 3815.74 1186.33"><defs><style>.cls-1{fill:#8992A3;}</style></defs><path class="cls-1" d="M1681.28,683.77h-34.7l-97.51-181.21h41.16l73.7,137,73.7-137h41.16Z"/><path class="cls-1" d="M2053.21,502.56v36.21H1869V502.56ZM1869,611.34V575.12h184.26v36.22Zm184.26,36.22v36.21H1869V647.56Z"/><path class="cls-1" d="M2179.6,545.87v137.9h-36.23V502.56h44l140.32,138v-138h36.21V683.77h-43.94Z"/><path class="cls-1" d="M2656.38,502.56v36.21h-84.6v145h-36.22v-145H2454V502.56Z"/><path class="cls-1" d="M2819,683.77q-29,0-51.16-21.27-21.29-22.15-21.28-51.16V502.56h36.22V611.34A36.31,36.31,0,0,0,2819,647.56h66.48a36.33,36.33,0,0,0,36.22-36.22V502.56h36.22V611.34q0,29-21.15,51.16-22.29,21.27-51.29,21.27Z"/><path class="cls-1" d="M3084.28,623.37v60.4h-36.22V502.56h128.29a58.2,58.2,0,0,1,30.39,8.16,62,62,0,0,1,21.84,21.91,60.49,60.49,0,0,1-1.13,62.62,61.3,61.3,0,0,1-24.51,22l35.33,65.85h-41.15l-32-59.77Zm0-84.6v48.38h92.07a24.19,24.19,0,0,0,0-48.38Z"/><path class="cls-1" d="M3512.7,502.56v36.21H3328.44V502.56ZM3328.44,611.34V575.12H3512.7v36.22Zm184.26,36.22v36.21H3328.44V647.56Z"/><path class="cls-1" d="M3621.48,597.54a53.94,53.94,0,0,1-11.27-67.95,55.69,55.69,0,0,1,19.69-19.69,52.44,52.44,0,0,1,27.29-7.34h151v36.21h-151a17.94,17.94,0,0,0-12.28,31.16,22.18,22.18,0,0,0,11.65,4.49,137.79,137.79,0,0,0,15.83.83h3.16q21.28.38,42.56.12h4.17q10.38-.12,20.64-.38,3.55,0,7.23-.12a131.88,131.88,0,0,1,17.91.75,58.72,58.72,0,0,1,18.81,5.45q23.41,12,28.87,38.12a55.52,55.52,0,0,1-.76,24.18,53,53,0,0,1-12,22.42,55,55,0,0,1-18.24,13.29,52.26,52.26,0,0,1-21.78,4.69h-154V647.56h154q7.35,0,13.05-6a17.6,17.6,0,0,0,4.18-15.58,17,17,0,0,0-9.25-12.4q-8.1-3.3-20.13-2.54c-2.37.09-4.73.13-7.1.13q-10.38.25-21.14.38h-4.19q-21.64.39-43.55-.13H3672a133.84,133.84,0,0,1-25-2Q3633.77,607.29,3621.48,597.54Z"/><path class="cls-1" d="M760.08,811,687.54,650.28,615,811H484.46L411.88,650.28,339.34,811H208.76L411.88,361.27,549.71,666.53,687.54,361.27,890.65,811Zm381.9,0H1025.92V651.44H879.32L830,535.38h195.89V375.78H1142Z"/><path class="cls-1" d="M1350.74,1186.33H0V0H1350.74ZM86.22,1100.11h1178.3V86.22H86.22Z"/></svg>