<svg width="809" height="137" viewBox="0 0 809 137" fill="none" xmlns="http://www.w3.org/2000/svg">
<path d="M101.051 43.4314H66.582L23.8945 79.725V0.866333H0.364258V135.017H23.8945V108.192L40.847 93.9705L72.78 135.017H101.051L57.6648 79.8965L101.051 43.4314Z" fill="#8992A3"/>
<path d="M159.531 41.5959C130.501 41.5959 109.126 59.3079 109.126 89.2198C109.126 119.132 130.501 136.844 159.531 136.844C188.377 136.844 209.69 119.144 209.69 89.2198C209.69 59.2956 188.34 41.5959 159.531 41.5959ZM159.531 116.474C142.713 116.474 132.657 106.038 132.657 89.2687C132.657 72.4999 142.713 62.0761 159.531 62.0761C176.349 62.0761 186.344 72.5122 186.344 89.2687C186.344 106.025 176.251 116.474 159.531 116.474Z" fill="#8992A3"/>
<path d="M502.851 83.3983V135.015H479.321V85.9338C479.321 68.4179 476.026 62.0239 463.63 62.0239C447.07 62.0239 440.492 76.8206 440.492 99.6527V135.015H416.901V85.9338C416.901 68.4179 413.606 62.0239 401.21 62.0239C384.637 62.0239 378.059 76.8206 378.059 99.6527V135.015H354.541V85.9338C354.541 68.4179 351.246 62.0239 338.789 62.0239C322.216 62.0239 315.639 76.8206 315.639 99.6527V135.015H292.121V85.9338C292.121 68.4179 288.826 62.0239 276.43 62.0239C259.796 62.0239 253.157 76.8206 253.157 99.6527V135.015H229.688V43.43H253.218V55.2257L249.041 69.1405H255.068C258.742 52.6902 267.463 41.556 286.119 41.556C303.071 41.556 310.727 53.0699 313.25 69.1405H317.672C321.285 52.6902 329.921 41.556 348.478 41.556C352.101 41.5048 355.702 42.1278 359.098 43.3933C367.574 46.6148 372.829 53.8906 375.609 63.4448L373.882 69.1773H379.945C383.62 52.727 392.341 41.5927 410.935 41.5927C427.949 41.5927 435.605 53.1067 438.128 69.1773H442.476C446.151 52.727 454.725 41.5927 473.331 41.5927C495 41.5927 502.851 60.3825 502.851 83.3983Z" fill="#8992A3"/>
<path d="M620.917 43.4549H597.644V80.2017C597.644 105.373 585.946 116.508 568.81 116.508C554.013 116.508 548.182 109.734 548.182 92.0097V43.4549H524.542V95.6476C524.542 122.595 538.457 136.878 560.897 136.878C580.569 136.878 592.083 124.482 595.745 108.044H601.71L597.533 122.081V135.052H620.806V70.4638H616.825L620.806 57.2472L620.917 43.4549Z" fill="#8992A3"/>
<path d="M657.866 41.6298C638.133 41.6298 626.619 54.0257 622.957 70.4637H616.943L620.923 57.2472L621.181 56.4264V43.4548H597.589V108.031H601.717L597.54 122.069V135.04H621.132V98.5505C621.132 73.183 632.768 62.0487 649.904 62.0487C664.517 62.0487 670.593 68.8224 670.593 86.5466V135.052H693.927V83.0556C693.976 55.8507 680.11 41.6298 657.866 41.6298Z" fill="#8992A3"/>
<path d="M785.448 102.911C782.998 112.588 774.509 117.708 762.175 117.708C743.201 117.708 735.362 107.333 734.982 93.994H805.658V86.3384C805.658 58.3863 786.881 41.6298 759.492 41.6298C732.104 41.6298 712.75 58.9498 712.75 88.1757C712.75 114.229 728.123 136.865 762.211 136.865C792.834 136.865 806.308 116.446 808.953 102.911H785.448ZM759.492 60.9831C776.445 60.9831 783.402 69.7043 783.402 79.7607H735.019C735.019 69.7043 742.674 60.9831 759.492 60.9831Z" fill="#8992A3"/>
</svg>
