<svg width="121" height="41" viewBox="0 0 121 41" fill="none" xmlns="http://www.w3.org/2000/svg">
<path d="M59.3864 10.5797V24.8659C59.3864 27.5 58.0596 32.977 52.3998 32.977C46.8177 32.977 46.2073 28.5084 46.2073 25.9289V10.5797H41.8156V25.9647C41.8156 28.0945 41.662 37.3213 51.4994 37.0767C56.6475 36.9488 58.9562 34.0664 59.3864 33.5019V36.7475H63.8313V10.5948L59.3864 10.5797Z" fill="#ffffff"/>
<path d="M70.054 10.5797H69.7469V36.7418H70.0028H73.8336H74.1387V10.5797H73.2194H70.054Z" fill="#ffffff"/>
<path d="M74.4439 0.839111H69.4418V6.36317H74.4439V0.839111Z" fill="#ffffff"/>
<path d="M117.126 32.864C116.07 32.879 113.6 32.2751 113.6 29.3888V14.5608H120.956V10.6097H113.6V3.25305H109.157V10.6059H104.663V14.5571H109.157V29.2327C109.157 31.4641 109.879 33.8104 111.328 35.1105C112.776 36.4106 114.588 37.0653 116.76 37.0653C118.727 37.0653 119.586 36.7887 121 36.102V31.9439C119.764 32.6156 118.299 32.847 117.126 32.864Z" fill="#ffffff"/>
<path d="M97.3333 12.051C95.4174 10.8967 93.2174 10.2906 90.9763 10.2995C88.7352 10.3085 86.5402 10.9322 84.6338 12.1018C82.741 13.2933 81.2027 14.9644 80.1776 16.9428C79.0916 19.0254 78.5389 21.3413 78.5683 23.6861C78.5324 26.0441 79.0735 28.3755 80.1453 30.4802C81.1598 32.4642 82.7065 34.1316 84.6148 35.2987C86.5381 36.4828 88.7431 37.0742 91.2299 37.0729C93.6473 37.0729 95.707 36.5574 97.4091 35.5263C99.1112 34.4953 100.414 33.3037 101.318 31.9515C102.22 30.6006 102.739 29.4679 102.876 28.5535H98.228C98.0915 29.0615 97.7339 29.6536 97.1551 30.3297C96.4823 31.0746 95.6656 31.6779 94.7536 32.1039C93.6544 32.6247 92.4476 32.8824 91.2299 32.8565C88.6408 32.8565 86.6145 32.0029 85.1512 30.2958C83.9609 28.9085 83.2545 27.1932 83.0321 25.1499H103.234C103.3 24.3735 103.333 23.7463 103.334 23.2684C103.352 21.0085 102.809 18.779 101.752 16.7773C100.736 14.8345 99.2092 13.2012 97.3333 12.051ZM83.1572 21.5073C83.316 20.6576 83.5828 19.8312 83.9514 19.0482C84.5633 17.7061 85.5351 16.5566 86.7605 15.7255C87.9685 14.914 89.3901 14.5088 91.0252 14.5101C92.6604 14.5113 94.0738 14.9083 95.2654 15.7011C96.4591 16.5001 97.4123 17.6055 98.0233 18.8996C98.4224 19.7267 98.7007 20.606 98.8497 21.5111L83.1572 21.5073Z" fill="#ffffff"/>
<path d="M37.2438 18.5327C37.2438 8.31431 28.8905 0 18.6209 0C8.35136 0 0 8.31431 0 18.5327C0 28.7511 8.35326 37.0654 18.6209 37.0654C19.9194 37.0647 21.2141 36.9285 22.4839 36.659L20.1543 32.6514C19.6452 32.7078 19.1333 32.7367 18.6209 32.7379C10.7567 32.7379 4.35954 26.3653 4.35954 18.5327C4.35954 10.7 10.7567 4.32743 18.6209 4.32743C21.5924 4.33741 24.487 5.26518 26.9033 6.98201C29.3195 8.69884 31.1375 11.1196 32.1051 13.9084C33.0726 16.6973 33.1417 19.7159 32.3028 22.5455C31.4639 25.3751 29.7586 27.8753 27.4234 29.6993L24.4115 24.5139L20.6339 26.6758L24.3357 33.0465L27.395 38.3147L28.8109 40.7606L32.5885 38.6007L29.6202 33.4905C31.9856 31.7673 33.9086 29.5149 35.2331 26.9161C36.5576 24.3173 37.2465 21.4452 37.2438 18.5327Z" fill="#ffffff"/>
</svg>
