<svg width="20" height="20" viewBox="0 0 20 20" fill="none" xmlns="http://www.w3.org/2000/svg">
<g clip-path="url(#clip0_402_625)">
<path d="M15.0001 6.66663H8.33341C7.41294 6.66663 6.66675 7.41282 6.66675 8.33329V15C6.66675 15.9204 7.41294 16.6666 8.33341 16.6666H15.0001C15.9206 16.6666 16.6667 15.9204 16.6667 15V8.33329C16.6667 7.41282 15.9206 6.66663 15.0001 6.66663Z" stroke="#8992A3" stroke-width="1.25" stroke-linecap="round" stroke-linejoin="round"/>
<path d="M13.3333 6.66671V5.00004C13.3333 4.55801 13.1577 4.13409 12.8451 3.82153C12.5325 3.50897 12.1086 3.33337 11.6666 3.33337H4.99992C4.55789 3.33337 4.13397 3.50897 3.82141 3.82153C3.50885 4.13409 3.33325 4.55801 3.33325 5.00004V11.6667C3.33325 12.1087 3.50885 12.5327 3.82141 12.8452C4.13397 13.1578 4.55789 13.3334 4.99992 13.3334H6.66659" stroke="#8992A3" stroke-width="1.25" stroke-linecap="round" stroke-linejoin="round"/>
</g>
<defs>
<clipPath id="clip0_402_625">
<rect width="20" height="20" fill="white"/>
</clipPath>
</defs>
</svg>
