<?xml version="1.0" encoding="utf-8"?>
<!-- Generator: Adobe Illustrator 27.0.0, SVG Export Plug-In . SVG Version: 6.00 Build 0)  -->
<svg version="1.1" id="Layer_1" xmlns="http://www.w3.org/2000/svg" xmlns:xlink="http://www.w3.org/1999/xlink" x="0px" y="0px"
	 viewBox="0 0 796.3 316.4" style="enable-background:new 0 0 796.3 316.4;" xml:space="preserve">
<style type="text/css">
	.st0{fill:none;}
	.st1{fill:#FFFFFF;}
	.st2{fill:#FFA80A;}
	.st3{fill:#95001A;}
	.st4{fill:#520033;}
	.st5{fill:#FFE50A;}
	.st6{fill:#6D0044;}
	.st7{fill:#FF3417;}
	.st8{fill:#40004D;}
	.st9{fill:#6D0074;}
	.st10{fill:#D7001F;}
	.st11{fill:#EF8109;}
</style>
<rect class="st0" width="796.3" height="316.4"/>
<g>
	<path class="st1" d="M547.3,218L505,119.9h24l27.9,66.2l27.7-66.2h24L566.3,218H547.3z M608.6,169.6c0,28.2,20.2,50.9,49,50.9
		c15.5,0,27.7-6.1,33.3-16.7c1.9,9.1,9.3,16.7,21.7,16.7c3.8,0,7.9-0.7,11-2.1V200c-1.7,0.2-3.1,0.3-4.5,0.3c-2.6,0-4.4-0.9-5.5-2.6
		c-1.1-1.7-1.7-4.7-1.7-8.8v-69.1h-23.2v15.1c-4.2-10.8-17.6-17.2-31.2-17.2C629.7,117.7,608.6,140.5,608.6,169.6L608.6,169.6z
		 M631.8,169.6c0-14.5,9-30.7,28.8-30.7c16.5,0,30.2,12.3,30.2,29.8s-13.7,29.8-30.2,29.8S631.8,185.7,631.8,169.6z M361,196.9
		c-6.4,0-10.8-4.1-10.8-13.5v-99h-23.2v102c0,20,10.8,31.5,30.8,31.5h24.2v-21.1L361,196.9L361,196.9z M390.1,169.5
		c0,28.2,20.2,50.9,49,50.9c15.5,0,27.7-6.1,33.3-16.7c1.9,9.1,9.3,16.7,21.7,16.7c3.8,0,7.9-0.7,11-2.1V200
		c-1.6,0.2-3.1,0.3-4.5,0.3c-2.6,0-4.4-0.9-5.5-2.6c-1.1-1.7-1.6-4.7-1.6-8.8v-69h-23.2v15.1c-4.2-10.8-17.6-17.2-31.2-17.2
		C411.2,117.7,390.1,140.5,390.1,169.5L390.1,169.5z M413.3,169.5c0-14.5,9-30.7,28.8-30.7c16.5,0,30.2,12.3,30.2,29.8
		s-13.7,29.8-30.2,29.8S413.3,185.7,413.3,169.5z"/>
	<g>
		<polygon class="st2" points="262.5,205.3 258,205.3 223.7,188.3 221.7,185.1 219.7,181.9 219.7,131.3 221.7,130.1 268.9,202.1 		
			"/>
		<polygon class="st3" points="166.1,212.6 161.6,212.6 110.5,187.3 110.5,185.1 112.5,181.9 164.2,156.3 166.1,157.6 168.1,156.3 
			219.7,181.9 221.7,185.1 221.7,187.5 170.6,212.6 		"/>
		<polygon class="st4" points="221.7,185.1 223.7,188.3 223.7,222.7 221.7,225.6 206.9,232.9 202.4,232.9 166.1,214.9 166.1,212.6 
					"/>
		<polygon class="st5" points="221.7,130.1 180.2,66.8 166.1,66.8 166.1,102.5 168.1,105.7 219.7,131.3 		"/>
		<polygon class="st2" points="110.5,130.1 152,66.8 166.1,66.8 166.1,102.5 164.5,105.5 112.5,131.3 		"/>
		<polygon class="st6" points="262.5,205.3 221.7,225.6 221.7,185.1 		"/>
		<polygon class="st7" points="69.7,205.3 74.2,205.3 108.5,188.3 110.5,185.1 112.5,181.9 112.5,131.3 110.5,130.1 63.3,202.1 		
			"/>
		<polygon class="st8" points="110.5,185.1 108.5,188.3 108.5,222.7 110.5,225.6 125.3,232.9 129.8,232.9 166.1,214.9 166.1,212.6 
					"/>
		<polygon class="st6" points="69.7,205.3 110.5,225.6 110.5,185.1 		"/>
		<polygon class="st9" points="166.1,253.1 206.9,232.9 166.1,212.6 125.3,232.9 		"/>
		<polygon class="st10" points="110.5,185.1 166.1,157.6 168.1,156.3 168.1,105.7 166.1,102.5 110.5,130.1 		"/>
		<polygon class="st11" points="221.7,185.1 166.1,157.6 166.1,102.5 221.7,130.1 		"/>
	</g>
</g>
</svg>
