<svg xmlns="http://www.w3.org/2000/svg" viewBox="0 0 800 200" fill="#ffffff"><defs><style>.cls-1{fill:#ffffff;}</style></defs><title>NIV-Logo</title><path class="cls-1" d="M120,80.2,66.49,26.71,13,80.2l21.86,21.86L13,123.92,66.49,177.4,120,123.92,98.11,102.06Zm-87.43,0L66.49,46.25l33.94,34L88.35,92.29,66.49,70.43,44.63,92.29Zm33.95,34L54.4,102.06,66.49,90l12.09,12.09Zm-21.86-2.32,21.86,21.85,21.86-21.85,12.08,12.09-33.94,34L32.54,123.92Z"/><path d="M207.44,107.9,167.69,57.47V107.9H149.42V26.34h15.74L204.8,76.65V26.34h18.38V107.9Z"/><path d="M230.74,79.18a30.21,30.21,0,1,1,30.21,30A30,30,0,0,1,230.74,79.18Zm43,0c0-8.16-5.51-13.79-12.75-13.79S248.2,71,248.2,79.18,253.71,93,261,93,273.7,87.34,273.7,79.18Z"/><path d="M300.69,50.46H318v8.62a14.84,14.84,0,0,1,13.67-9.31,20.53,20.53,0,0,1,5.63.69V68a22.18,22.18,0,0,0-7.7-1.38c-7.46,0-11.6,5.74-11.6,14V107.9H300.69Z"/><path d="M354.32,86.88V65.51H342.83V50.46h11.49v-16h17.35v16h16.08V65.51H371.67V83.32c0,6.89,2.87,9.76,9.76,9.76a17.13,17.13,0,0,0,6.32-1v15.39a38.82,38.82,0,0,1-10.34,1.15C364.66,108.59,354.32,101.47,354.32,86.88Z"/><path d="M397.51,21.74h17.34V56.32c2.76-3.91,8.5-7.12,16-7.12,14.13,0,22.28,10.45,22.28,25.5v33.2H435.76V77.69c0-7.93-3.1-12.75-9.31-12.75-6.54,0-11.6,4.7-11.6,15V107.9H397.51Z"/><path d="M480.57,26.34h18.26V107.9H480.57Z"/><path d="M506.75,89.17H525c.24,4.6,4.14,6.9,9.08,6.9,4.48,0,6.44-1.61,6.44-3.68,0-2.53-2.07-3.67-6.55-4.83l-11.61-3c-10-2.53-14.47-9.54-14.47-18,0-10,8.84-17.34,24-17.34,12.63,0,23,6.43,23.78,18.61H538.23c-.69-4.25-3.68-5.29-6.67-5.29-3.56,0-5.85,1.38-5.85,3.68,0,3,3.21,3.79,5.85,4.48L542,73.44c11.6,3.1,16.19,9,16.19,18,0,10.68-10.22,17.69-24.69,17.69C517.89,109.16,507.33,100.43,506.75,89.17Z"/><path d="M567.74,21.74h17.35V107.9H567.74Z"/><path d="M592.43,79.18c0-16.31,11.6-30,26.65-30,7.7,0,13.33,3.9,15.62,7V50.46h17.35V107.9H634.7v-5.75c-2.29,3.11-7.92,7-15.62,7C604,109.16,592.43,95.49,592.43,79.18Zm43.65,0c0-8.27-5.28-14.24-13.09-14.24s-13.1,6-13.1,14.24,5.29,14.24,13.1,14.24S636.08,87.45,636.08,79.18Z"/><path d="M665.13,50.46h17.35v5.86c2.75-3.91,8.5-7.12,16-7.12,14.13,0,22.29,10.45,22.29,25.5v33.2H703.38V77.69c0-7.93-3.1-12.75-9.3-12.75-6.55,0-11.6,4.7-11.6,15V107.9H665.13Z"/><path d="M727.38,79.18c0-16.31,11.6-30,26.65-30,7.7,0,13.33,3.9,15.62,7V21.74H787V107.9H769.65v-5.75c-2.29,3.11-7.92,7-15.62,7C739,109.16,727.38,95.49,727.38,79.18Zm43.65,0c0-8.27-5.28-14.24-13.09-14.24s-13.1,6-13.1,14.24,5.28,14.24,13.1,14.24S771,87.45,771,79.18Z"/><path d="M149.42,127.58h7.25l16.89,39.7,16.83-39.7h7.1l-21.25,50h-5.49Z"/><path d="M210.45,178.26c-10.28,0-17.74-7.82-17.74-18.3,0-10.28,6.9-18.3,17.88-18.3s17.73,9,16.89,19.92H198.83a11.52,11.52,0,0,0,11.69,11.19c4.36,0,8.09-1.69,10.2-5.91h6.2C225.16,173.05,219.39,178.26,210.45,178.26Zm-11.33-21.47h22c-1.13-6.55-5.49-9.78-10.7-9.78S200.31,149.82,199.12,156.79Z"/><path d="M234.11,142.36h6v5.42a12.44,12.44,0,0,1,11.19-6.12c7.88,0,13.3,5.49,13.3,14.22v21.67h-6V156.79c0-5.91-3.38-9.57-8.31-9.57-5.7,0-10.2,4.64-10.2,12.88v17.45h-6Z"/><path d="M288.09,177.91c-6.12,0-10.77-3.45-10.77-10.77V147.92h-7.46v-5.56h7.46v-9.78h6.05v9.78h10.14v5.56H283.37v18.44c0,4.51,2,6,5.85,6a13.47,13.47,0,0,0,4.29-.71v5.42A16.92,16.92,0,0,1,288.09,177.91Z"/><path d="M300.06,142.36h6.05v20.69c0,5.92,3.1,9.65,8,9.65,5.48,0,9.78-4.79,9.78-12.88V142.36h6v35.19h-6v-5.42A12.1,12.1,0,0,1,313,178.26c-7.74,0-12.95-5.56-12.95-14.29Z"/><path d="M340.61,142.36h6.05v6.83a10.48,10.48,0,0,1,9.85-7.18,12.65,12.65,0,0,1,2.75.28v6.27A8.71,8.71,0,0,0,356,148c-4.43,0-9.29,3.87-9.29,12.11v17.45h-6.05Z"/><path d="M379.39,178.26c-10.28,0-17.74-7.82-17.74-18.3,0-10.28,6.9-18.3,17.88-18.3s17.74,9,16.89,19.92H367.78a11.51,11.51,0,0,0,11.68,11.19c4.37,0,8.1-1.69,10.21-5.91h6.19C394.1,173.05,388.33,178.26,379.39,178.26Zm-11.33-21.47h22c-1.13-6.55-5.49-9.78-10.7-9.78S369.26,149.82,368.06,156.79Z"/><path d="M415.79,178.26c-7.53,0-13.8-3.8-14.29-10.91h6.19c.85,4.29,4.51,5.77,8.17,5.77s6.76-1.55,6.76-4.65c0-2.81-1.69-4.5-5.85-5.63l-5.07-1.33c-6.05-1.55-9.07-5.35-9.07-10.35,0-5.84,5.06-9.5,12.17-9.5,7.53,0,12.18,4.43,12.81,10.06h-6.05a6.76,6.76,0,0,0-6.76-5c-3.38,0-6.05,1.69-6.05,4.36s1.62,4.08,5.35,5.07l5.63,1.48c5.84,1.47,9,5.13,9,10.41C428.74,175,423.11,178.26,415.79,178.26Z"/></svg>