<svg xmlns="http://www.w3.org/2000/svg" xmlns:xlink="http://www.w3.org/1999/xlink" viewBox="0 0 1500 271.34"><defs><style>.cls-1{fill:url(#linear-gradient);}</style><linearGradient id="linear-gradient" y1="135.67" x2="1500" y2="135.67" gradientUnits="userSpaceOnUse"><stop offset="0" stop-color="#ff9b6a"/><stop offset="1" stop-color="#ff5151"/></linearGradient></defs><g id="Layer_2" data-name="Layer 2"><g id="Art"><path class="cls-1" d="M440,0C365.17,0,304.31,60.86,304.31,135.67S365.17,271.34,440,271.34s135.68-60.86,135.68-135.67S514.79,0,440,0ZM322.06,135.67A118.09,118.09,0,0,1,431.11,18.08V253.26A118.08,118.08,0,0,1,322.06,135.67Zm126.8,117.59V18.08a117.93,117.93,0,0,1,0,235.18ZM862.24,0l-118,122.86L626.35,0H608.62V271.34H880V0ZM731.87,135.55,626.37,241V25.65Zm130.34,118H638.93L744.17,148.35l.12.14L862.21,25.65ZM1095.52,0H928.15V271.34H1104.4V207.57A104,104,0,0,0,1095.52,0Zm-72.27,104a86.35,86.35,0,0,1-77.35,85.77V18.21A86.34,86.34,0,0,1,1023.25,104Zm72.27,86.22h-8.88v63.4H945.9V207.54A103.93,103.93,0,0,0,995.07,17.75h100.45a86.22,86.22,0,1,1,0,172.44ZM135.67,0C60.86,0,0,60.86,0,135.67S60.86,271.34,135.67,271.34H271.34V0Zm8.88,135.67a118.09,118.09,0,0,1,109-117.59V253.26A118.07,118.07,0,0,1,144.55,135.67Zm-8.88,117.92a117.92,117.92,0,0,1,0-235.84h59.77a135.61,135.61,0,0,0,0,235.84ZM1364.33,0h0c-74.81,0-135.67,60.86-135.67,135.67V271.34H1500V135.67C1500,60.86,1439.14,0,1364.33,0ZM1246.41,135.67A117.9,117.9,0,0,1,1379.93,18.79a136,136,0,0,0-66.75,116.88V253.59h-66.77Zm235.84,117.92H1330.93V135.67a118.13,118.13,0,0,1,75.64-110.09,118.12,118.12,0,0,1,75.68,110.09Z"/></g></g></svg>