<?xml version="1.0" encoding="UTF-8"?><svg id="Layer_2" xmlns="http://www.w3.org/2000/svg" viewBox="0 0 1600 600"><defs><style>.cls-1{fill:#fff;}</style></defs><g><path class="cls-1" d="M276.38,136.3c-19.21,0-34.79,15.58-34.79,34.79v20.91h-.09c.04,7.88-2.14,14.54-6.83,19.23-4.69,4.69-11.35,6.87-19.23,6.83v.09h-55.7v81.85h47.07c19.21,0,34.78-15.57,34.78-34.78v-20.93h.09c-.04-7.88,2.14-14.54,6.83-19.23,4.69-4.69,11.35-6.87,19.23-6.83v-.09h184.62c19.21,0,34.79-15.58,34.79-34.79v-47.06h-210.76Z"/><path class="cls-1" d="M276.37,300c-19.21,0-34.78,15.57-34.78,34.78v20.92h-.09c.04,7.88-2.14,14.54-6.83,19.23-4.69,4.69-11.35,6.87-19.23,6.83v.09h-55.7v81.85h47.05c19.22,0,34.81-15.58,34.81-34.81v-20.9h.09c-.04-7.88,2.14-14.54,6.83-19.23,4.69-4.69,11.35-6.87,19.23-6.83v-.09h105.12c19.17,0,34.71-15.54,34.71-34.71v-47.14h-131.19Z"/></g><g><g><path class="cls-1" d="M635.23,202.19v30.08h85.77v25.62h-85.77v48.64h-29.71V176.57h131.45v25.62h-101.74Z"/><path class="cls-1" d="M753.68,177.5c0-8.73,7.24-14.67,17.45-14.67s17.08,5.94,17.08,14.67-7.06,14.48-17.08,14.48-17.45-6.13-17.45-14.48Zm32.12,129.03h-28.78v-102.3h28.78v102.3Z"/><path class="cls-1" d="M815.14,306.53v-102.3h28.78v18.01c8.35-13.55,24.88-21.72,44.56-21.72,30.63,0,46.41,19.49,46.41,46.79v59.22h-28.78v-57.37c0-16.71-8.91-25.81-25.99-25.81-15.22,0-27.85,7.05-36.2,21.72v61.45h-28.78Z"/><path class="cls-1" d="M1075.62,249.34v37.69c0,7.43,1.3,13.55,4.64,19.49h-29.52c-2.23-3.71-3.71-8.35-3.71-12.07v-.19c-7.8,8.54-22.84,15.97-42.52,15.97-21.91,0-50.31-8.73-50.31-35.28s28.41-35.09,50.31-35.09c19.68,0,34.72,7.24,42.52,15.97v-6.68c0-18.94-12.44-27.11-36.95-27.11-13.92,0-25.06,1.86-37.32,8.54l-8.54-18.94c13.37-6.87,33.42-11.33,51.61-11.33,37.32,0,59.78,17.27,59.78,49.01Zm-28.03,24.32c-7.61-12.07-22.84-15.04-36.02-15.04-11.88,0-29.33,2.79-29.33,16.34s17.45,16.52,29.33,16.52c13.18,0,28.41-3.16,36.02-15.22v-2.6Z"/><path class="cls-1" d="M1104.95,306.53V169.14h28.78v137.39h-28.78Z"/><path class="cls-1" d="M1160.84,177.5c0-8.73,7.24-14.67,17.45-14.67s17.08,5.94,17.08,14.67-7.06,14.48-17.08,14.48-17.45-6.13-17.45-14.48Zm32.12,129.03h-28.78v-102.3h28.78v102.3Z"/><path class="cls-1" d="M1301.94,300.59c-8.73,5.94-21.54,9.84-33.6,9.84-21.54,0-38.25-11.7-38.25-34.72v-49.94h-18.94v-21.54h18.94v-23.76h28.78v23.76h42.14v21.54h-42.14v44.93c0,10.4,7.8,15.78,18.01,15.78,7.06,0,13.37-2.6,19.12-5.38l5.94,19.49Z"/><path class="cls-1" d="M1438.77,204.23l-74.63,139.43h-29.33l24.32-43.44-51.98-95.98h30.26l36.39,69.25,35.28-69.25h29.71Z"/></g><g><path class="cls-1" d="M648.55,422.57l4.69,2.75c-3.87,7.23-11.03,11.85-21.07,11.85-15.32,0-24.7-9.92-24.7-25.55s9.39-25.55,24.88-25.55c9.86,0,17.02,4.68,20.89,11.85l-4.69,2.76c-3.23-6.41-9.1-9.23-16.25-9.23-11.91,0-19.78,6.89-19.78,20.18s7.86,20.18,19.78,20.18c7.16,0,13.09-2.76,16.25-9.23Z"/><path class="cls-1" d="M701.72,422.78h-27.7l-5.99,12.95h-5.46l22.59-48.22h5.52l22.59,48.22h-5.57l-5.99-12.95Zm-2.41-5.24l-11.44-24.73-11.44,24.73h22.89Z"/><path class="cls-1" d="M770.79,402.8c0,9.64-6.28,15.29-15.73,15.29h-22.53v17.63h-4.93v-48.22h27.46c9.45,0,15.73,5.65,15.73,15.29Zm-5.05,0c0-6.75-4.34-9.92-11.03-9.92h-22.18v19.84h22.18c6.69,0,11.03-3.17,11.03-9.92Z"/><path class="cls-1" d="M786.69,435.72v-48.22h4.93v48.22h-4.93Z"/><path class="cls-1" d="M850.01,392.74h-19.42v42.98h-4.93v-42.98h-19.36v-5.23h43.72v5.23Z"/><path class="cls-1" d="M891.21,422.78h-27.7l-5.99,12.95h-5.46l22.59-48.22h5.52l22.59,48.22h-5.57l-5.99-12.95Zm-2.41-5.24l-11.44-24.73-11.44,24.73h22.89Z"/><path class="cls-1" d="M953.47,430.35v5.37h-36.38v-48.22h4.93v42.84h31.45Z"/><path class="cls-1" d="M1035.16,402.8c0,9.64-6.28,15.29-15.73,15.29h-22.53v17.63h-4.93v-48.22h27.46c9.45,0,15.73,5.65,15.73,15.29Zm-5.05,0c0-6.75-4.34-9.92-11.03-9.92h-22.18v19.84h22.18c6.69,0,11.03-3.17,11.03-9.92Z"/><path class="cls-1" d="M1079.94,422.78h-27.7l-5.99,12.95h-5.46l22.59-48.22h5.52l22.59,48.22h-5.57l-5.99-12.95Zm-2.41-5.24l-11.44-24.73-11.44,24.73h22.89Z"/><path class="cls-1" d="M1143.96,435.72l-13.61-18.46h-19.54v18.46h-4.99v-48.22h27.58c9.15,0,15.73,5.37,15.73,14.88,0,8.4-5.16,13.64-12.73,14.67l14.02,18.67h-6.46Zm-10.91-23.83c6.63,0,11.03-2.96,11.03-9.51s-4.4-9.51-11.03-9.51h-22.3v19.01h22.3Z"/><path class="cls-1" d="M1203.35,392.74h-19.42v42.98h-4.93v-42.98h-19.36v-5.23h43.72v5.23Z"/><path class="cls-1" d="M1261.69,387.51v48.22h-4.34l-34.5-40.85v40.85h-4.81v-48.22h5.34l33.51,39.74v-39.74h4.81Z"/><path class="cls-1" d="M1321.6,430.35v5.37h-39.73v-48.22h39.14v5.37h-34.21v15.64h28.99v5.37h-28.99v16.46h34.8Z"/><path class="cls-1" d="M1376.47,435.72l-13.61-18.46h-19.54v18.46h-4.99v-48.22h27.58c9.15,0,15.73,5.37,15.73,14.88,0,8.4-5.16,13.64-12.73,14.67l14.02,18.67h-6.45Zm-10.91-23.83c6.63,0,11.03-2.96,11.03-9.51s-4.4-9.51-11.03-9.51h-22.3v19.01h22.3Z"/><path class="cls-1" d="M1440.26,421.74c0,8.89-7.69,15.43-21.07,15.43-8.98,0-17.6-3.31-24-9.92l3.46-4.34c5.99,6.2,12.62,8.89,20.83,8.89,9.92,0,15.73-3.65,15.73-9.64s-6.04-7.3-17.14-8.4c-10.97-1.1-21.48-3.93-21.48-13.43s9.74-14.26,20.71-14.26c8.92,0,16.25,3.65,21.01,8.61l-3.87,3.86c-3.99-4.62-10.03-7.03-16.9-7.09-7.34-.07-15.9,2.34-15.9,8.68,0,5.99,7.75,7.23,17.43,8.13,12.5,1.17,21.18,3.99,21.18,13.5Z"/></g></g></svg>